ISO-10303-21;
HEADER;
FILE_DESCRIPTION(('FreeCAD Model'),'2;1');
FILE_NAME('Open CASCADE Shape Model','2026-06-03T10:43:24',(''),(''),
  'Open CASCADE STEP processor 7.8','FreeCAD','Unknown');
FILE_SCHEMA(('AUTOMOTIVE_DESIGN { 1 0 10303 214 1 1 1 1 }'));
ENDSEC;
DATA;
#1 = APPLICATION_PROTOCOL_DEFINITION('international standard',
  'automotive_design',2000,#2);
#2 = APPLICATION_CONTEXT(
  'core data for automotive mechanical design processes');
#3 = SHAPE_DEFINITION_REPRESENTATION(#4,#10);
#4 = PRODUCT_DEFINITION_SHAPE('','',#5);
#5 = PRODUCT_DEFINITION('design','',#6,#9);
#6 = PRODUCT_DEFINITION_FORMATION('','',#7);
#7 = PRODUCT('5012','5012','',(#8));
#8 = PRODUCT_CONTEXT('',#2,'mechanical');
#9 = PRODUCT_DEFINITION_CONTEXT('part definition',#2,'design');
#10 = ADVANCED_BREP_SHAPE_REPRESENTATION('',(#11,#15),#1493);
#11 = AXIS2_PLACEMENT_3D('',#12,#13,#14);
#12 = CARTESIAN_POINT('',(0.,0.,0.));
#13 = DIRECTION('',(0.,0.,1.));
#14 = DIRECTION('',(1.,0.,-0.));
#15 = MANIFOLD_SOLID_BREP('',#16);
#16 = CLOSED_SHELL('',(#17,#59,#141,#182,#231,#272,#321,#399,#411,#443,
    #460,#492,#509,#542,#575,#630,#685,#740,#795,#817,#839,#856,#873,
    #892,#909,#921,#956,#989,#1022,#1053,#1084,#1117,#1150,#1181,#1212,
    #1236,#1269,#1286,#1317,#1336,#1353,#1370,#1387,#1404,#1428,#1445,
    #1469,#1481));
#17 = ADVANCED_FACE('',(#18),#54,.T.);
#18 = FACE_BOUND('',#19,.T.);
#19 = EDGE_LOOP('',(#20,#31,#39,#48));
#20 = ORIENTED_EDGE('',*,*,#21,.F.);
#21 = EDGE_CURVE('',#22,#24,#26,.T.);
#22 = VERTEX_POINT('',#23);
#23 = CARTESIAN_POINT('',(1.944062586693E-16,-1.5875,3.048));
#24 = VERTEX_POINT('',#25);
#25 = CARTESIAN_POINT('',(0.,1.5875,3.048));
#26 = CIRCLE('',#27,1.5875);
#27 = AXIS2_PLACEMENT_3D('',#28,#29,#30);
#28 = CARTESIAN_POINT('',(0.,6.767919558115E-16,3.048));
#29 = DIRECTION('',(-0.,2.22044604925E-16,1.));
#30 = DIRECTION('',(0.,-1.,2.22044604925E-16));
#31 = ORIENTED_EDGE('',*,*,#32,.T.);
#32 = EDGE_CURVE('',#22,#33,#35,.T.);
#33 = VERTEX_POINT('',#34);
#34 = CARTESIAN_POINT('',(1.944062586693E-16,-1.5875,3.524958103185E-16)
  );
#35 = LINE('',#36,#37);
#36 = CARTESIAN_POINT('',(1.944062586693E-16,-1.5875,3.048));
#37 = VECTOR('',#38,1.);
#38 = DIRECTION('',(0.,-2.22044604925E-16,-1.));
#39 = ORIENTED_EDGE('',*,*,#40,.T.);
#40 = EDGE_CURVE('',#33,#41,#43,.T.);
#41 = VERTEX_POINT('',#42);
#42 = CARTESIAN_POINT('',(0.,1.5875,-3.524958103185E-16));
#43 = CIRCLE('',#44,1.5875);
#44 = AXIS2_PLACEMENT_3D('',#45,#46,#47);
#45 = CARTESIAN_POINT('',(0.,0.,0.));
#46 = DIRECTION('',(-0.,2.22044604925E-16,1.));
#47 = DIRECTION('',(0.,-1.,2.22044604925E-16));
#48 = ORIENTED_EDGE('',*,*,#49,.F.);
#49 = EDGE_CURVE('',#24,#41,#50,.T.);
#50 = LINE('',#51,#52);
#51 = CARTESIAN_POINT('',(0.,1.5875,3.048));
#52 = VECTOR('',#53,1.);
#53 = DIRECTION('',(0.,-2.22044604925E-16,-1.));
#54 = CYLINDRICAL_SURFACE('',#55,1.5875);
#55 = AXIS2_PLACEMENT_3D('',#56,#57,#58);
#56 = CARTESIAN_POINT('',(0.,6.767919558115E-16,3.048));
#57 = DIRECTION('',(0.,-2.22044604925E-16,-1.));
#58 = DIRECTION('',(0.,1.,-2.22044604925E-16));
#59 = ADVANCED_FACE('',(#60,#70),#136,.T.);
#60 = FACE_BOUND('',#61,.T.);
#61 = EDGE_LOOP('',(#62,#69));
#62 = ORIENTED_EDGE('',*,*,#63,.T.);
#63 = EDGE_CURVE('',#24,#22,#64,.T.);
#64 = CIRCLE('',#65,1.5875);
#65 = AXIS2_PLACEMENT_3D('',#66,#67,#68);
#66 = CARTESIAN_POINT('',(0.,6.767919558115E-16,3.048));
#67 = DIRECTION('',(-0.,2.22044604925E-16,1.));
#68 = DIRECTION('',(0.,-1.,2.22044604925E-16));
#69 = ORIENTED_EDGE('',*,*,#21,.T.);
#70 = FACE_BOUND('',#71,.T.);
#71 = EDGE_LOOP('',(#72,#82,#90,#98,#106,#114,#122,#130));
#72 = ORIENTED_EDGE('',*,*,#73,.F.);
#73 = EDGE_CURVE('',#74,#76,#78,.T.);
#74 = VERTEX_POINT('',#75);
#75 = CARTESIAN_POINT('',(-0.524524359082,-0.4064,3.048));
#76 = VERTEX_POINT('',#77);
#77 = CARTESIAN_POINT('',(-0.114345022486,-0.4064,3.048));
#78 = LINE('',#79,#80);
#79 = CARTESIAN_POINT('',(0.4572,-0.4064,3.048));
#80 = VECTOR('',#81,1.);
#81 = DIRECTION('',(1.,0.,0.));
#82 = ORIENTED_EDGE('',*,*,#83,.F.);
#83 = EDGE_CURVE('',#84,#74,#86,.T.);
#84 = VERTEX_POINT('',#85);
#85 = CARTESIAN_POINT('',(-0.524524359082,0.4064,3.048));
#86 = LINE('',#87,#88);
#87 = CARTESIAN_POINT('',(-0.524524359082,6.767919558115E-16,3.048));
#88 = VECTOR('',#89,1.);
#89 = DIRECTION('',(0.,-1.,2.22044604925E-16));
#90 = ORIENTED_EDGE('',*,*,#91,.T.);
#91 = EDGE_CURVE('',#84,#92,#94,.T.);
#92 = VERTEX_POINT('',#93);
#93 = CARTESIAN_POINT('',(-0.114345022486,0.4064,3.048));
#94 = LINE('',#95,#96);
#95 = CARTESIAN_POINT('',(-2.891205793295E-16,0.4064,3.048));
#96 = VECTOR('',#97,1.);
#97 = DIRECTION('',(1.,7.114187483501E-16,-1.579666949137E-31));
#98 = ORIENTED_EDGE('',*,*,#99,.F.);
#99 = EDGE_CURVE('',#100,#92,#102,.T.);
#100 = VERTEX_POINT('',#101);
#101 = CARTESIAN_POINT('',(0.114345022486,0.4064,3.048));
#102 = LINE('',#103,#104);
#103 = CARTESIAN_POINT('',(0.4572,0.4064,3.048));
#104 = VECTOR('',#105,1.);
#105 = DIRECTION('',(-1.,0.,0.));
#106 = ORIENTED_EDGE('',*,*,#107,.F.);
#107 = EDGE_CURVE('',#108,#100,#110,.T.);
#108 = VERTEX_POINT('',#109);
#109 = CARTESIAN_POINT('',(0.524524359082,0.4064,3.048));
#110 = LINE('',#111,#112);
#111 = CARTESIAN_POINT('',(0.4572,0.4064,3.048));
#112 = VECTOR('',#113,1.);
#113 = DIRECTION('',(-1.,0.,0.));
#114 = ORIENTED_EDGE('',*,*,#115,.F.);
#115 = EDGE_CURVE('',#116,#108,#118,.T.);
#116 = VERTEX_POINT('',#117);
#117 = CARTESIAN_POINT('',(0.524524359082,-0.4064,3.048));
#118 = LINE('',#119,#120);
#119 = CARTESIAN_POINT('',(0.524524359082,6.767919558115E-16,3.048));
#120 = VECTOR('',#121,1.);
#121 = DIRECTION('',(0.,1.,-2.22044604925E-16));
#122 = ORIENTED_EDGE('',*,*,#123,.T.);
#123 = EDGE_CURVE('',#116,#124,#126,.T.);
#124 = VERTEX_POINT('',#125);
#125 = CARTESIAN_POINT('',(0.114345022486,-0.4064,3.048));
#126 = LINE('',#127,#128);
#127 = CARTESIAN_POINT('',(2.891205793295E-16,-0.4064,3.048));
#128 = VECTOR('',#129,1.);
#129 = DIRECTION('',(-1.,-7.114187483501E-16,1.579666949137E-31));
#130 = ORIENTED_EDGE('',*,*,#131,.F.);
#131 = EDGE_CURVE('',#76,#124,#132,.T.);
#132 = LINE('',#133,#134);
#133 = CARTESIAN_POINT('',(0.4572,-0.4064,3.048));
#134 = VECTOR('',#135,1.);
#135 = DIRECTION('',(1.,0.,0.));
#136 = PLANE('',#137);
#137 = AXIS2_PLACEMENT_3D('',#138,#139,#140);
#138 = CARTESIAN_POINT('',(0.,6.767919558115E-16,3.048));
#139 = DIRECTION('',(0.,2.22044604925E-16,1.));
#140 = DIRECTION('',(0.,-1.,2.22044604925E-16));
#141 = ADVANCED_FACE('',(#142),#177,.T.);
#142 = FACE_BOUND('',#143,.T.);
#143 = EDGE_LOOP('',(#144,#154,#163,#171));
#144 = ORIENTED_EDGE('',*,*,#145,.F.);
#145 = EDGE_CURVE('',#146,#148,#150,.T.);
#146 = VERTEX_POINT('',#147);
#147 = CARTESIAN_POINT('',(0.457180308443,-0.4064,2.831704836742));
#148 = VERTEX_POINT('',#149);
#149 = CARTESIAN_POINT('',(0.457180308443,-0.4064,9.023892744153E-17));
#150 = LINE('',#151,#152);
#151 = CARTESIAN_POINT('',(0.457180308443,-0.4064,2.831704836742));
#152 = VECTOR('',#153,1.);
#153 = DIRECTION('',(0.,-2.22044604925E-16,-1.));
#154 = ORIENTED_EDGE('',*,*,#155,.F.);
#155 = EDGE_CURVE('',#156,#146,#158,.T.);
#156 = VERTEX_POINT('',#157);
#157 = CARTESIAN_POINT('',(0.4572,-0.4064,2.835578511208));
#158 = CIRCLE('',#159,0.381019691557);
#159 = AXIS2_PLACEMENT_3D('',#160,#161,#162);
#160 = CARTESIAN_POINT('',(0.8382,-0.4064,2.831704836742));
#161 = DIRECTION('',(0.,-1.,2.22044604925E-16));
#162 = DIRECTION('',(1.,0.,0.));
#163 = ORIENTED_EDGE('',*,*,#164,.T.);
#164 = EDGE_CURVE('',#156,#165,#167,.T.);
#165 = VERTEX_POINT('',#166);
#166 = CARTESIAN_POINT('',(0.4572,-0.4064,9.023892744153E-17));
#167 = LINE('',#168,#169);
#168 = CARTESIAN_POINT('',(0.4572,-0.4064,3.048));
#169 = VECTOR('',#170,1.);
#170 = DIRECTION('',(0.,-2.22044604925E-16,-1.));
#171 = ORIENTED_EDGE('',*,*,#172,.F.);
#172 = EDGE_CURVE('',#148,#165,#173,.T.);
#173 = LINE('',#174,#175);
#174 = CARTESIAN_POINT('',(0.4572,-0.4064,9.023892744153E-17));
#175 = VECTOR('',#176,1.);
#176 = DIRECTION('',(1.,0.,0.));
#177 = PLANE('',#178);
#178 = AXIS2_PLACEMENT_3D('',#179,#180,#181);
#179 = CARTESIAN_POINT('',(0.4572,-0.4064,3.048));
#180 = DIRECTION('',(0.,1.,-2.22044604925E-16));
#181 = DIRECTION('',(-1.,0.,0.));
#182 = ADVANCED_FACE('',(#183),#226,.T.);
#183 = FACE_BOUND('',#184,.T.);
#184 = EDGE_LOOP('',(#185,#195,#203,#211,#218,#219));
#185 = ORIENTED_EDGE('',*,*,#186,.T.);
#186 = EDGE_CURVE('',#187,#189,#191,.T.);
#187 = VERTEX_POINT('',#188);
#188 = CARTESIAN_POINT('',(8.272026756507E-02,-0.4064,2.831704836742));
#189 = VERTEX_POINT('',#190);
#190 = CARTESIAN_POINT('',(8.272026756507E-02,-0.4064,9.023892744153E-17
    ));
#191 = LINE('',#192,#193);
#192 = CARTESIAN_POINT('',(8.272026756507E-02,-0.4064,2.831704836742));
#193 = VECTOR('',#194,1.);
#194 = DIRECTION('',(0.,-2.22044604925E-16,-1.));
#195 = ORIENTED_EDGE('',*,*,#196,.F.);
#196 = EDGE_CURVE('',#197,#189,#199,.T.);
#197 = VERTEX_POINT('',#198);
#198 = CARTESIAN_POINT('',(-8.272026756507E-02,-0.4064,
    9.023892744153E-17));
#199 = LINE('',#200,#201);
#200 = CARTESIAN_POINT('',(0.4572,-0.4064,9.023892744153E-17));
#201 = VECTOR('',#202,1.);
#202 = DIRECTION('',(1.,0.,0.));
#203 = ORIENTED_EDGE('',*,*,#204,.T.);
#204 = EDGE_CURVE('',#197,#205,#207,.T.);
#205 = VERTEX_POINT('',#206);
#206 = CARTESIAN_POINT('',(-8.272026756507E-02,-0.4064,2.831704836742));
#207 = LINE('',#208,#209);
#208 = CARTESIAN_POINT('',(-8.272026756507E-02,-0.4064,
    -8.085836541224E-02));
#209 = VECTOR('',#210,1.);
#210 = DIRECTION('',(0.,2.22044604925E-16,1.));
#211 = ORIENTED_EDGE('',*,*,#212,.T.);
#212 = EDGE_CURVE('',#205,#76,#213,.T.);
#213 = CIRCLE('',#214,0.755479732435);
#214 = AXIS2_PLACEMENT_3D('',#215,#216,#217);
#215 = CARTESIAN_POINT('',(-0.8382,-0.4064,2.831704836742));
#216 = DIRECTION('',(0.,-1.,2.22044604925E-16));
#217 = DIRECTION('',(1.,0.,0.));
#218 = ORIENTED_EDGE('',*,*,#131,.T.);
#219 = ORIENTED_EDGE('',*,*,#220,.T.);
#220 = EDGE_CURVE('',#124,#187,#221,.T.);
#221 = CIRCLE('',#222,0.755479732435);
#222 = AXIS2_PLACEMENT_3D('',#223,#224,#225);
#223 = CARTESIAN_POINT('',(0.8382,-0.4064,2.831704836742));
#224 = DIRECTION('',(0.,-1.,2.22044604925E-16));
#225 = DIRECTION('',(1.,0.,0.));
#226 = PLANE('',#227);
#227 = AXIS2_PLACEMENT_3D('',#228,#229,#230);
#228 = CARTESIAN_POINT('',(0.4572,-0.4064,3.048));
#229 = DIRECTION('',(0.,1.,-2.22044604925E-16));
#230 = DIRECTION('',(-1.,0.,0.));
#231 = ADVANCED_FACE('',(#232),#267,.T.);
#232 = FACE_BOUND('',#233,.T.);
#233 = EDGE_LOOP('',(#234,#244,#252,#260));
#234 = ORIENTED_EDGE('',*,*,#235,.T.);
#235 = EDGE_CURVE('',#236,#238,#240,.T.);
#236 = VERTEX_POINT('',#237);
#237 = CARTESIAN_POINT('',(0.457180308443,0.4064,2.831704836742));
#238 = VERTEX_POINT('',#239);
#239 = CARTESIAN_POINT('',(0.457180308443,0.4064,-9.023892744153E-17));
#240 = LINE('',#241,#242);
#241 = CARTESIAN_POINT('',(0.457180308443,0.4064,2.831704836742));
#242 = VECTOR('',#243,1.);
#243 = DIRECTION('',(0.,-2.22044604925E-16,-1.));
#244 = ORIENTED_EDGE('',*,*,#245,.F.);
#245 = EDGE_CURVE('',#246,#238,#248,.T.);
#246 = VERTEX_POINT('',#247);
#247 = CARTESIAN_POINT('',(0.4572,0.4064,-9.023892744153E-17));
#248 = LINE('',#249,#250);
#249 = CARTESIAN_POINT('',(0.4572,0.4064,-9.023892744153E-17));
#250 = VECTOR('',#251,1.);
#251 = DIRECTION('',(-1.,0.,0.));
#252 = ORIENTED_EDGE('',*,*,#253,.F.);
#253 = EDGE_CURVE('',#254,#246,#256,.T.);
#254 = VERTEX_POINT('',#255);
#255 = CARTESIAN_POINT('',(0.4572,0.4064,2.835578511208));
#256 = LINE('',#257,#258);
#257 = CARTESIAN_POINT('',(0.4572,0.4064,3.048));
#258 = VECTOR('',#259,1.);
#259 = DIRECTION('',(0.,-2.22044604925E-16,-1.));
#260 = ORIENTED_EDGE('',*,*,#261,.T.);
#261 = EDGE_CURVE('',#254,#236,#262,.T.);
#262 = CIRCLE('',#263,0.381019691557);
#263 = AXIS2_PLACEMENT_3D('',#264,#265,#266);
#264 = CARTESIAN_POINT('',(0.8382,0.4064,2.831704836742));
#265 = DIRECTION('',(0.,-1.,2.22044604925E-16));
#266 = DIRECTION('',(1.,0.,0.));
#267 = PLANE('',#268);
#268 = AXIS2_PLACEMENT_3D('',#269,#270,#271);
#269 = CARTESIAN_POINT('',(0.4572,0.4064,3.048));
#270 = DIRECTION('',(0.,-1.,2.22044604925E-16));
#271 = DIRECTION('',(1.,0.,0.));
#272 = ADVANCED_FACE('',(#273),#316,.T.);
#273 = FACE_BOUND('',#274,.T.);
#274 = EDGE_LOOP('',(#275,#285,#292,#293,#302,#310));
#275 = ORIENTED_EDGE('',*,*,#276,.F.);
#276 = EDGE_CURVE('',#277,#279,#281,.T.);
#277 = VERTEX_POINT('',#278);
#278 = CARTESIAN_POINT('',(8.272026756507E-02,0.4064,2.831704836742));
#279 = VERTEX_POINT('',#280);
#280 = CARTESIAN_POINT('',(8.272026756507E-02,0.4064,-9.023892744153E-17
    ));
#281 = LINE('',#282,#283);
#282 = CARTESIAN_POINT('',(8.272026756507E-02,0.4064,2.831704836742));
#283 = VECTOR('',#284,1.);
#284 = DIRECTION('',(0.,-2.22044604925E-16,-1.));
#285 = ORIENTED_EDGE('',*,*,#286,.F.);
#286 = EDGE_CURVE('',#100,#277,#287,.T.);
#287 = CIRCLE('',#288,0.755479732435);
#288 = AXIS2_PLACEMENT_3D('',#289,#290,#291);
#289 = CARTESIAN_POINT('',(0.8382,0.4064,2.831704836742));
#290 = DIRECTION('',(0.,-1.,2.22044604925E-16));
#291 = DIRECTION('',(1.,0.,0.));
#292 = ORIENTED_EDGE('',*,*,#99,.T.);
#293 = ORIENTED_EDGE('',*,*,#294,.F.);
#294 = EDGE_CURVE('',#295,#92,#297,.T.);
#295 = VERTEX_POINT('',#296);
#296 = CARTESIAN_POINT('',(-8.272026756507E-02,0.4064,2.831704836742));
#297 = CIRCLE('',#298,0.755479732435);
#298 = AXIS2_PLACEMENT_3D('',#299,#300,#301);
#299 = CARTESIAN_POINT('',(-0.8382,0.4064,2.831704836742));
#300 = DIRECTION('',(0.,-1.,2.22044604925E-16));
#301 = DIRECTION('',(1.,0.,0.));
#302 = ORIENTED_EDGE('',*,*,#303,.F.);
#303 = EDGE_CURVE('',#304,#295,#306,.T.);
#304 = VERTEX_POINT('',#305);
#305 = CARTESIAN_POINT('',(-8.272026756507E-02,0.4064,
    -9.023892744153E-17));
#306 = LINE('',#307,#308);
#307 = CARTESIAN_POINT('',(-8.272026756507E-02,0.4064,
    -8.085836541224E-02));
#308 = VECTOR('',#309,1.);
#309 = DIRECTION('',(0.,2.22044604925E-16,1.));
#310 = ORIENTED_EDGE('',*,*,#311,.F.);
#311 = EDGE_CURVE('',#279,#304,#312,.T.);
#312 = LINE('',#313,#314);
#313 = CARTESIAN_POINT('',(0.4572,0.4064,-9.023892744153E-17));
#314 = VECTOR('',#315,1.);
#315 = DIRECTION('',(-1.,0.,0.));
#316 = PLANE('',#317);
#317 = AXIS2_PLACEMENT_3D('',#318,#319,#320);
#318 = CARTESIAN_POINT('',(0.4572,0.4064,3.048));
#319 = DIRECTION('',(0.,-1.,2.22044604925E-16));
#320 = DIRECTION('',(1.,0.,0.));
#321 = ADVANCED_FACE('',(#322,#332),#394,.F.);
#322 = FACE_BOUND('',#323,.T.);
#323 = EDGE_LOOP('',(#324,#331));
#324 = ORIENTED_EDGE('',*,*,#325,.F.);
#325 = EDGE_CURVE('',#41,#33,#326,.T.);
#326 = CIRCLE('',#327,1.5875);
#327 = AXIS2_PLACEMENT_3D('',#328,#329,#330);
#328 = CARTESIAN_POINT('',(0.,0.,0.));
#329 = DIRECTION('',(-0.,2.22044604925E-16,1.));
#330 = DIRECTION('',(0.,-1.,2.22044604925E-16));
#331 = ORIENTED_EDGE('',*,*,#40,.F.);
#332 = FACE_BOUND('',#333,.T.);
#333 = EDGE_LOOP('',(#334,#344,#350,#351,#357,#358,#364,#365,#371,#372,
    #380,#388));
#334 = ORIENTED_EDGE('',*,*,#335,.T.);
#335 = EDGE_CURVE('',#336,#338,#340,.T.);
#336 = VERTEX_POINT('',#337);
#337 = CARTESIAN_POINT('',(-0.4572,-0.4064,9.023892744153E-17));
#338 = VERTEX_POINT('',#339);
#339 = CARTESIAN_POINT('',(-0.457180308443,-0.4064,9.023892744153E-17));
#340 = LINE('',#341,#342);
#341 = CARTESIAN_POINT('',(0.4572,-0.4064,9.023892744153E-17));
#342 = VECTOR('',#343,1.);
#343 = DIRECTION('',(1.,0.,0.));
#344 = ORIENTED_EDGE('',*,*,#345,.F.);
#345 = EDGE_CURVE('',#197,#338,#346,.T.);
#346 = LINE('',#347,#348);
#347 = CARTESIAN_POINT('',(2.891205793295E-16,-0.4064,9.023892744153E-17
    ));
#348 = VECTOR('',#349,1.);
#349 = DIRECTION('',(-1.,-7.114187483501E-16,1.579666949137E-31));
#350 = ORIENTED_EDGE('',*,*,#196,.T.);
#351 = ORIENTED_EDGE('',*,*,#352,.F.);
#352 = EDGE_CURVE('',#148,#189,#353,.T.);
#353 = LINE('',#354,#355);
#354 = CARTESIAN_POINT('',(2.891205793295E-16,-0.4064,9.023892744153E-17
    ));
#355 = VECTOR('',#356,1.);
#356 = DIRECTION('',(-1.,-7.114187483501E-16,1.579666949137E-31));
#357 = ORIENTED_EDGE('',*,*,#172,.T.);
#358 = ORIENTED_EDGE('',*,*,#359,.T.);
#359 = EDGE_CURVE('',#165,#246,#360,.T.);
#360 = LINE('',#361,#362);
#361 = CARTESIAN_POINT('',(0.4572,-0.4064,9.023892744153E-17));
#362 = VECTOR('',#363,1.);
#363 = DIRECTION('',(0.,1.,-2.22044604925E-16));
#364 = ORIENTED_EDGE('',*,*,#245,.T.);
#365 = ORIENTED_EDGE('',*,*,#366,.F.);
#366 = EDGE_CURVE('',#279,#238,#367,.T.);
#367 = LINE('',#368,#369);
#368 = CARTESIAN_POINT('',(-2.891205793295E-16,0.4064,
    -9.023892744153E-17));
#369 = VECTOR('',#370,1.);
#370 = DIRECTION('',(1.,7.114187483501E-16,-1.579666949137E-31));
#371 = ORIENTED_EDGE('',*,*,#311,.T.);
#372 = ORIENTED_EDGE('',*,*,#373,.F.);
#373 = EDGE_CURVE('',#374,#304,#376,.T.);
#374 = VERTEX_POINT('',#375);
#375 = CARTESIAN_POINT('',(-0.457180308443,0.4064,-9.023892744153E-17));
#376 = LINE('',#377,#378);
#377 = CARTESIAN_POINT('',(-2.891205793295E-16,0.4064,
    -9.023892744153E-17));
#378 = VECTOR('',#379,1.);
#379 = DIRECTION('',(1.,7.114187483501E-16,-1.579666949137E-31));
#380 = ORIENTED_EDGE('',*,*,#381,.T.);
#381 = EDGE_CURVE('',#374,#382,#384,.T.);
#382 = VERTEX_POINT('',#383);
#383 = CARTESIAN_POINT('',(-0.4572,0.4064,-9.023892744153E-17));
#384 = LINE('',#385,#386);
#385 = CARTESIAN_POINT('',(0.4572,0.4064,-9.023892744153E-17));
#386 = VECTOR('',#387,1.);
#387 = DIRECTION('',(-1.,0.,0.));
#388 = ORIENTED_EDGE('',*,*,#389,.T.);
#389 = EDGE_CURVE('',#382,#336,#390,.T.);
#390 = LINE('',#391,#392);
#391 = CARTESIAN_POINT('',(-0.4572,-0.4064,9.023892744153E-17));
#392 = VECTOR('',#393,1.);
#393 = DIRECTION('',(0.,-1.,2.22044604925E-16));
#394 = PLANE('',#395);
#395 = AXIS2_PLACEMENT_3D('',#396,#397,#398);
#396 = CARTESIAN_POINT('',(0.,0.,0.));
#397 = DIRECTION('',(0.,2.22044604925E-16,1.));
#398 = DIRECTION('',(0.,-1.,2.22044604925E-16));
#399 = ADVANCED_FACE('',(#400),#406,.T.);
#400 = FACE_BOUND('',#401,.T.);
#401 = EDGE_LOOP('',(#402,#403,#404,#405));
#402 = ORIENTED_EDGE('',*,*,#32,.F.);
#403 = ORIENTED_EDGE('',*,*,#63,.F.);
#404 = ORIENTED_EDGE('',*,*,#49,.T.);
#405 = ORIENTED_EDGE('',*,*,#325,.T.);
#406 = CYLINDRICAL_SURFACE('',#407,1.5875);
#407 = AXIS2_PLACEMENT_3D('',#408,#409,#410);
#408 = CARTESIAN_POINT('',(0.,6.767919558115E-16,3.048));
#409 = DIRECTION('',(0.,-2.22044604925E-16,-1.));
#410 = DIRECTION('',(0.,1.,-2.22044604925E-16));
#411 = ADVANCED_FACE('',(#412),#438,.T.);
#412 = FACE_BOUND('',#413,.T.);
#413 = EDGE_LOOP('',(#414,#425,#431,#432));
#414 = ORIENTED_EDGE('',*,*,#415,.F.);
#415 = EDGE_CURVE('',#416,#418,#420,.T.);
#416 = VERTEX_POINT('',#417);
#417 = CARTESIAN_POINT('',(-0.457180308443,-0.4064,2.831704836742));
#418 = VERTEX_POINT('',#419);
#419 = CARTESIAN_POINT('',(-0.4572,-0.4064,2.835578511208));
#420 = CIRCLE('',#421,0.381019691557);
#421 = AXIS2_PLACEMENT_3D('',#422,#423,#424);
#422 = CARTESIAN_POINT('',(-0.8382,-0.4064,2.831704836742));
#423 = DIRECTION('',(0.,-1.,2.22044604925E-16));
#424 = DIRECTION('',(1.,0.,0.));
#425 = ORIENTED_EDGE('',*,*,#426,.F.);
#426 = EDGE_CURVE('',#338,#416,#427,.T.);
#427 = LINE('',#428,#429);
#428 = CARTESIAN_POINT('',(-0.457180308443,-0.4064,-4.251837786275E-06)
  );
#429 = VECTOR('',#430,1.);
#430 = DIRECTION('',(0.,2.22044604925E-16,1.));
#431 = ORIENTED_EDGE('',*,*,#335,.F.);
#432 = ORIENTED_EDGE('',*,*,#433,.F.);
#433 = EDGE_CURVE('',#418,#336,#434,.T.);
#434 = LINE('',#435,#436);
#435 = CARTESIAN_POINT('',(-0.4572,-0.4064,3.048));
#436 = VECTOR('',#437,1.);
#437 = DIRECTION('',(0.,-2.22044604925E-16,-1.));
#438 = PLANE('',#439);
#439 = AXIS2_PLACEMENT_3D('',#440,#441,#442);
#440 = CARTESIAN_POINT('',(0.4572,-0.4064,3.048));
#441 = DIRECTION('',(0.,1.,-2.22044604925E-16));
#442 = DIRECTION('',(-1.,0.,0.));
#443 = ADVANCED_FACE('',(#444),#455,.T.);
#444 = FACE_BOUND('',#445,.T.);
#445 = EDGE_LOOP('',(#446,#452,#453,#454));
#446 = ORIENTED_EDGE('',*,*,#447,.F.);
#447 = EDGE_CURVE('',#254,#156,#448,.T.);
#448 = LINE('',#449,#450);
#449 = CARTESIAN_POINT('',(0.4572,6.29624910255E-16,2.835578511208));
#450 = VECTOR('',#451,1.);
#451 = DIRECTION('',(0.,-1.,2.22044604925E-16));
#452 = ORIENTED_EDGE('',*,*,#253,.T.);
#453 = ORIENTED_EDGE('',*,*,#359,.F.);
#454 = ORIENTED_EDGE('',*,*,#164,.F.);
#455 = PLANE('',#456);
#456 = AXIS2_PLACEMENT_3D('',#457,#458,#459);
#457 = CARTESIAN_POINT('',(0.4572,-0.4064,3.048));
#458 = DIRECTION('',(-1.,0.,0.));
#459 = DIRECTION('',(0.,-1.,2.22044604925E-16));
#460 = ADVANCED_FACE('',(#461),#487,.T.);
#461 = FACE_BOUND('',#462,.T.);
#462 = EDGE_LOOP('',(#463,#474,#480,#481));
#463 = ORIENTED_EDGE('',*,*,#464,.T.);
#464 = EDGE_CURVE('',#465,#467,#469,.T.);
#465 = VERTEX_POINT('',#466);
#466 = CARTESIAN_POINT('',(-0.457180308443,0.4064,2.831704836742));
#467 = VERTEX_POINT('',#468);
#468 = CARTESIAN_POINT('',(-0.4572,0.4064,2.835578511208));
#469 = CIRCLE('',#470,0.381019691557);
#470 = AXIS2_PLACEMENT_3D('',#471,#472,#473);
#471 = CARTESIAN_POINT('',(-0.8382,0.4064,2.831704836742));
#472 = DIRECTION('',(0.,-1.,2.22044604925E-16));
#473 = DIRECTION('',(1.,0.,0.));
#474 = ORIENTED_EDGE('',*,*,#475,.T.);
#475 = EDGE_CURVE('',#467,#382,#476,.T.);
#476 = LINE('',#477,#478);
#477 = CARTESIAN_POINT('',(-0.4572,0.4064,3.048));
#478 = VECTOR('',#479,1.);
#479 = DIRECTION('',(0.,-2.22044604925E-16,-1.));
#480 = ORIENTED_EDGE('',*,*,#381,.F.);
#481 = ORIENTED_EDGE('',*,*,#482,.T.);
#482 = EDGE_CURVE('',#374,#465,#483,.T.);
#483 = LINE('',#484,#485);
#484 = CARTESIAN_POINT('',(-0.457180308443,0.4064,-4.251837786364E-06));
#485 = VECTOR('',#486,1.);
#486 = DIRECTION('',(0.,2.22044604925E-16,1.));
#487 = PLANE('',#488);
#488 = AXIS2_PLACEMENT_3D('',#489,#490,#491);
#489 = CARTESIAN_POINT('',(0.4572,0.4064,3.048));
#490 = DIRECTION('',(0.,-1.,2.22044604925E-16));
#491 = DIRECTION('',(1.,0.,0.));
#492 = ADVANCED_FACE('',(#493),#504,.T.);
#493 = FACE_BOUND('',#494,.T.);
#494 = EDGE_LOOP('',(#495,#501,#502,#503));
#495 = ORIENTED_EDGE('',*,*,#496,.F.);
#496 = EDGE_CURVE('',#418,#467,#497,.T.);
#497 = LINE('',#498,#499);
#498 = CARTESIAN_POINT('',(-0.4572,6.29624910255E-16,2.835578511208));
#499 = VECTOR('',#500,1.);
#500 = DIRECTION('',(0.,1.,-2.22044604925E-16));
#501 = ORIENTED_EDGE('',*,*,#433,.T.);
#502 = ORIENTED_EDGE('',*,*,#389,.F.);
#503 = ORIENTED_EDGE('',*,*,#475,.F.);
#504 = PLANE('',#505);
#505 = AXIS2_PLACEMENT_3D('',#506,#507,#508);
#506 = CARTESIAN_POINT('',(-0.4572,-0.4064,3.048));
#507 = DIRECTION('',(1.,0.,0.));
#508 = DIRECTION('',(0.,1.,-2.22044604925E-16));
#509 = ADVANCED_FACE('',(#510),#537,.F.);
#510 = FACE_BOUND('',#511,.F.);
#511 = EDGE_LOOP('',(#512,#522,#529,#530));
#512 = ORIENTED_EDGE('',*,*,#513,.F.);
#513 = EDGE_CURVE('',#514,#516,#518,.T.);
#514 = VERTEX_POINT('',#515);
#515 = CARTESIAN_POINT('',(0.623228295716,0.4064,3.146288961757));
#516 = VERTEX_POINT('',#517);
#517 = CARTESIAN_POINT('',(0.623228295716,-0.4064,3.146288961757));
#518 = LINE('',#519,#520);
#519 = CARTESIAN_POINT('',(0.623228295716,0.4064,3.146288961757));
#520 = VECTOR('',#521,1.);
#521 = DIRECTION('',(0.,-1.,2.22044604925E-16));
#522 = ORIENTED_EDGE('',*,*,#523,.T.);
#523 = EDGE_CURVE('',#514,#108,#524,.T.);
#524 = CIRCLE('',#525,0.381019691557);
#525 = AXIS2_PLACEMENT_3D('',#526,#527,#528);
#526 = CARTESIAN_POINT('',(0.8382,0.4064,2.831704836742));
#527 = DIRECTION('',(0.,-1.,2.22044604925E-16));
#528 = DIRECTION('',(1.,0.,0.));
#529 = ORIENTED_EDGE('',*,*,#115,.F.);
#530 = ORIENTED_EDGE('',*,*,#531,.F.);
#531 = EDGE_CURVE('',#516,#116,#532,.T.);
#532 = CIRCLE('',#533,0.381019691557);
#533 = AXIS2_PLACEMENT_3D('',#534,#535,#536);
#534 = CARTESIAN_POINT('',(0.8382,-0.4064,2.831704836742));
#535 = DIRECTION('',(0.,-1.,2.22044604925E-16));
#536 = DIRECTION('',(1.,0.,0.));
#537 = CYLINDRICAL_SURFACE('',#538,0.381019691557);
#538 = AXIS2_PLACEMENT_3D('',#539,#540,#541);
#539 = CARTESIAN_POINT('',(0.8382,6.287647817388E-16,2.831704836742));
#540 = DIRECTION('',(0.,-1.,2.22044604925E-16));
#541 = DIRECTION('',(1.,0.,0.));
#542 = ADVANCED_FACE('',(#543),#570,.F.);
#543 = FACE_BOUND('',#544,.F.);
#544 = EDGE_LOOP('',(#545,#555,#562,#563));
#545 = ORIENTED_EDGE('',*,*,#546,.T.);
#546 = EDGE_CURVE('',#547,#549,#551,.T.);
#547 = VERTEX_POINT('',#548);
#548 = CARTESIAN_POINT('',(-0.623228295716,0.4064,3.146288961757));
#549 = VERTEX_POINT('',#550);
#550 = CARTESIAN_POINT('',(-0.623228295716,-0.4064,3.146288961757));
#551 = LINE('',#552,#553);
#552 = CARTESIAN_POINT('',(-0.623228295716,0.4064,3.146288961757));
#553 = VECTOR('',#554,1.);
#554 = DIRECTION('',(0.,-1.,2.22044604925E-16));
#555 = ORIENTED_EDGE('',*,*,#556,.F.);
#556 = EDGE_CURVE('',#74,#549,#557,.T.);
#557 = CIRCLE('',#558,0.381019691557);
#558 = AXIS2_PLACEMENT_3D('',#559,#560,#561);
#559 = CARTESIAN_POINT('',(-0.8382,-0.4064,2.831704836742));
#560 = DIRECTION('',(0.,-1.,2.22044604925E-16));
#561 = DIRECTION('',(1.,0.,0.));
#562 = ORIENTED_EDGE('',*,*,#83,.F.);
#563 = ORIENTED_EDGE('',*,*,#564,.T.);
#564 = EDGE_CURVE('',#84,#547,#565,.T.);
#565 = CIRCLE('',#566,0.381019691557);
#566 = AXIS2_PLACEMENT_3D('',#567,#568,#569);
#567 = CARTESIAN_POINT('',(-0.8382,0.4064,2.831704836742));
#568 = DIRECTION('',(0.,-1.,2.22044604925E-16));
#569 = DIRECTION('',(1.,0.,0.));
#570 = CYLINDRICAL_SURFACE('',#571,0.381019691557);
#571 = AXIS2_PLACEMENT_3D('',#572,#573,#574);
#572 = CARTESIAN_POINT('',(-0.8382,6.287647817388E-16,2.831704836742));
#573 = DIRECTION('',(0.,-1.,2.22044604925E-16));
#574 = DIRECTION('',(1.,0.,0.));
#575 = ADVANCED_FACE('',(#576),#625,.F.);
#576 = FACE_BOUND('',#577,.T.);
#577 = EDGE_LOOP('',(#578,#586,#587,#595,#603,#611,#619));
#578 = ORIENTED_EDGE('',*,*,#579,.F.);
#579 = EDGE_CURVE('',#148,#580,#582,.T.);
#580 = VERTEX_POINT('',#581);
#581 = CARTESIAN_POINT('',(1.117579501018,-0.4064,-1.457961897663));
#582 = LINE('',#583,#584);
#583 = CARTESIAN_POINT('',(0.457180308443,-0.4064,-4.251837786275E-06));
#584 = VECTOR('',#585,1.);
#585 = DIRECTION('',(0.412607074553,-2.022624528855E-16,-0.910909107446)
  );
#586 = ORIENTED_EDGE('',*,*,#352,.T.);
#587 = ORIENTED_EDGE('',*,*,#588,.T.);
#588 = EDGE_CURVE('',#189,#589,#591,.T.);
#589 = VERTEX_POINT('',#590);
#590 = CARTESIAN_POINT('',(8.272026756507E-02,-0.4064,
    -8.085836541224E-02));
#591 = LINE('',#592,#593);
#592 = CARTESIAN_POINT('',(8.272026756507E-02,-0.4064,2.831704836742));
#593 = VECTOR('',#594,1.);
#594 = DIRECTION('',(0.,-2.22044604925E-16,-1.));
#595 = ORIENTED_EDGE('',*,*,#596,.T.);
#596 = EDGE_CURVE('',#589,#597,#599,.T.);
#597 = VERTEX_POINT('',#598);
#598 = CARTESIAN_POINT('',(0.727765243542,-0.4064,-1.504918638654));
#599 = LINE('',#600,#601);
#600 = CARTESIAN_POINT('',(8.272026756507E-02,-0.4064,
    -8.085836541224E-02));
#601 = VECTOR('',#602,1.);
#602 = DIRECTION('',(0.412607074553,-2.022624528855E-16,-0.910909107446)
  );
#603 = ORIENTED_EDGE('',*,*,#604,.T.);
#604 = EDGE_CURVE('',#597,#605,#607,.T.);
#605 = VERTEX_POINT('',#606);
#606 = CARTESIAN_POINT('',(0.427242340154,-0.4064,-3.105912956504));
#607 = LINE('',#608,#609);
#608 = CARTESIAN_POINT('',(0.727765243542,-0.4064,-1.504918638654));
#609 = VECTOR('',#610,1.);
#610 = DIRECTION('',(-0.18448807108,-2.182331544279E-16,-0.982834752962)
  );
#611 = ORIENTED_EDGE('',*,*,#612,.T.);
#612 = EDGE_CURVE('',#605,#613,#615,.T.);
#613 = VERTEX_POINT('',#614);
#614 = CARTESIAN_POINT('',(0.795274681924,-0.4064,-3.174996367143));
#615 = LINE('',#616,#617);
#616 = CARTESIAN_POINT('',(1.43646959342,-0.4064,-3.295355168103));
#617 = VECTOR('',#618,1.);
#618 = DIRECTION('',(0.982834752962,-7.648082852089E-16,-0.18448807108)
  );
#619 = ORIENTED_EDGE('',*,*,#620,.F.);
#620 = EDGE_CURVE('',#580,#613,#621,.T.);
#621 = LINE('',#622,#623);
#622 = CARTESIAN_POINT('',(1.117579501018,-0.4064,-1.457961897663));
#623 = VECTOR('',#624,1.);
#624 = DIRECTION('',(-0.18448807108,-2.182331544279E-16,-0.982834752962)
  );
#625 = PLANE('',#626);
#626 = AXIS2_PLACEMENT_3D('',#627,#628,#629);
#627 = CARTESIAN_POINT('',(-1.278781101974,-0.4064,-0.59918260248));
#628 = DIRECTION('',(-7.114187483501E-16,1.,-3.555851337047E-16));
#629 = DIRECTION('',(-1.,-7.114187483501E-16,1.579666949137E-31));
#630 = ADVANCED_FACE('',(#631),#680,.F.);
#631 = FACE_BOUND('',#632,.T.);
#632 = EDGE_LOOP('',(#633,#641,#642,#650,#658,#666,#674));
#633 = ORIENTED_EDGE('',*,*,#634,.T.);
#634 = EDGE_CURVE('',#635,#197,#637,.T.);
#635 = VERTEX_POINT('',#636);
#636 = CARTESIAN_POINT('',(-8.272026756507E-02,-0.4064,
    -8.085836541224E-02));
#637 = LINE('',#638,#639);
#638 = CARTESIAN_POINT('',(-8.272026756507E-02,-0.4064,
    -8.085836541224E-02));
#639 = VECTOR('',#640,1.);
#640 = DIRECTION('',(0.,2.22044604925E-16,1.));
#641 = ORIENTED_EDGE('',*,*,#345,.T.);
#642 = ORIENTED_EDGE('',*,*,#643,.F.);
#643 = EDGE_CURVE('',#644,#338,#646,.T.);
#644 = VERTEX_POINT('',#645);
#645 = CARTESIAN_POINT('',(-1.117579501018,-0.4064,-1.457961897663));
#646 = LINE('',#647,#648);
#647 = CARTESIAN_POINT('',(-1.117579501018,-0.4064,-1.457961897663));
#648 = VECTOR('',#649,1.);
#649 = DIRECTION('',(0.412607074553,2.022624528855E-16,0.910909107446));
#650 = ORIENTED_EDGE('',*,*,#651,.T.);
#651 = EDGE_CURVE('',#644,#652,#654,.T.);
#652 = VERTEX_POINT('',#653);
#653 = CARTESIAN_POINT('',(-0.795274,-0.4064,-3.175));
#654 = LINE('',#655,#656);
#655 = CARTESIAN_POINT('',(-1.278781101974,-0.4064,-0.59918260248));
#656 = VECTOR('',#657,1.);
#657 = DIRECTION('',(0.18448807108,-2.182331544279E-16,-0.982834752962)
  );
#658 = ORIENTED_EDGE('',*,*,#659,.T.);
#659 = EDGE_CURVE('',#652,#660,#662,.T.);
#660 = VERTEX_POINT('',#661);
#661 = CARTESIAN_POINT('',(-0.414274,-0.4064,-3.175));
#662 = LINE('',#663,#664);
#663 = CARTESIAN_POINT('',(-0.795274,-0.4064,-3.175));
#664 = VECTOR('',#665,1.);
#665 = DIRECTION('',(1.,7.114187483501E-16,-1.579666949137E-31));
#666 = ORIENTED_EDGE('',*,*,#667,.F.);
#667 = EDGE_CURVE('',#668,#660,#670,.T.);
#668 = VERTEX_POINT('',#669);
#669 = CARTESIAN_POINT('',(-0.727765243542,-0.4064,-1.504918638654));
#670 = LINE('',#671,#672);
#671 = CARTESIAN_POINT('',(-0.897781101974,-0.4064,-0.59918260248));
#672 = VECTOR('',#673,1.);
#673 = DIRECTION('',(0.18448807108,-2.182331544279E-16,-0.982834752962)
  );
#674 = ORIENTED_EDGE('',*,*,#675,.T.);
#675 = EDGE_CURVE('',#668,#635,#676,.T.);
#676 = LINE('',#677,#678);
#677 = CARTESIAN_POINT('',(-0.727765243542,-0.4064,-1.504918638654));
#678 = VECTOR('',#679,1.);
#679 = DIRECTION('',(0.412607074553,2.022624528855E-16,0.910909107446));
#680 = PLANE('',#681);
#681 = AXIS2_PLACEMENT_3D('',#682,#683,#684);
#682 = CARTESIAN_POINT('',(-1.278781101974,-0.4064,-0.59918260248));
#683 = DIRECTION('',(-7.114187483501E-16,1.,-3.555851337047E-16));
#684 = DIRECTION('',(-1.,-7.114187483501E-16,1.579666949137E-31));
#685 = ADVANCED_FACE('',(#686),#735,.F.);
#686 = FACE_BOUND('',#687,.T.);
#687 = EDGE_LOOP('',(#688,#696,#697,#705,#713,#721,#729));
#688 = ORIENTED_EDGE('',*,*,#689,.T.);
#689 = EDGE_CURVE('',#690,#374,#692,.T.);
#690 = VERTEX_POINT('',#691);
#691 = CARTESIAN_POINT('',(-1.117579501018,0.4064,-1.457961897663));
#692 = LINE('',#693,#694);
#693 = CARTESIAN_POINT('',(-1.117579501018,0.4064,-1.457961897663));
#694 = VECTOR('',#695,1.);
#695 = DIRECTION('',(0.412607074553,2.022624528855E-16,0.910909107446));
#696 = ORIENTED_EDGE('',*,*,#373,.T.);
#697 = ORIENTED_EDGE('',*,*,#698,.F.);
#698 = EDGE_CURVE('',#699,#304,#701,.T.);
#699 = VERTEX_POINT('',#700);
#700 = CARTESIAN_POINT('',(-8.272026756507E-02,0.4064,
    -8.085836541224E-02));
#701 = LINE('',#702,#703);
#702 = CARTESIAN_POINT('',(-8.272026756507E-02,0.4064,
    -8.085836541224E-02));
#703 = VECTOR('',#704,1.);
#704 = DIRECTION('',(0.,2.22044604925E-16,1.));
#705 = ORIENTED_EDGE('',*,*,#706,.F.);
#706 = EDGE_CURVE('',#707,#699,#709,.T.);
#707 = VERTEX_POINT('',#708);
#708 = CARTESIAN_POINT('',(-0.727765243542,0.4064,-1.504918638654));
#709 = LINE('',#710,#711);
#710 = CARTESIAN_POINT('',(-0.727765243542,0.4064,-1.504918638654));
#711 = VECTOR('',#712,1.);
#712 = DIRECTION('',(0.412607074553,2.022624528855E-16,0.910909107446));
#713 = ORIENTED_EDGE('',*,*,#714,.T.);
#714 = EDGE_CURVE('',#707,#715,#717,.T.);
#715 = VERTEX_POINT('',#716);
#716 = CARTESIAN_POINT('',(-0.414274,0.4064,-3.175));
#717 = LINE('',#718,#719);
#718 = CARTESIAN_POINT('',(-0.897781101974,0.4064,-0.59918260248));
#719 = VECTOR('',#720,1.);
#720 = DIRECTION('',(0.18448807108,-2.182331544279E-16,-0.982834752962)
  );
#721 = ORIENTED_EDGE('',*,*,#722,.T.);
#722 = EDGE_CURVE('',#715,#723,#725,.T.);
#723 = VERTEX_POINT('',#724);
#724 = CARTESIAN_POINT('',(-0.795274,0.4064,-3.175));
#725 = LINE('',#726,#727);
#726 = CARTESIAN_POINT('',(-0.414274,0.4064,-3.175));
#727 = VECTOR('',#728,1.);
#728 = DIRECTION('',(-1.,-7.114187483501E-16,1.579666949137E-31));
#729 = ORIENTED_EDGE('',*,*,#730,.F.);
#730 = EDGE_CURVE('',#690,#723,#731,.T.);
#731 = LINE('',#732,#733);
#732 = CARTESIAN_POINT('',(-1.278781101974,0.4064,-0.59918260248));
#733 = VECTOR('',#734,1.);
#734 = DIRECTION('',(0.18448807108,-2.182331544279E-16,-0.982834752962)
  );
#735 = PLANE('',#736);
#736 = AXIS2_PLACEMENT_3D('',#737,#738,#739);
#737 = CARTESIAN_POINT('',(-0.897781101974,0.4064,-0.59918260248));
#738 = DIRECTION('',(7.114187483501E-16,-1.,3.555851337047E-16));
#739 = DIRECTION('',(1.,7.114187483501E-16,-1.579666949137E-31));
#740 = ADVANCED_FACE('',(#741),#790,.F.);
#741 = FACE_BOUND('',#742,.T.);
#742 = EDGE_LOOP('',(#743,#751,#752,#760,#768,#776,#784));
#743 = ORIENTED_EDGE('',*,*,#744,.F.);
#744 = EDGE_CURVE('',#279,#745,#747,.T.);
#745 = VERTEX_POINT('',#746);
#746 = CARTESIAN_POINT('',(8.272026756507E-02,0.4064,-8.085836541223E-02
    ));
#747 = LINE('',#748,#749);
#748 = CARTESIAN_POINT('',(8.272026756507E-02,0.4064,2.831704836742));
#749 = VECTOR('',#750,1.);
#750 = DIRECTION('',(0.,-2.22044604925E-16,-1.));
#751 = ORIENTED_EDGE('',*,*,#366,.T.);
#752 = ORIENTED_EDGE('',*,*,#753,.T.);
#753 = EDGE_CURVE('',#238,#754,#756,.T.);
#754 = VERTEX_POINT('',#755);
#755 = CARTESIAN_POINT('',(1.117579501018,0.4064,-1.457961897663));
#756 = LINE('',#757,#758);
#757 = CARTESIAN_POINT('',(0.457180308443,0.4064,-4.251837786455E-06));
#758 = VECTOR('',#759,1.);
#759 = DIRECTION('',(0.412607074553,-2.022624528855E-16,-0.910909107446)
  );
#760 = ORIENTED_EDGE('',*,*,#761,.T.);
#761 = EDGE_CURVE('',#754,#762,#764,.T.);
#762 = VERTEX_POINT('',#763);
#763 = CARTESIAN_POINT('',(0.795274681924,0.4064,-3.174996367143));
#764 = LINE('',#765,#766);
#765 = CARTESIAN_POINT('',(1.117579501018,0.4064,-1.457961897663));
#766 = VECTOR('',#767,1.);
#767 = DIRECTION('',(-0.18448807108,-2.182331544279E-16,-0.982834752962)
  );
#768 = ORIENTED_EDGE('',*,*,#769,.T.);
#769 = EDGE_CURVE('',#762,#770,#772,.T.);
#770 = VERTEX_POINT('',#771);
#771 = CARTESIAN_POINT('',(0.427242340154,0.4064,-3.105912956504));
#772 = LINE('',#773,#774);
#773 = CARTESIAN_POINT('',(1.100605726653,0.4064,-3.232310107131));
#774 = VECTOR('',#775,1.);
#775 = DIRECTION('',(-0.982834752962,7.648082852089E-16,0.18448807108));
#776 = ORIENTED_EDGE('',*,*,#777,.F.);
#777 = EDGE_CURVE('',#778,#770,#780,.T.);
#778 = VERTEX_POINT('',#779);
#779 = CARTESIAN_POINT('',(0.727765243542,0.4064,-1.504918638654));
#780 = LINE('',#781,#782);
#781 = CARTESIAN_POINT('',(0.727765243542,0.4064,-1.504918638654));
#782 = VECTOR('',#783,1.);
#783 = DIRECTION('',(-0.18448807108,-2.182331544279E-16,-0.982834752962)
  );
#784 = ORIENTED_EDGE('',*,*,#785,.F.);
#785 = EDGE_CURVE('',#745,#778,#786,.T.);
#786 = LINE('',#787,#788);
#787 = CARTESIAN_POINT('',(8.272026756507E-02,0.4064,-8.085836541223E-02
    ));
#788 = VECTOR('',#789,1.);
#789 = DIRECTION('',(0.412607074553,-2.022624528855E-16,-0.910909107446)
  );
#790 = PLANE('',#791);
#791 = AXIS2_PLACEMENT_3D('',#792,#793,#794);
#792 = CARTESIAN_POINT('',(-0.897781101974,0.4064,-0.59918260248));
#793 = DIRECTION('',(7.114187483501E-16,-1.,3.555851337047E-16));
#794 = DIRECTION('',(1.,7.114187483501E-16,-1.579666949137E-31));
#795 = ADVANCED_FACE('',(#796),#812,.T.);
#796 = FACE_BOUND('',#797,.T.);
#797 = EDGE_LOOP('',(#798,#799,#805,#806));
#798 = ORIENTED_EDGE('',*,*,#620,.T.);
#799 = ORIENTED_EDGE('',*,*,#800,.T.);
#800 = EDGE_CURVE('',#613,#762,#801,.T.);
#801 = LINE('',#802,#803);
#802 = CARTESIAN_POINT('',(0.795274681924,0.4064,-3.174996367143));
#803 = VECTOR('',#804,1.);
#804 = DIRECTION('',(0.,1.,-2.22044604925E-16));
#805 = ORIENTED_EDGE('',*,*,#761,.F.);
#806 = ORIENTED_EDGE('',*,*,#807,.T.);
#807 = EDGE_CURVE('',#754,#580,#808,.T.);
#808 = LINE('',#809,#810);
#809 = CARTESIAN_POINT('',(1.117579501018,0.4064,-1.457961897663));
#810 = VECTOR('',#811,1.);
#811 = DIRECTION('',(0.,-1.,2.22044604925E-16));
#812 = PLANE('',#813);
#813 = AXIS2_PLACEMENT_3D('',#814,#815,#816);
#814 = CARTESIAN_POINT('',(1.117579501018,0.4064,-1.457961897663));
#815 = DIRECTION('',(0.982834752962,-4.096458085642E-17,-0.18448807108)
  );
#816 = DIRECTION('',(0.18448807108,2.182331544279E-16,0.982834752962));
#817 = ADVANCED_FACE('',(#818),#834,.T.);
#818 = FACE_BOUND('',#819,.T.);
#819 = EDGE_LOOP('',(#820,#821,#827,#828));
#820 = ORIENTED_EDGE('',*,*,#777,.T.);
#821 = ORIENTED_EDGE('',*,*,#822,.T.);
#822 = EDGE_CURVE('',#770,#605,#823,.T.);
#823 = LINE('',#824,#825);
#824 = CARTESIAN_POINT('',(0.427242340154,-0.4064,-3.105912956504));
#825 = VECTOR('',#826,1.);
#826 = DIRECTION('',(-1.288509389443E-16,-1.,2.462312355983E-16));
#827 = ORIENTED_EDGE('',*,*,#604,.F.);
#828 = ORIENTED_EDGE('',*,*,#829,.T.);
#829 = EDGE_CURVE('',#597,#778,#830,.T.);
#830 = LINE('',#831,#832);
#831 = CARTESIAN_POINT('',(0.727765243542,-0.4064,-1.504918638654));
#832 = VECTOR('',#833,1.);
#833 = DIRECTION('',(1.364769543027E-16,1.,-2.056046906032E-16));
#834 = PLANE('',#835);
#835 = AXIS2_PLACEMENT_3D('',#836,#837,#838);
#836 = CARTESIAN_POINT('',(0.727765243542,-0.4064,-1.504918638654));
#837 = DIRECTION('',(-0.982834752962,1.720659064415E-16,0.18448807108));
#838 = DIRECTION('',(-0.18448807108,-2.182331544279E-16,-0.982834752962)
  );
#839 = ADVANCED_FACE('',(#840),#851,.F.);
#840 = FACE_BOUND('',#841,.T.);
#841 = EDGE_LOOP('',(#842,#843,#844,#850));
#842 = ORIENTED_EDGE('',*,*,#807,.F.);
#843 = ORIENTED_EDGE('',*,*,#753,.F.);
#844 = ORIENTED_EDGE('',*,*,#845,.F.);
#845 = EDGE_CURVE('',#148,#238,#846,.T.);
#846 = LINE('',#847,#848);
#847 = CARTESIAN_POINT('',(0.457180308443,0.4064,-4.251837786455E-06));
#848 = VECTOR('',#849,1.);
#849 = DIRECTION('',(0.,1.,-2.22044604925E-16));
#850 = ORIENTED_EDGE('',*,*,#579,.T.);
#851 = PLANE('',#852);
#852 = AXIS2_PLACEMENT_3D('',#853,#854,#855);
#853 = CARTESIAN_POINT('',(0.457180308443,0.4064,-4.251837786455E-06));
#854 = DIRECTION('',(-0.910909107446,-9.161717485845E-17,-0.412607074553
    ));
#855 = DIRECTION('',(0.412607074553,-2.022624528855E-16,-0.910909107446)
  );
#856 = ADVANCED_FACE('',(#857),#868,.F.);
#857 = FACE_BOUND('',#858,.T.);
#858 = EDGE_LOOP('',(#859,#860,#861,#867));
#859 = ORIENTED_EDGE('',*,*,#829,.F.);
#860 = ORIENTED_EDGE('',*,*,#596,.F.);
#861 = ORIENTED_EDGE('',*,*,#862,.F.);
#862 = EDGE_CURVE('',#745,#589,#863,.T.);
#863 = LINE('',#864,#865);
#864 = CARTESIAN_POINT('',(8.272026756507E-02,-0.4064,
    -8.085836541223E-02));
#865 = VECTOR('',#866,1.);
#866 = DIRECTION('',(-1.31101325585E-16,-1.,1.937369610874E-16));
#867 = ORIENTED_EDGE('',*,*,#785,.T.);
#868 = PLANE('',#869);
#869 = AXIS2_PLACEMENT_3D('',#870,#871,#872);
#870 = CARTESIAN_POINT('',(8.272026756507E-02,-0.4064,
    -8.085836541223E-02));
#871 = DIRECTION('',(0.910909107446,-3.948415072659E-17,0.412607074553)
  );
#872 = DIRECTION('',(-0.412607074553,2.022624528855E-16,0.910909107446)
  );
#873 = ADVANCED_FACE('',(#874),#887,.T.);
#874 = FACE_BOUND('',#875,.T.);
#875 = EDGE_LOOP('',(#876,#877,#878,#879,#880,#881));
#876 = ORIENTED_EDGE('',*,*,#276,.T.);
#877 = ORIENTED_EDGE('',*,*,#744,.T.);
#878 = ORIENTED_EDGE('',*,*,#862,.T.);
#879 = ORIENTED_EDGE('',*,*,#588,.F.);
#880 = ORIENTED_EDGE('',*,*,#186,.F.);
#881 = ORIENTED_EDGE('',*,*,#882,.T.);
#882 = EDGE_CURVE('',#187,#277,#883,.T.);
#883 = LINE('',#884,#885);
#884 = CARTESIAN_POINT('',(8.272026756507E-02,-0.4064,2.831704836742));
#885 = VECTOR('',#886,1.);
#886 = DIRECTION('',(1.31101325585E-16,1.,-2.22044604925E-16));
#887 = PLANE('',#888);
#888 = AXIS2_PLACEMENT_3D('',#889,#890,#891);
#889 = CARTESIAN_POINT('',(8.272026756507E-02,-0.4064,2.831704836742));
#890 = DIRECTION('',(-1.,1.31101325585E-16,-2.911034204468E-32));
#891 = DIRECTION('',(-1.31101325585E-16,-1.,2.22044604925E-16));
#892 = ADVANCED_FACE('',(#893),#904,.T.);
#893 = FACE_BOUND('',#894,.T.);
#894 = EDGE_LOOP('',(#895,#896,#897,#898));
#895 = ORIENTED_EDGE('',*,*,#145,.T.);
#896 = ORIENTED_EDGE('',*,*,#845,.T.);
#897 = ORIENTED_EDGE('',*,*,#235,.F.);
#898 = ORIENTED_EDGE('',*,*,#899,.T.);
#899 = EDGE_CURVE('',#236,#146,#900,.T.);
#900 = LINE('',#901,#902);
#901 = CARTESIAN_POINT('',(0.457180308443,0.4064,2.831704836742));
#902 = VECTOR('',#903,1.);
#903 = DIRECTION('',(0.,-1.,2.22044604925E-16));
#904 = PLANE('',#905);
#905 = AXIS2_PLACEMENT_3D('',#906,#907,#908);
#906 = CARTESIAN_POINT('',(0.457180308443,0.4064,2.831704836742));
#907 = DIRECTION('',(1.,0.,0.));
#908 = DIRECTION('',(0.,1.,-2.22044604925E-16));
#909 = ADVANCED_FACE('',(#910),#916,.F.);
#910 = FACE_BOUND('',#911,.F.);
#911 = EDGE_LOOP('',(#912,#913,#914,#915));
#912 = ORIENTED_EDGE('',*,*,#899,.T.);
#913 = ORIENTED_EDGE('',*,*,#155,.F.);
#914 = ORIENTED_EDGE('',*,*,#447,.F.);
#915 = ORIENTED_EDGE('',*,*,#261,.T.);
#916 = CYLINDRICAL_SURFACE('',#917,0.381019691557);
#917 = AXIS2_PLACEMENT_3D('',#918,#919,#920);
#918 = CARTESIAN_POINT('',(0.8382,6.287647817388E-16,2.831704836742));
#919 = DIRECTION('',(0.,-1.,2.22044604925E-16));
#920 = DIRECTION('',(1.,0.,0.));
#921 = ADVANCED_FACE('',(#922),#951,.T.);
#922 = FACE_BOUND('',#923,.T.);
#923 = EDGE_LOOP('',(#924,#934,#941,#942,#943,#944));
#924 = ORIENTED_EDGE('',*,*,#925,.T.);
#925 = EDGE_CURVE('',#926,#928,#930,.T.);
#926 = VERTEX_POINT('',#927);
#927 = CARTESIAN_POINT('',(0.411957553133,-0.4064,3.455457193539));
#928 = VERTEX_POINT('',#929);
#929 = CARTESIAN_POINT('',(0.411957553133,0.4064,3.455457193539));
#930 = LINE('',#931,#932);
#931 = CARTESIAN_POINT('',(0.411957553133,-0.4064,3.455457193539));
#932 = VECTOR('',#933,1.);
#933 = DIRECTION('',(7.396750356854E-17,1.,-3.30286768549E-16));
#934 = ORIENTED_EDGE('',*,*,#935,.T.);
#935 = EDGE_CURVE('',#928,#100,#936,.T.);
#936 = CIRCLE('',#937,0.755479732435);
#937 = AXIS2_PLACEMENT_3D('',#938,#939,#940);
#938 = CARTESIAN_POINT('',(0.8382,0.4064,2.831704836742));
#939 = DIRECTION('',(0.,-1.,2.22044604925E-16));
#940 = DIRECTION('',(1.,0.,0.));
#941 = ORIENTED_EDGE('',*,*,#286,.T.);
#942 = ORIENTED_EDGE('',*,*,#882,.F.);
#943 = ORIENTED_EDGE('',*,*,#220,.F.);
#944 = ORIENTED_EDGE('',*,*,#945,.F.);
#945 = EDGE_CURVE('',#926,#124,#946,.T.);
#946 = CIRCLE('',#947,0.755479732435);
#947 = AXIS2_PLACEMENT_3D('',#948,#949,#950);
#948 = CARTESIAN_POINT('',(0.8382,-0.4064,2.831704836742));
#949 = DIRECTION('',(0.,-1.,2.22044604925E-16));
#950 = DIRECTION('',(1.,0.,0.));
#951 = CYLINDRICAL_SURFACE('',#952,0.755479732435);
#952 = AXIS2_PLACEMENT_3D('',#953,#954,#955);
#953 = CARTESIAN_POINT('',(0.8382,6.287647817388E-16,2.831704836742));
#954 = DIRECTION('',(0.,-1.,2.22044604925E-16));
#955 = DIRECTION('',(1.,0.,0.));
#956 = ADVANCED_FACE('',(#957),#984,.T.);
#957 = FACE_BOUND('',#958,.T.);
#958 = EDGE_LOOP('',(#959,#969,#976,#977));
#959 = ORIENTED_EDGE('',*,*,#960,.T.);
#960 = EDGE_CURVE('',#961,#963,#965,.T.);
#961 = VERTEX_POINT('',#962);
#962 = CARTESIAN_POINT('',(1.269980308443,0.4064,4.371584849813));
#963 = VERTEX_POINT('',#964);
#964 = CARTESIAN_POINT('',(1.269980308443,-0.4064,4.371584849813));
#965 = LINE('',#966,#967);
#966 = CARTESIAN_POINT('',(1.269980308443,0.4064,4.371584849813));
#967 = VECTOR('',#968,1.);
#968 = DIRECTION('',(0.,-1.,2.22044604925E-16));
#969 = ORIENTED_EDGE('',*,*,#970,.T.);
#970 = EDGE_CURVE('',#963,#516,#971,.T.);
#971 = CIRCLE('',#972,1.484060460175);
#972 = AXIS2_PLACEMENT_3D('',#973,#974,#975);
#973 = CARTESIAN_POINT('',(-0.214080151731,-0.4064,4.371584849813));
#974 = DIRECTION('',(0.,1.,-2.22044604925E-16));
#975 = DIRECTION('',(-1.,0.,0.));
#976 = ORIENTED_EDGE('',*,*,#513,.F.);
#977 = ORIENTED_EDGE('',*,*,#978,.F.);
#978 = EDGE_CURVE('',#961,#514,#979,.T.);
#979 = CIRCLE('',#980,1.484060460175);
#980 = AXIS2_PLACEMENT_3D('',#981,#982,#983);
#981 = CARTESIAN_POINT('',(-0.214080151731,0.4064,4.371584849813));
#982 = DIRECTION('',(0.,1.,-2.22044604925E-16));
#983 = DIRECTION('',(-1.,0.,0.));
#984 = CYLINDRICAL_SURFACE('',#985,1.484060460175);
#985 = AXIS2_PLACEMENT_3D('',#986,#987,#988);
#986 = CARTESIAN_POINT('',(-0.214080151731,9.70686830873E-16,
    4.371584849813));
#987 = DIRECTION('',(0.,1.,-2.22044604925E-16));
#988 = DIRECTION('',(-1.,0.,0.));
#989 = ADVANCED_FACE('',(#990),#1017,.F.);
#990 = FACE_BOUND('',#991,.F.);
#991 = EDGE_LOOP('',(#992,#1001,#1002,#1011));
#992 = ORIENTED_EDGE('',*,*,#993,.T.);
#993 = EDGE_CURVE('',#994,#926,#996,.T.);
#994 = VERTEX_POINT('',#995);
#995 = CARTESIAN_POINT('',(0.895520267565,-0.4064,4.371584849813));
#996 = CIRCLE('',#997,1.109600419296);
#997 = AXIS2_PLACEMENT_3D('',#998,#999,#1000);
#998 = CARTESIAN_POINT('',(-0.214080151731,-0.4064,4.371584849813));
#999 = DIRECTION('',(0.,1.,-2.22044604925E-16));
#1000 = DIRECTION('',(-1.,0.,0.));
#1001 = ORIENTED_EDGE('',*,*,#925,.T.);
#1002 = ORIENTED_EDGE('',*,*,#1003,.F.);
#1003 = EDGE_CURVE('',#1004,#928,#1006,.T.);
#1004 = VERTEX_POINT('',#1005);
#1005 = CARTESIAN_POINT('',(0.895520267565,0.4064,4.371584849813));
#1006 = CIRCLE('',#1007,1.109600419296);
#1007 = AXIS2_PLACEMENT_3D('',#1008,#1009,#1010);
#1008 = CARTESIAN_POINT('',(-0.214080151731,0.4064,4.371584849813));
#1009 = DIRECTION('',(0.,1.,-2.22044604925E-16));
#1010 = DIRECTION('',(-1.,0.,0.));
#1011 = ORIENTED_EDGE('',*,*,#1012,.F.);
#1012 = EDGE_CURVE('',#994,#1004,#1013,.T.);
#1013 = LINE('',#1014,#1015);
#1014 = CARTESIAN_POINT('',(0.895520267565,-0.4064,4.371584849813));
#1015 = VECTOR('',#1016,1.);
#1016 = DIRECTION('',(1.31101325585E-16,1.,-2.22044604925E-16));
#1017 = CYLINDRICAL_SURFACE('',#1018,1.109600419296);
#1018 = AXIS2_PLACEMENT_3D('',#1019,#1020,#1021);
#1019 = CARTESIAN_POINT('',(-0.214080151731,9.70686830873E-16,
    4.371584849813));
#1020 = DIRECTION('',(0.,1.,-2.22044604925E-16));
#1021 = DIRECTION('',(-1.,0.,0.));
#1022 = ADVANCED_FACE('',(#1023),#1048,.T.);
#1023 = FACE_BOUND('',#1024,.T.);
#1024 = EDGE_LOOP('',(#1025,#1035,#1041,#1042));
#1025 = ORIENTED_EDGE('',*,*,#1026,.T.);
#1026 = EDGE_CURVE('',#1027,#1029,#1031,.T.);
#1027 = VERTEX_POINT('',#1028);
#1028 = CARTESIAN_POINT('',(1.269980308443,0.4064,6.858));
#1029 = VERTEX_POINT('',#1030);
#1030 = CARTESIAN_POINT('',(1.269980308443,-0.4064,6.858));
#1031 = LINE('',#1032,#1033);
#1032 = CARTESIAN_POINT('',(1.269980308443,0.4064,6.858));
#1033 = VECTOR('',#1034,1.);
#1034 = DIRECTION('',(0.,-1.,2.22044604925E-16));
#1035 = ORIENTED_EDGE('',*,*,#1036,.T.);
#1036 = EDGE_CURVE('',#1029,#963,#1037,.T.);
#1037 = LINE('',#1038,#1039);
#1038 = CARTESIAN_POINT('',(1.269980308443,-0.4064,6.858));
#1039 = VECTOR('',#1040,1.);
#1040 = DIRECTION('',(1.744201361392E-16,-2.22044604925E-16,-1.));
#1041 = ORIENTED_EDGE('',*,*,#960,.F.);
#1042 = ORIENTED_EDGE('',*,*,#1043,.F.);
#1043 = EDGE_CURVE('',#1027,#961,#1044,.T.);
#1044 = LINE('',#1045,#1046);
#1045 = CARTESIAN_POINT('',(1.269980308443,0.4064,6.858));
#1046 = VECTOR('',#1047,1.);
#1047 = DIRECTION('',(1.744201361392E-16,-2.22044604925E-16,-1.));
#1048 = PLANE('',#1049);
#1049 = AXIS2_PLACEMENT_3D('',#1050,#1051,#1052);
#1050 = CARTESIAN_POINT('',(1.269980308443,0.4064,6.858));
#1051 = DIRECTION('',(1.,3.872905022E-32,1.744201361392E-16));
#1052 = DIRECTION('',(-1.744201361392E-16,2.22044604925E-16,1.));
#1053 = ADVANCED_FACE('',(#1054),#1079,.T.);
#1054 = FACE_BOUND('',#1055,.T.);
#1055 = EDGE_LOOP('',(#1056,#1066,#1072,#1073));
#1056 = ORIENTED_EDGE('',*,*,#1057,.T.);
#1057 = EDGE_CURVE('',#1058,#1060,#1062,.T.);
#1058 = VERTEX_POINT('',#1059);
#1059 = CARTESIAN_POINT('',(0.895520267565,-0.4064,6.858));
#1060 = VERTEX_POINT('',#1061);
#1061 = CARTESIAN_POINT('',(0.895520267565,0.4064,6.858));
#1062 = LINE('',#1063,#1064);
#1063 = CARTESIAN_POINT('',(0.895520267565,-0.4064,6.858));
#1064 = VECTOR('',#1065,1.);
#1065 = DIRECTION('',(1.31101325585E-16,1.,-2.22044604925E-16));
#1066 = ORIENTED_EDGE('',*,*,#1067,.T.);
#1067 = EDGE_CURVE('',#1060,#1004,#1068,.T.);
#1068 = LINE('',#1069,#1070);
#1069 = CARTESIAN_POINT('',(0.895520267565,0.4064,6.858));
#1070 = VECTOR('',#1071,1.);
#1071 = DIRECTION('',(1.744201361392E-16,-2.22044604925E-16,-1.));
#1072 = ORIENTED_EDGE('',*,*,#1012,.F.);
#1073 = ORIENTED_EDGE('',*,*,#1074,.F.);
#1074 = EDGE_CURVE('',#1058,#994,#1075,.T.);
#1075 = LINE('',#1076,#1077);
#1076 = CARTESIAN_POINT('',(0.895520267565,-0.4064,6.858));
#1077 = VECTOR('',#1078,1.);
#1078 = DIRECTION('',(1.744201361392E-16,-2.22044604925E-16,-1.));
#1079 = PLANE('',#1080);
#1080 = AXIS2_PLACEMENT_3D('',#1081,#1082,#1083);
#1081 = CARTESIAN_POINT('',(0.895520267565,-0.4064,6.858));
#1082 = DIRECTION('',(-1.,1.31101325585E-16,-1.744201361392E-16));
#1083 = DIRECTION('',(1.744201361392E-16,-2.22044604925E-16,-1.));
#1084 = ADVANCED_FACE('',(#1085),#1112,.T.);
#1085 = FACE_BOUND('',#1086,.T.);
#1086 = EDGE_LOOP('',(#1087,#1097,#1104,#1105));
#1087 = ORIENTED_EDGE('',*,*,#1088,.T.);
#1088 = EDGE_CURVE('',#1089,#1091,#1093,.T.);
#1089 = VERTEX_POINT('',#1090);
#1090 = CARTESIAN_POINT('',(-1.269980308443,0.4064,6.858));
#1091 = VERTEX_POINT('',#1092);
#1092 = CARTESIAN_POINT('',(-1.269980308443,-0.4064,6.858));
#1093 = LINE('',#1094,#1095);
#1094 = CARTESIAN_POINT('',(-1.269980308443,0.4064,6.858));
#1095 = VECTOR('',#1096,1.);
#1096 = DIRECTION('',(0.,-1.,2.22044604925E-16));
#1097 = ORIENTED_EDGE('',*,*,#1098,.T.);
#1098 = EDGE_CURVE('',#1091,#1029,#1099,.T.);
#1099 = CIRCLE('',#1100,1.269980308443);
#1100 = AXIS2_PLACEMENT_3D('',#1101,#1102,#1103);
#1101 = CARTESIAN_POINT('',(1.251362987255E-16,-0.4064,6.858));
#1102 = DIRECTION('',(0.,1.,-2.22044604925E-16));
#1103 = DIRECTION('',(-1.,0.,0.));
#1104 = ORIENTED_EDGE('',*,*,#1026,.F.);
#1105 = ORIENTED_EDGE('',*,*,#1106,.F.);
#1106 = EDGE_CURVE('',#1089,#1027,#1107,.T.);
#1107 = CIRCLE('',#1108,1.269980308443);
#1108 = AXIS2_PLACEMENT_3D('',#1109,#1110,#1111);
#1109 = CARTESIAN_POINT('',(1.251362987255E-16,0.4064,6.858));
#1110 = DIRECTION('',(0.,1.,-2.22044604925E-16));
#1111 = DIRECTION('',(-1.,0.,0.));
#1112 = CYLINDRICAL_SURFACE('',#1113,1.269980308443);
#1113 = AXIS2_PLACEMENT_3D('',#1114,#1115,#1116);
#1114 = CARTESIAN_POINT('',(1.251362987255E-16,1.522781900576E-15,6.858)
  );
#1115 = DIRECTION('',(0.,1.,-2.22044604925E-16));
#1116 = DIRECTION('',(-1.,0.,0.));
#1117 = ADVANCED_FACE('',(#1118),#1145,.F.);
#1118 = FACE_BOUND('',#1119,.F.);
#1119 = EDGE_LOOP('',(#1120,#1129,#1130,#1139));
#1120 = ORIENTED_EDGE('',*,*,#1121,.T.);
#1121 = EDGE_CURVE('',#1122,#1058,#1124,.T.);
#1122 = VERTEX_POINT('',#1123);
#1123 = CARTESIAN_POINT('',(-0.895520267565,-0.4064,6.858));
#1124 = CIRCLE('',#1125,0.895520267565);
#1125 = AXIS2_PLACEMENT_3D('',#1126,#1127,#1128);
#1126 = CARTESIAN_POINT('',(1.251362987255E-16,-0.4064,6.858));
#1127 = DIRECTION('',(0.,1.,-2.22044604925E-16));
#1128 = DIRECTION('',(-1.,0.,0.));
#1129 = ORIENTED_EDGE('',*,*,#1057,.T.);
#1130 = ORIENTED_EDGE('',*,*,#1131,.F.);
#1131 = EDGE_CURVE('',#1132,#1060,#1134,.T.);
#1132 = VERTEX_POINT('',#1133);
#1133 = CARTESIAN_POINT('',(-0.895520267565,0.4064,6.858));
#1134 = CIRCLE('',#1135,0.895520267565);
#1135 = AXIS2_PLACEMENT_3D('',#1136,#1137,#1138);
#1136 = CARTESIAN_POINT('',(1.251362987255E-16,0.4064,6.858));
#1137 = DIRECTION('',(0.,1.,-2.22044604925E-16));
#1138 = DIRECTION('',(-1.,0.,0.));
#1139 = ORIENTED_EDGE('',*,*,#1140,.F.);
#1140 = EDGE_CURVE('',#1122,#1132,#1141,.T.);
#1141 = LINE('',#1142,#1143);
#1142 = CARTESIAN_POINT('',(-0.895520267565,-0.4064,6.858));
#1143 = VECTOR('',#1144,1.);
#1144 = DIRECTION('',(-1.31101325585E-16,1.,-2.22044604925E-16));
#1145 = CYLINDRICAL_SURFACE('',#1146,0.895520267565);
#1146 = AXIS2_PLACEMENT_3D('',#1147,#1148,#1149);
#1147 = CARTESIAN_POINT('',(1.251362987255E-16,1.522781900576E-15,6.858)
  );
#1148 = DIRECTION('',(0.,1.,-2.22044604925E-16));
#1149 = DIRECTION('',(-1.,0.,0.));
#1150 = ADVANCED_FACE('',(#1151),#1176,.T.);
#1151 = FACE_BOUND('',#1152,.T.);
#1152 = EDGE_LOOP('',(#1153,#1163,#1169,#1170));
#1153 = ORIENTED_EDGE('',*,*,#1154,.T.);
#1154 = EDGE_CURVE('',#1155,#1157,#1159,.T.);
#1155 = VERTEX_POINT('',#1156);
#1156 = CARTESIAN_POINT('',(-1.269980308443,0.4064,4.371584849813));
#1157 = VERTEX_POINT('',#1158);
#1158 = CARTESIAN_POINT('',(-1.269980308443,-0.4064,4.371584849813));
#1159 = LINE('',#1160,#1161);
#1160 = CARTESIAN_POINT('',(-1.269980308443,0.4064,4.371584849813));
#1161 = VECTOR('',#1162,1.);
#1162 = DIRECTION('',(0.,-1.,2.22044604925E-16));
#1163 = ORIENTED_EDGE('',*,*,#1164,.T.);
#1164 = EDGE_CURVE('',#1157,#1091,#1165,.T.);
#1165 = LINE('',#1166,#1167);
#1166 = CARTESIAN_POINT('',(-1.269980308443,-0.4064,4.371584849813));
#1167 = VECTOR('',#1168,1.);
#1168 = DIRECTION('',(3.488402722784E-16,2.22044604925E-16,1.));
#1169 = ORIENTED_EDGE('',*,*,#1088,.F.);
#1170 = ORIENTED_EDGE('',*,*,#1171,.F.);
#1171 = EDGE_CURVE('',#1155,#1089,#1172,.T.);
#1172 = LINE('',#1173,#1174);
#1173 = CARTESIAN_POINT('',(-1.269980308443,0.4064,4.371584849813));
#1174 = VECTOR('',#1175,1.);
#1175 = DIRECTION('',(3.488402722784E-16,2.22044604925E-16,1.));
#1176 = PLANE('',#1177);
#1177 = AXIS2_PLACEMENT_3D('',#1178,#1179,#1180);
#1178 = CARTESIAN_POINT('',(-1.269980308443,0.4064,4.371584849813));
#1179 = DIRECTION('',(-1.,7.745810044E-32,3.488402722784E-16));
#1180 = DIRECTION('',(-3.488402722784E-16,-2.22044604925E-16,-1.));
#1181 = ADVANCED_FACE('',(#1182),#1207,.T.);
#1182 = FACE_BOUND('',#1183,.T.);
#1183 = EDGE_LOOP('',(#1184,#1194,#1200,#1201));
#1184 = ORIENTED_EDGE('',*,*,#1185,.T.);
#1185 = EDGE_CURVE('',#1186,#1188,#1190,.T.);
#1186 = VERTEX_POINT('',#1187);
#1187 = CARTESIAN_POINT('',(-0.895520267565,-0.4064,4.371584849813));
#1188 = VERTEX_POINT('',#1189);
#1189 = CARTESIAN_POINT('',(-0.895520267565,0.4064,4.371584849813));
#1190 = LINE('',#1191,#1192);
#1191 = CARTESIAN_POINT('',(-0.895520267565,-0.4064,4.371584849813));
#1192 = VECTOR('',#1193,1.);
#1193 = DIRECTION('',(-1.31101325585E-16,1.,-2.22044604925E-16));
#1194 = ORIENTED_EDGE('',*,*,#1195,.T.);
#1195 = EDGE_CURVE('',#1188,#1132,#1196,.T.);
#1196 = LINE('',#1197,#1198);
#1197 = CARTESIAN_POINT('',(-0.895520267565,0.4064,4.371584849813));
#1198 = VECTOR('',#1199,1.);
#1199 = DIRECTION('',(3.488402722784E-16,2.22044604925E-16,1.));
#1200 = ORIENTED_EDGE('',*,*,#1140,.F.);
#1201 = ORIENTED_EDGE('',*,*,#1202,.F.);
#1202 = EDGE_CURVE('',#1186,#1122,#1203,.T.);
#1203 = LINE('',#1204,#1205);
#1204 = CARTESIAN_POINT('',(-0.895520267565,-0.4064,4.371584849813));
#1205 = VECTOR('',#1206,1.);
#1206 = DIRECTION('',(3.488402722784E-16,2.22044604925E-16,1.));
#1207 = PLANE('',#1208);
#1208 = AXIS2_PLACEMENT_3D('',#1209,#1210,#1211);
#1209 = CARTESIAN_POINT('',(-0.895520267565,-0.4064,4.371584849813));
#1210 = DIRECTION('',(1.,1.31101325585E-16,-3.488402722784E-16));
#1211 = DIRECTION('',(3.488402722784E-16,2.22044604925E-16,1.));
#1212 = ADVANCED_FACE('',(#1213),#1231,.T.);
#1213 = FACE_BOUND('',#1214,.T.);
#1214 = EDGE_LOOP('',(#1215,#1216,#1223,#1224));
#1215 = ORIENTED_EDGE('',*,*,#546,.T.);
#1216 = ORIENTED_EDGE('',*,*,#1217,.T.);
#1217 = EDGE_CURVE('',#549,#1157,#1218,.T.);
#1218 = CIRCLE('',#1219,1.484060460175);
#1219 = AXIS2_PLACEMENT_3D('',#1220,#1221,#1222);
#1220 = CARTESIAN_POINT('',(0.214080151731,-0.4064,4.371584849813));
#1221 = DIRECTION('',(0.,1.,-2.22044604925E-16));
#1222 = DIRECTION('',(-1.,0.,0.));
#1223 = ORIENTED_EDGE('',*,*,#1154,.F.);
#1224 = ORIENTED_EDGE('',*,*,#1225,.F.);
#1225 = EDGE_CURVE('',#547,#1155,#1226,.T.);
#1226 = CIRCLE('',#1227,1.484060460175);
#1227 = AXIS2_PLACEMENT_3D('',#1228,#1229,#1230);
#1228 = CARTESIAN_POINT('',(0.214080151731,0.4064,4.371584849813));
#1229 = DIRECTION('',(0.,1.,-2.22044604925E-16));
#1230 = DIRECTION('',(-1.,0.,0.));
#1231 = CYLINDRICAL_SURFACE('',#1232,1.484060460175);
#1232 = AXIS2_PLACEMENT_3D('',#1233,#1234,#1235);
#1233 = CARTESIAN_POINT('',(0.214080151731,9.70686830873E-16,
    4.371584849813));
#1234 = DIRECTION('',(0.,1.,-2.22044604925E-16));
#1235 = DIRECTION('',(-1.,0.,0.));
#1236 = ADVANCED_FACE('',(#1237),#1264,.F.);
#1237 = FACE_BOUND('',#1238,.F.);
#1238 = EDGE_LOOP('',(#1239,#1248,#1249,#1258));
#1239 = ORIENTED_EDGE('',*,*,#1240,.T.);
#1240 = EDGE_CURVE('',#1241,#1186,#1243,.T.);
#1241 = VERTEX_POINT('',#1242);
#1242 = CARTESIAN_POINT('',(-0.411957553133,-0.4064,3.455457193539));
#1243 = CIRCLE('',#1244,1.109600419296);
#1244 = AXIS2_PLACEMENT_3D('',#1245,#1246,#1247);
#1245 = CARTESIAN_POINT('',(0.214080151731,-0.4064,4.371584849813));
#1246 = DIRECTION('',(0.,1.,-2.22044604925E-16));
#1247 = DIRECTION('',(-1.,0.,0.));
#1248 = ORIENTED_EDGE('',*,*,#1185,.T.);
#1249 = ORIENTED_EDGE('',*,*,#1250,.F.);
#1250 = EDGE_CURVE('',#1251,#1188,#1253,.T.);
#1251 = VERTEX_POINT('',#1252);
#1252 = CARTESIAN_POINT('',(-0.411957553133,0.4064,3.455457193539));
#1253 = CIRCLE('',#1254,1.109600419296);
#1254 = AXIS2_PLACEMENT_3D('',#1255,#1256,#1257);
#1255 = CARTESIAN_POINT('',(0.214080151731,0.4064,4.371584849813));
#1256 = DIRECTION('',(0.,1.,-2.22044604925E-16));
#1257 = DIRECTION('',(-1.,0.,0.));
#1258 = ORIENTED_EDGE('',*,*,#1259,.F.);
#1259 = EDGE_CURVE('',#1241,#1251,#1260,.T.);
#1260 = LINE('',#1261,#1262);
#1261 = CARTESIAN_POINT('',(-0.411957553133,-0.4064,3.455457193539));
#1262 = VECTOR('',#1263,1.);
#1263 = DIRECTION('',(-7.396750356854E-17,1.,-3.30286768549E-16));
#1264 = CYLINDRICAL_SURFACE('',#1265,1.109600419296);
#1265 = AXIS2_PLACEMENT_3D('',#1266,#1267,#1268);
#1266 = CARTESIAN_POINT('',(0.214080151731,9.70686830873E-16,
    4.371584849813));
#1267 = DIRECTION('',(0.,1.,-2.22044604925E-16));
#1268 = DIRECTION('',(-1.,0.,0.));
#1269 = ADVANCED_FACE('',(#1270),#1281,.F.);
#1270 = FACE_BOUND('',#1271,.F.);
#1271 = EDGE_LOOP('',(#1272,#1278,#1279,#1280));
#1272 = ORIENTED_EDGE('',*,*,#1273,.F.);
#1273 = EDGE_CURVE('',#465,#416,#1274,.T.);
#1274 = LINE('',#1275,#1276);
#1275 = CARTESIAN_POINT('',(-0.457180308443,0.4064,2.831704836742));
#1276 = VECTOR('',#1277,1.);
#1277 = DIRECTION('',(0.,-1.,2.22044604925E-16));
#1278 = ORIENTED_EDGE('',*,*,#464,.T.);
#1279 = ORIENTED_EDGE('',*,*,#496,.F.);
#1280 = ORIENTED_EDGE('',*,*,#415,.F.);
#1281 = CYLINDRICAL_SURFACE('',#1282,0.381019691557);
#1282 = AXIS2_PLACEMENT_3D('',#1283,#1284,#1285);
#1283 = CARTESIAN_POINT('',(-0.8382,6.287647817388E-16,2.831704836742));
#1284 = DIRECTION('',(0.,-1.,2.22044604925E-16));
#1285 = DIRECTION('',(1.,0.,0.));
#1286 = ADVANCED_FACE('',(#1287),#1312,.T.);
#1287 = FACE_BOUND('',#1288,.T.);
#1288 = EDGE_LOOP('',(#1289,#1295,#1296,#1303,#1304,#1311));
#1289 = ORIENTED_EDGE('',*,*,#1290,.T.);
#1290 = EDGE_CURVE('',#205,#295,#1291,.T.);
#1291 = LINE('',#1292,#1293);
#1292 = CARTESIAN_POINT('',(-8.272026756507E-02,-0.4064,2.831704836742)
  );
#1293 = VECTOR('',#1294,1.);
#1294 = DIRECTION('',(-1.31101325585E-16,1.,-2.22044604925E-16));
#1295 = ORIENTED_EDGE('',*,*,#294,.T.);
#1296 = ORIENTED_EDGE('',*,*,#1297,.T.);
#1297 = EDGE_CURVE('',#92,#1251,#1298,.T.);
#1298 = CIRCLE('',#1299,0.755479732435);
#1299 = AXIS2_PLACEMENT_3D('',#1300,#1301,#1302);
#1300 = CARTESIAN_POINT('',(-0.8382,0.4064,2.831704836742));
#1301 = DIRECTION('',(0.,-1.,2.22044604925E-16));
#1302 = DIRECTION('',(1.,0.,0.));
#1303 = ORIENTED_EDGE('',*,*,#1259,.F.);
#1304 = ORIENTED_EDGE('',*,*,#1305,.F.);
#1305 = EDGE_CURVE('',#76,#1241,#1306,.T.);
#1306 = CIRCLE('',#1307,0.755479732435);
#1307 = AXIS2_PLACEMENT_3D('',#1308,#1309,#1310);
#1308 = CARTESIAN_POINT('',(-0.8382,-0.4064,2.831704836742));
#1309 = DIRECTION('',(0.,-1.,2.22044604925E-16));
#1310 = DIRECTION('',(1.,0.,0.));
#1311 = ORIENTED_EDGE('',*,*,#212,.F.);
#1312 = CYLINDRICAL_SURFACE('',#1313,0.755479732435);
#1313 = AXIS2_PLACEMENT_3D('',#1314,#1315,#1316);
#1314 = CARTESIAN_POINT('',(-0.8382,6.287647817388E-16,2.831704836742));
#1315 = DIRECTION('',(0.,-1.,2.22044604925E-16));
#1316 = DIRECTION('',(1.,0.,0.));
#1317 = ADVANCED_FACE('',(#1318),#1331,.F.);
#1318 = FACE_BOUND('',#1319,.T.);
#1319 = EDGE_LOOP('',(#1320,#1321,#1322,#1323,#1329,#1330));
#1320 = ORIENTED_EDGE('',*,*,#1290,.F.);
#1321 = ORIENTED_EDGE('',*,*,#204,.F.);
#1322 = ORIENTED_EDGE('',*,*,#634,.F.);
#1323 = ORIENTED_EDGE('',*,*,#1324,.F.);
#1324 = EDGE_CURVE('',#699,#635,#1325,.T.);
#1325 = LINE('',#1326,#1327);
#1326 = CARTESIAN_POINT('',(-8.272026756507E-02,-0.4064,
    -8.085836541224E-02));
#1327 = VECTOR('',#1328,1.);
#1328 = DIRECTION('',(1.31101325585E-16,-1.,1.937369610874E-16));
#1329 = ORIENTED_EDGE('',*,*,#698,.T.);
#1330 = ORIENTED_EDGE('',*,*,#303,.T.);
#1331 = PLANE('',#1332);
#1332 = AXIS2_PLACEMENT_3D('',#1333,#1334,#1335);
#1333 = CARTESIAN_POINT('',(-8.272026756507E-02,-0.4064,
    -8.085836541224E-02));
#1334 = DIRECTION('',(-1.,-1.31101325585E-16,2.911034204468E-32));
#1335 = DIRECTION('',(1.31101325585E-16,-1.,2.22044604925E-16));
#1336 = ADVANCED_FACE('',(#1337),#1348,.F.);
#1337 = FACE_BOUND('',#1338,.T.);
#1338 = EDGE_LOOP('',(#1339,#1340,#1341,#1347));
#1339 = ORIENTED_EDGE('',*,*,#1273,.F.);
#1340 = ORIENTED_EDGE('',*,*,#482,.F.);
#1341 = ORIENTED_EDGE('',*,*,#1342,.F.);
#1342 = EDGE_CURVE('',#338,#374,#1343,.T.);
#1343 = LINE('',#1344,#1345);
#1344 = CARTESIAN_POINT('',(-0.457180308443,0.4064,-4.251837786455E-06)
  );
#1345 = VECTOR('',#1346,1.);
#1346 = DIRECTION('',(0.,1.,-2.22044604925E-16));
#1347 = ORIENTED_EDGE('',*,*,#426,.T.);
#1348 = PLANE('',#1349);
#1349 = AXIS2_PLACEMENT_3D('',#1350,#1351,#1352);
#1350 = CARTESIAN_POINT('',(-0.457180308443,0.4064,-4.251837786455E-06)
  );
#1351 = DIRECTION('',(1.,0.,0.));
#1352 = DIRECTION('',(0.,1.,-2.22044604925E-16));
#1353 = ADVANCED_FACE('',(#1354),#1365,.T.);
#1354 = FACE_BOUND('',#1355,.T.);
#1355 = EDGE_LOOP('',(#1356,#1357,#1358,#1359));
#1356 = ORIENTED_EDGE('',*,*,#706,.T.);
#1357 = ORIENTED_EDGE('',*,*,#1324,.T.);
#1358 = ORIENTED_EDGE('',*,*,#675,.F.);
#1359 = ORIENTED_EDGE('',*,*,#1360,.T.);
#1360 = EDGE_CURVE('',#668,#707,#1361,.T.);
#1361 = LINE('',#1362,#1363);
#1362 = CARTESIAN_POINT('',(-0.727765243542,-0.4064,-1.504918638654));
#1363 = VECTOR('',#1364,1.);
#1364 = DIRECTION('',(-1.364769543027E-16,1.,-2.056046906032E-16));
#1365 = PLANE('',#1366);
#1366 = AXIS2_PLACEMENT_3D('',#1367,#1368,#1369);
#1367 = CARTESIAN_POINT('',(-0.727765243542,-0.4064,-1.504918638654));
#1368 = DIRECTION('',(0.910909107446,3.948415072659E-17,-0.412607074553)
  );
#1369 = DIRECTION('',(0.412607074553,2.022624528855E-16,0.910909107446)
  );
#1370 = ADVANCED_FACE('',(#1371),#1382,.T.);
#1371 = FACE_BOUND('',#1372,.T.);
#1372 = EDGE_LOOP('',(#1373,#1374,#1375,#1376));
#1373 = ORIENTED_EDGE('',*,*,#643,.T.);
#1374 = ORIENTED_EDGE('',*,*,#1342,.T.);
#1375 = ORIENTED_EDGE('',*,*,#689,.F.);
#1376 = ORIENTED_EDGE('',*,*,#1377,.T.);
#1377 = EDGE_CURVE('',#690,#644,#1378,.T.);
#1378 = LINE('',#1379,#1380);
#1379 = CARTESIAN_POINT('',(-1.117579501018,0.4064,-1.457961897663));
#1380 = VECTOR('',#1381,1.);
#1381 = DIRECTION('',(0.,-1.,2.22044604925E-16));
#1382 = PLANE('',#1383);
#1383 = AXIS2_PLACEMENT_3D('',#1384,#1385,#1386);
#1384 = CARTESIAN_POINT('',(-1.117579501018,0.4064,-1.457961897663));
#1385 = DIRECTION('',(-0.910909107446,9.161717485845E-17,0.412607074553)
  );
#1386 = DIRECTION('',(-0.412607074553,-2.022624528855E-16,
    -0.910909107446));
#1387 = ADVANCED_FACE('',(#1388),#1399,.F.);
#1388 = FACE_BOUND('',#1389,.T.);
#1389 = EDGE_LOOP('',(#1390,#1391,#1392,#1398));
#1390 = ORIENTED_EDGE('',*,*,#1360,.F.);
#1391 = ORIENTED_EDGE('',*,*,#667,.T.);
#1392 = ORIENTED_EDGE('',*,*,#1393,.T.);
#1393 = EDGE_CURVE('',#660,#715,#1394,.T.);
#1394 = LINE('',#1395,#1396);
#1395 = CARTESIAN_POINT('',(-0.414274,-0.4064,-3.175));
#1396 = VECTOR('',#1397,1.);
#1397 = DIRECTION('',(-1.333910153156E-16,1.,-2.22044604925E-16));
#1398 = ORIENTED_EDGE('',*,*,#714,.F.);
#1399 = PLANE('',#1400);
#1400 = AXIS2_PLACEMENT_3D('',#1401,#1402,#1403);
#1401 = CARTESIAN_POINT('',(-0.897781101974,-0.4064,-0.59918260248));
#1402 = DIRECTION('',(-0.982834752962,-1.720659064415E-16,-0.18448807108
    ));
#1403 = DIRECTION('',(0.18448807108,-2.182331544279E-16,-0.982834752962)
  );
#1404 = ADVANCED_FACE('',(#1405),#1423,.F.);
#1405 = FACE_BOUND('',#1406,.T.);
#1406 = EDGE_LOOP('',(#1407,#1408,#1409,#1410,#1411,#1412,#1413,#1414,
    #1415,#1416,#1417,#1418,#1419,#1420,#1421,#1422));
#1407 = ORIENTED_EDGE('',*,*,#123,.F.);
#1408 = ORIENTED_EDGE('',*,*,#531,.F.);
#1409 = ORIENTED_EDGE('',*,*,#970,.F.);
#1410 = ORIENTED_EDGE('',*,*,#1036,.F.);
#1411 = ORIENTED_EDGE('',*,*,#1098,.F.);
#1412 = ORIENTED_EDGE('',*,*,#1164,.F.);
#1413 = ORIENTED_EDGE('',*,*,#1217,.F.);
#1414 = ORIENTED_EDGE('',*,*,#556,.F.);
#1415 = ORIENTED_EDGE('',*,*,#73,.T.);
#1416 = ORIENTED_EDGE('',*,*,#1305,.T.);
#1417 = ORIENTED_EDGE('',*,*,#1240,.T.);
#1418 = ORIENTED_EDGE('',*,*,#1202,.T.);
#1419 = ORIENTED_EDGE('',*,*,#1121,.T.);
#1420 = ORIENTED_EDGE('',*,*,#1074,.T.);
#1421 = ORIENTED_EDGE('',*,*,#993,.T.);
#1422 = ORIENTED_EDGE('',*,*,#945,.T.);
#1423 = PLANE('',#1424);
#1424 = AXIS2_PLACEMENT_3D('',#1425,#1426,#1427);
#1425 = CARTESIAN_POINT('',(-1.278781101974,-0.4064,-0.59918260248));
#1426 = DIRECTION('',(-7.114187483501E-16,1.,-3.555851337047E-16));
#1427 = DIRECTION('',(-1.,-7.114187483501E-16,1.579666949137E-31));
#1428 = ADVANCED_FACE('',(#1429),#1440,.F.);
#1429 = FACE_BOUND('',#1430,.T.);
#1430 = EDGE_LOOP('',(#1431,#1432,#1433,#1439));
#1431 = ORIENTED_EDGE('',*,*,#1377,.F.);
#1432 = ORIENTED_EDGE('',*,*,#730,.T.);
#1433 = ORIENTED_EDGE('',*,*,#1434,.T.);
#1434 = EDGE_CURVE('',#723,#652,#1435,.T.);
#1435 = LINE('',#1436,#1437);
#1436 = CARTESIAN_POINT('',(-0.795274,0.4064,-3.175));
#1437 = VECTOR('',#1438,1.);
#1438 = DIRECTION('',(0.,-1.,2.22044604925E-16));
#1439 = ORIENTED_EDGE('',*,*,#651,.F.);
#1440 = PLANE('',#1441);
#1441 = AXIS2_PLACEMENT_3D('',#1442,#1443,#1444);
#1442 = CARTESIAN_POINT('',(-1.278781101974,0.4064,-0.59918260248));
#1443 = DIRECTION('',(0.982834752962,4.096458085642E-17,0.18448807108));
#1444 = DIRECTION('',(-0.18448807108,2.182331544279E-16,0.982834752962)
  );
#1445 = ADVANCED_FACE('',(#1446),#1464,.F.);
#1446 = FACE_BOUND('',#1447,.T.);
#1447 = EDGE_LOOP('',(#1448,#1449,#1450,#1451,#1452,#1453,#1454,#1455,
    #1456,#1457,#1458,#1459,#1460,#1461,#1462,#1463));
#1448 = ORIENTED_EDGE('',*,*,#91,.F.);
#1449 = ORIENTED_EDGE('',*,*,#564,.T.);
#1450 = ORIENTED_EDGE('',*,*,#1225,.T.);
#1451 = ORIENTED_EDGE('',*,*,#1171,.T.);
#1452 = ORIENTED_EDGE('',*,*,#1106,.T.);
#1453 = ORIENTED_EDGE('',*,*,#1043,.T.);
#1454 = ORIENTED_EDGE('',*,*,#978,.T.);
#1455 = ORIENTED_EDGE('',*,*,#523,.T.);
#1456 = ORIENTED_EDGE('',*,*,#107,.T.);
#1457 = ORIENTED_EDGE('',*,*,#935,.F.);
#1458 = ORIENTED_EDGE('',*,*,#1003,.F.);
#1459 = ORIENTED_EDGE('',*,*,#1067,.F.);
#1460 = ORIENTED_EDGE('',*,*,#1131,.F.);
#1461 = ORIENTED_EDGE('',*,*,#1195,.F.);
#1462 = ORIENTED_EDGE('',*,*,#1250,.F.);
#1463 = ORIENTED_EDGE('',*,*,#1297,.F.);
#1464 = PLANE('',#1465);
#1465 = AXIS2_PLACEMENT_3D('',#1466,#1467,#1468);
#1466 = CARTESIAN_POINT('',(-0.897781101974,0.4064,-0.59918260248));
#1467 = DIRECTION('',(7.114187483501E-16,-1.,3.555851337047E-16));
#1468 = DIRECTION('',(1.,7.114187483501E-16,-1.579666949137E-31));
#1469 = ADVANCED_FACE('',(#1470),#1476,.T.);
#1470 = FACE_BOUND('',#1471,.T.);
#1471 = EDGE_LOOP('',(#1472,#1473,#1474,#1475));
#1472 = ORIENTED_EDGE('',*,*,#722,.F.);
#1473 = ORIENTED_EDGE('',*,*,#1393,.F.);
#1474 = ORIENTED_EDGE('',*,*,#659,.F.);
#1475 = ORIENTED_EDGE('',*,*,#1434,.F.);
#1476 = PLANE('',#1477);
#1477 = AXIS2_PLACEMENT_3D('',#1478,#1479,#1480);
#1478 = CARTESIAN_POINT('',(-0.414274,0.4064,-3.175));
#1479 = DIRECTION('',(0.,-2.22044604925E-16,-1.));
#1480 = DIRECTION('',(0.,1.,-2.22044604925E-16));
#1481 = ADVANCED_FACE('',(#1482),#1488,.T.);
#1482 = FACE_BOUND('',#1483,.T.);
#1483 = EDGE_LOOP('',(#1484,#1485,#1486,#1487));
#1484 = ORIENTED_EDGE('',*,*,#612,.F.);
#1485 = ORIENTED_EDGE('',*,*,#822,.F.);
#1486 = ORIENTED_EDGE('',*,*,#769,.F.);
#1487 = ORIENTED_EDGE('',*,*,#800,.F.);
#1488 = PLANE('',#1489);
#1489 = AXIS2_PLACEMENT_3D('',#1490,#1491,#1492);
#1490 = CARTESIAN_POINT('',(0.611258511039,-5.346906887968E-16,
    -3.140454661824));
#1491 = DIRECTION('',(-0.18448807108,-2.182331544279E-16,-0.982834752962
    ));
#1492 = DIRECTION('',(0.982834752962,-4.096458085642E-17,-0.18448807108)
  );
#1493 = ( GEOMETRIC_REPRESENTATION_CONTEXT(3) 
GLOBAL_UNCERTAINTY_ASSIGNED_CONTEXT((#1497)) 
GLOBAL_UNIT_ASSIGNED_CONTEXT((#1494,#1495,#1496)) REPRESENTATION_CONTEXT
('Context #1','3D Context with UNIT and UNCERTAINTY') );
#1494 = ( LENGTH_UNIT() NAMED_UNIT(*) SI_UNIT(.MILLI.,.METRE.) );
#1495 = ( NAMED_UNIT(*) PLANE_ANGLE_UNIT() SI_UNIT($,.RADIAN.) );
#1496 = ( NAMED_UNIT(*) SI_UNIT($,.STERADIAN.) SOLID_ANGLE_UNIT() );
#1497 = UNCERTAINTY_MEASURE_WITH_UNIT(LENGTH_MEASURE(2.E-07),#1494,
  'distance_accuracy_value','confusion accuracy');
#1498 = PRODUCT_RELATED_PRODUCT_CATEGORY('part',$,(#7));
#1499 = MECHANICAL_DESIGN_GEOMETRIC_PRESENTATION_REPRESENTATION('',(
    #1500,#1511,#1519,#1526,#1533,#1540,#1547,#1554,#1561,#1568,#1575,
    #1582,#1589,#1596,#1603,#1610,#1617,#1624,#1631,#1638,#1645,#1652,
    #1659,#1666,#1673,#1680,#1687,#1694,#1701,#1708,#1715,#1722,#1729,
    #1736,#1743,#1750,#1757,#1764,#1771,#1778,#1785,#1792,#1799,#1806,
    #1813),#1493);
#1500 = STYLED_ITEM('color',(#1501),#15);
#1501 = PRESENTATION_STYLE_ASSIGNMENT((#1502,#1508));
#1502 = SURFACE_STYLE_USAGE(.BOTH.,#1503);
#1503 = SURFACE_SIDE_STYLE('',(#1504));
#1504 = SURFACE_STYLE_FILL_AREA(#1505);
#1505 = FILL_AREA_STYLE('',(#1506));
#1506 = FILL_AREA_STYLE_COLOUR('',#1507);
#1507 = DRAUGHTING_PRE_DEFINED_COLOUR('white');
#1508 = CURVE_STYLE('',#1509,POSITIVE_LENGTH_MEASURE(0.1),#1510);
#1509 = DRAUGHTING_PRE_DEFINED_CURVE_FONT('continuous');
#1510 = COLOUR_RGB('',9.803921802644E-02,9.803921802644E-02,
  9.803921802644E-02);
#1511 = OVER_RIDING_STYLED_ITEM('overriding color',(#1512),#141,#1500);
#1512 = PRESENTATION_STYLE_ASSIGNMENT((#1513));
#1513 = SURFACE_STYLE_USAGE(.BOTH.,#1514);
#1514 = SURFACE_SIDE_STYLE('',(#1515));
#1515 = SURFACE_STYLE_FILL_AREA(#1516);
#1516 = FILL_AREA_STYLE('',(#1517));
#1517 = FILL_AREA_STYLE_COLOUR('',#1518);
#1518 = COLOUR_RGB('',0.796078452645,0.823529417451,0.937254901616);
#1519 = OVER_RIDING_STYLED_ITEM('overriding color',(#1520),#182,#1500);
#1520 = PRESENTATION_STYLE_ASSIGNMENT((#1521));
#1521 = SURFACE_STYLE_USAGE(.BOTH.,#1522);
#1522 = SURFACE_SIDE_STYLE('',(#1523));
#1523 = SURFACE_STYLE_FILL_AREA(#1524);
#1524 = FILL_AREA_STYLE('',(#1525));
#1525 = FILL_AREA_STYLE_COLOUR('',#1518);
#1526 = OVER_RIDING_STYLED_ITEM('overriding color',(#1527),#231,#1500);
#1527 = PRESENTATION_STYLE_ASSIGNMENT((#1528));
#1528 = SURFACE_STYLE_USAGE(.BOTH.,#1529);
#1529 = SURFACE_SIDE_STYLE('',(#1530));
#1530 = SURFACE_STYLE_FILL_AREA(#1531);
#1531 = FILL_AREA_STYLE('',(#1532));
#1532 = FILL_AREA_STYLE_COLOUR('',#1518);
#1533 = OVER_RIDING_STYLED_ITEM('overriding color',(#1534),#272,#1500);
#1534 = PRESENTATION_STYLE_ASSIGNMENT((#1535));
#1535 = SURFACE_STYLE_USAGE(.BOTH.,#1536);
#1536 = SURFACE_SIDE_STYLE('',(#1537));
#1537 = SURFACE_STYLE_FILL_AREA(#1538);
#1538 = FILL_AREA_STYLE('',(#1539));
#1539 = FILL_AREA_STYLE_COLOUR('',#1518);
#1540 = OVER_RIDING_STYLED_ITEM('overriding color',(#1541),#411,#1500);
#1541 = PRESENTATION_STYLE_ASSIGNMENT((#1542));
#1542 = SURFACE_STYLE_USAGE(.BOTH.,#1543);
#1543 = SURFACE_SIDE_STYLE('',(#1544));
#1544 = SURFACE_STYLE_FILL_AREA(#1545);
#1545 = FILL_AREA_STYLE('',(#1546));
#1546 = FILL_AREA_STYLE_COLOUR('',#1518);
#1547 = OVER_RIDING_STYLED_ITEM('overriding color',(#1548),#443,#1500);
#1548 = PRESENTATION_STYLE_ASSIGNMENT((#1549));
#1549 = SURFACE_STYLE_USAGE(.BOTH.,#1550);
#1550 = SURFACE_SIDE_STYLE('',(#1551));
#1551 = SURFACE_STYLE_FILL_AREA(#1552);
#1552 = FILL_AREA_STYLE('',(#1553));
#1553 = FILL_AREA_STYLE_COLOUR('',#1518);
#1554 = OVER_RIDING_STYLED_ITEM('overriding color',(#1555),#460,#1500);
#1555 = PRESENTATION_STYLE_ASSIGNMENT((#1556));
#1556 = SURFACE_STYLE_USAGE(.BOTH.,#1557);
#1557 = SURFACE_SIDE_STYLE('',(#1558));
#1558 = SURFACE_STYLE_FILL_AREA(#1559);
#1559 = FILL_AREA_STYLE('',(#1560));
#1560 = FILL_AREA_STYLE_COLOUR('',#1518);
#1561 = OVER_RIDING_STYLED_ITEM('overriding color',(#1562),#492,#1500);
#1562 = PRESENTATION_STYLE_ASSIGNMENT((#1563));
#1563 = SURFACE_STYLE_USAGE(.BOTH.,#1564);
#1564 = SURFACE_SIDE_STYLE('',(#1565));
#1565 = SURFACE_STYLE_FILL_AREA(#1566);
#1566 = FILL_AREA_STYLE('',(#1567));
#1567 = FILL_AREA_STYLE_COLOUR('',#1518);
#1568 = OVER_RIDING_STYLED_ITEM('overriding color',(#1569),#509,#1500);
#1569 = PRESENTATION_STYLE_ASSIGNMENT((#1570));
#1570 = SURFACE_STYLE_USAGE(.BOTH.,#1571);
#1571 = SURFACE_SIDE_STYLE('',(#1572));
#1572 = SURFACE_STYLE_FILL_AREA(#1573);
#1573 = FILL_AREA_STYLE('',(#1574));
#1574 = FILL_AREA_STYLE_COLOUR('',#1518);
#1575 = OVER_RIDING_STYLED_ITEM('overriding color',(#1576),#542,#1500);
#1576 = PRESENTATION_STYLE_ASSIGNMENT((#1577));
#1577 = SURFACE_STYLE_USAGE(.BOTH.,#1578);
#1578 = SURFACE_SIDE_STYLE('',(#1579));
#1579 = SURFACE_STYLE_FILL_AREA(#1580);
#1580 = FILL_AREA_STYLE('',(#1581));
#1581 = FILL_AREA_STYLE_COLOUR('',#1518);
#1582 = OVER_RIDING_STYLED_ITEM('overriding color',(#1583),#575,#1500);
#1583 = PRESENTATION_STYLE_ASSIGNMENT((#1584));
#1584 = SURFACE_STYLE_USAGE(.BOTH.,#1585);
#1585 = SURFACE_SIDE_STYLE('',(#1586));
#1586 = SURFACE_STYLE_FILL_AREA(#1587);
#1587 = FILL_AREA_STYLE('',(#1588));
#1588 = FILL_AREA_STYLE_COLOUR('',#1518);
#1589 = OVER_RIDING_STYLED_ITEM('overriding color',(#1590),#630,#1500);
#1590 = PRESENTATION_STYLE_ASSIGNMENT((#1591));
#1591 = SURFACE_STYLE_USAGE(.BOTH.,#1592);
#1592 = SURFACE_SIDE_STYLE('',(#1593));
#1593 = SURFACE_STYLE_FILL_AREA(#1594);
#1594 = FILL_AREA_STYLE('',(#1595));
#1595 = FILL_AREA_STYLE_COLOUR('',#1518);
#1596 = OVER_RIDING_STYLED_ITEM('overriding color',(#1597),#685,#1500);
#1597 = PRESENTATION_STYLE_ASSIGNMENT((#1598));
#1598 = SURFACE_STYLE_USAGE(.BOTH.,#1599);
#1599 = SURFACE_SIDE_STYLE('',(#1600));
#1600 = SURFACE_STYLE_FILL_AREA(#1601);
#1601 = FILL_AREA_STYLE('',(#1602));
#1602 = FILL_AREA_STYLE_COLOUR('',#1518);
#1603 = OVER_RIDING_STYLED_ITEM('overriding color',(#1604),#740,#1500);
#1604 = PRESENTATION_STYLE_ASSIGNMENT((#1605));
#1605 = SURFACE_STYLE_USAGE(.BOTH.,#1606);
#1606 = SURFACE_SIDE_STYLE('',(#1607));
#1607 = SURFACE_STYLE_FILL_AREA(#1608);
#1608 = FILL_AREA_STYLE('',(#1609));
#1609 = FILL_AREA_STYLE_COLOUR('',#1518);
#1610 = OVER_RIDING_STYLED_ITEM('overriding color',(#1611),#795,#1500);
#1611 = PRESENTATION_STYLE_ASSIGNMENT((#1612));
#1612 = SURFACE_STYLE_USAGE(.BOTH.,#1613);
#1613 = SURFACE_SIDE_STYLE('',(#1614));
#1614 = SURFACE_STYLE_FILL_AREA(#1615);
#1615 = FILL_AREA_STYLE('',(#1616));
#1616 = FILL_AREA_STYLE_COLOUR('',#1518);
#1617 = OVER_RIDING_STYLED_ITEM('overriding color',(#1618),#817,#1500);
#1618 = PRESENTATION_STYLE_ASSIGNMENT((#1619));
#1619 = SURFACE_STYLE_USAGE(.BOTH.,#1620);
#1620 = SURFACE_SIDE_STYLE('',(#1621));
#1621 = SURFACE_STYLE_FILL_AREA(#1622);
#1622 = FILL_AREA_STYLE('',(#1623));
#1623 = FILL_AREA_STYLE_COLOUR('',#1518);
#1624 = OVER_RIDING_STYLED_ITEM('overriding color',(#1625),#839,#1500);
#1625 = PRESENTATION_STYLE_ASSIGNMENT((#1626));
#1626 = SURFACE_STYLE_USAGE(.BOTH.,#1627);
#1627 = SURFACE_SIDE_STYLE('',(#1628));
#1628 = SURFACE_STYLE_FILL_AREA(#1629);
#1629 = FILL_AREA_STYLE('',(#1630));
#1630 = FILL_AREA_STYLE_COLOUR('',#1518);
#1631 = OVER_RIDING_STYLED_ITEM('overriding color',(#1632),#856,#1500);
#1632 = PRESENTATION_STYLE_ASSIGNMENT((#1633));
#1633 = SURFACE_STYLE_USAGE(.BOTH.,#1634);
#1634 = SURFACE_SIDE_STYLE('',(#1635));
#1635 = SURFACE_STYLE_FILL_AREA(#1636);
#1636 = FILL_AREA_STYLE('',(#1637));
#1637 = FILL_AREA_STYLE_COLOUR('',#1518);
#1638 = OVER_RIDING_STYLED_ITEM('overriding color',(#1639),#873,#1500);
#1639 = PRESENTATION_STYLE_ASSIGNMENT((#1640));
#1640 = SURFACE_STYLE_USAGE(.BOTH.,#1641);
#1641 = SURFACE_SIDE_STYLE('',(#1642));
#1642 = SURFACE_STYLE_FILL_AREA(#1643);
#1643 = FILL_AREA_STYLE('',(#1644));
#1644 = FILL_AREA_STYLE_COLOUR('',#1518);
#1645 = OVER_RIDING_STYLED_ITEM('overriding color',(#1646),#892,#1500);
#1646 = PRESENTATION_STYLE_ASSIGNMENT((#1647));
#1647 = SURFACE_STYLE_USAGE(.BOTH.,#1648);
#1648 = SURFACE_SIDE_STYLE('',(#1649));
#1649 = SURFACE_STYLE_FILL_AREA(#1650);
#1650 = FILL_AREA_STYLE('',(#1651));
#1651 = FILL_AREA_STYLE_COLOUR('',#1518);
#1652 = OVER_RIDING_STYLED_ITEM('overriding color',(#1653),#909,#1500);
#1653 = PRESENTATION_STYLE_ASSIGNMENT((#1654));
#1654 = SURFACE_STYLE_USAGE(.BOTH.,#1655);
#1655 = SURFACE_SIDE_STYLE('',(#1656));
#1656 = SURFACE_STYLE_FILL_AREA(#1657);
#1657 = FILL_AREA_STYLE('',(#1658));
#1658 = FILL_AREA_STYLE_COLOUR('',#1518);
#1659 = OVER_RIDING_STYLED_ITEM('overriding color',(#1660),#921,#1500);
#1660 = PRESENTATION_STYLE_ASSIGNMENT((#1661));
#1661 = SURFACE_STYLE_USAGE(.BOTH.,#1662);
#1662 = SURFACE_SIDE_STYLE('',(#1663));
#1663 = SURFACE_STYLE_FILL_AREA(#1664);
#1664 = FILL_AREA_STYLE('',(#1665));
#1665 = FILL_AREA_STYLE_COLOUR('',#1518);
#1666 = OVER_RIDING_STYLED_ITEM('overriding color',(#1667),#956,#1500);
#1667 = PRESENTATION_STYLE_ASSIGNMENT((#1668));
#1668 = SURFACE_STYLE_USAGE(.BOTH.,#1669);
#1669 = SURFACE_SIDE_STYLE('',(#1670));
#1670 = SURFACE_STYLE_FILL_AREA(#1671);
#1671 = FILL_AREA_STYLE('',(#1672));
#1672 = FILL_AREA_STYLE_COLOUR('',#1518);
#1673 = OVER_RIDING_STYLED_ITEM('overriding color',(#1674),#989,#1500);
#1674 = PRESENTATION_STYLE_ASSIGNMENT((#1675));
#1675 = SURFACE_STYLE_USAGE(.BOTH.,#1676);
#1676 = SURFACE_SIDE_STYLE('',(#1677));
#1677 = SURFACE_STYLE_FILL_AREA(#1678);
#1678 = FILL_AREA_STYLE('',(#1679));
#1679 = FILL_AREA_STYLE_COLOUR('',#1518);
#1680 = OVER_RIDING_STYLED_ITEM('overriding color',(#1681),#1022,#1500);
#1681 = PRESENTATION_STYLE_ASSIGNMENT((#1682));
#1682 = SURFACE_STYLE_USAGE(.BOTH.,#1683);
#1683 = SURFACE_SIDE_STYLE('',(#1684));
#1684 = SURFACE_STYLE_FILL_AREA(#1685);
#1685 = FILL_AREA_STYLE('',(#1686));
#1686 = FILL_AREA_STYLE_COLOUR('',#1518);
#1687 = OVER_RIDING_STYLED_ITEM('overriding color',(#1688),#1053,#1500);
#1688 = PRESENTATION_STYLE_ASSIGNMENT((#1689));
#1689 = SURFACE_STYLE_USAGE(.BOTH.,#1690);
#1690 = SURFACE_SIDE_STYLE('',(#1691));
#1691 = SURFACE_STYLE_FILL_AREA(#1692);
#1692 = FILL_AREA_STYLE('',(#1693));
#1693 = FILL_AREA_STYLE_COLOUR('',#1518);
#1694 = OVER_RIDING_STYLED_ITEM('overriding color',(#1695),#1084,#1500);
#1695 = PRESENTATION_STYLE_ASSIGNMENT((#1696));
#1696 = SURFACE_STYLE_USAGE(.BOTH.,#1697);
#1697 = SURFACE_SIDE_STYLE('',(#1698));
#1698 = SURFACE_STYLE_FILL_AREA(#1699);
#1699 = FILL_AREA_STYLE('',(#1700));
#1700 = FILL_AREA_STYLE_COLOUR('',#1518);
#1701 = OVER_RIDING_STYLED_ITEM('overriding color',(#1702),#1117,#1500);
#1702 = PRESENTATION_STYLE_ASSIGNMENT((#1703));
#1703 = SURFACE_STYLE_USAGE(.BOTH.,#1704);
#1704 = SURFACE_SIDE_STYLE('',(#1705));
#1705 = SURFACE_STYLE_FILL_AREA(#1706);
#1706 = FILL_AREA_STYLE('',(#1707));
#1707 = FILL_AREA_STYLE_COLOUR('',#1518);
#1708 = OVER_RIDING_STYLED_ITEM('overriding color',(#1709),#1150,#1500);
#1709 = PRESENTATION_STYLE_ASSIGNMENT((#1710));
#1710 = SURFACE_STYLE_USAGE(.BOTH.,#1711);
#1711 = SURFACE_SIDE_STYLE('',(#1712));
#1712 = SURFACE_STYLE_FILL_AREA(#1713);
#1713 = FILL_AREA_STYLE('',(#1714));
#1714 = FILL_AREA_STYLE_COLOUR('',#1518);
#1715 = OVER_RIDING_STYLED_ITEM('overriding color',(#1716),#1181,#1500);
#1716 = PRESENTATION_STYLE_ASSIGNMENT((#1717));
#1717 = SURFACE_STYLE_USAGE(.BOTH.,#1718);
#1718 = SURFACE_SIDE_STYLE('',(#1719));
#1719 = SURFACE_STYLE_FILL_AREA(#1720);
#1720 = FILL_AREA_STYLE('',(#1721));
#1721 = FILL_AREA_STYLE_COLOUR('',#1518);
#1722 = OVER_RIDING_STYLED_ITEM('overriding color',(#1723),#1212,#1500);
#1723 = PRESENTATION_STYLE_ASSIGNMENT((#1724));
#1724 = SURFACE_STYLE_USAGE(.BOTH.,#1725);
#1725 = SURFACE_SIDE_STYLE('',(#1726));
#1726 = SURFACE_STYLE_FILL_AREA(#1727);
#1727 = FILL_AREA_STYLE('',(#1728));
#1728 = FILL_AREA_STYLE_COLOUR('',#1518);
#1729 = OVER_RIDING_STYLED_ITEM('overriding color',(#1730),#1236,#1500);
#1730 = PRESENTATION_STYLE_ASSIGNMENT((#1731));
#1731 = SURFACE_STYLE_USAGE(.BOTH.,#1732);
#1732 = SURFACE_SIDE_STYLE('',(#1733));
#1733 = SURFACE_STYLE_FILL_AREA(#1734);
#1734 = FILL_AREA_STYLE('',(#1735));
#1735 = FILL_AREA_STYLE_COLOUR('',#1518);
#1736 = OVER_RIDING_STYLED_ITEM('overriding color',(#1737),#1269,#1500);
#1737 = PRESENTATION_STYLE_ASSIGNMENT((#1738));
#1738 = SURFACE_STYLE_USAGE(.BOTH.,#1739);
#1739 = SURFACE_SIDE_STYLE('',(#1740));
#1740 = SURFACE_STYLE_FILL_AREA(#1741);
#1741 = FILL_AREA_STYLE('',(#1742));
#1742 = FILL_AREA_STYLE_COLOUR('',#1518);
#1743 = OVER_RIDING_STYLED_ITEM('overriding color',(#1744),#1286,#1500);
#1744 = PRESENTATION_STYLE_ASSIGNMENT((#1745));
#1745 = SURFACE_STYLE_USAGE(.BOTH.,#1746);
#1746 = SURFACE_SIDE_STYLE('',(#1747));
#1747 = SURFACE_STYLE_FILL_AREA(#1748);
#1748 = FILL_AREA_STYLE('',(#1749));
#1749 = FILL_AREA_STYLE_COLOUR('',#1518);
#1750 = OVER_RIDING_STYLED_ITEM('overriding color',(#1751),#1317,#1500);
#1751 = PRESENTATION_STYLE_ASSIGNMENT((#1752));
#1752 = SURFACE_STYLE_USAGE(.BOTH.,#1753);
#1753 = SURFACE_SIDE_STYLE('',(#1754));
#1754 = SURFACE_STYLE_FILL_AREA(#1755);
#1755 = FILL_AREA_STYLE('',(#1756));
#1756 = FILL_AREA_STYLE_COLOUR('',#1518);
#1757 = OVER_RIDING_STYLED_ITEM('overriding color',(#1758),#1336,#1500);
#1758 = PRESENTATION_STYLE_ASSIGNMENT((#1759));
#1759 = SURFACE_STYLE_USAGE(.BOTH.,#1760);
#1760 = SURFACE_SIDE_STYLE('',(#1761));
#1761 = SURFACE_STYLE_FILL_AREA(#1762);
#1762 = FILL_AREA_STYLE('',(#1763));
#1763 = FILL_AREA_STYLE_COLOUR('',#1518);
#1764 = OVER_RIDING_STYLED_ITEM('overriding color',(#1765),#1353,#1500);
#1765 = PRESENTATION_STYLE_ASSIGNMENT((#1766));
#1766 = SURFACE_STYLE_USAGE(.BOTH.,#1767);
#1767 = SURFACE_SIDE_STYLE('',(#1768));
#1768 = SURFACE_STYLE_FILL_AREA(#1769);
#1769 = FILL_AREA_STYLE('',(#1770));
#1770 = FILL_AREA_STYLE_COLOUR('',#1518);
#1771 = OVER_RIDING_STYLED_ITEM('overriding color',(#1772),#1370,#1500);
#1772 = PRESENTATION_STYLE_ASSIGNMENT((#1773));
#1773 = SURFACE_STYLE_USAGE(.BOTH.,#1774);
#1774 = SURFACE_SIDE_STYLE('',(#1775));
#1775 = SURFACE_STYLE_FILL_AREA(#1776);
#1776 = FILL_AREA_STYLE('',(#1777));
#1777 = FILL_AREA_STYLE_COLOUR('',#1518);
#1778 = OVER_RIDING_STYLED_ITEM('overriding color',(#1779),#1387,#1500);
#1779 = PRESENTATION_STYLE_ASSIGNMENT((#1780));
#1780 = SURFACE_STYLE_USAGE(.BOTH.,#1781);
#1781 = SURFACE_SIDE_STYLE('',(#1782));
#1782 = SURFACE_STYLE_FILL_AREA(#1783);
#1783 = FILL_AREA_STYLE('',(#1784));
#1784 = FILL_AREA_STYLE_COLOUR('',#1518);
#1785 = OVER_RIDING_STYLED_ITEM('overriding color',(#1786),#1404,#1500);
#1786 = PRESENTATION_STYLE_ASSIGNMENT((#1787));
#1787 = SURFACE_STYLE_USAGE(.BOTH.,#1788);
#1788 = SURFACE_SIDE_STYLE('',(#1789));
#1789 = SURFACE_STYLE_FILL_AREA(#1790);
#1790 = FILL_AREA_STYLE('',(#1791));
#1791 = FILL_AREA_STYLE_COLOUR('',#1518);
#1792 = OVER_RIDING_STYLED_ITEM('overriding color',(#1793),#1428,#1500);
#1793 = PRESENTATION_STYLE_ASSIGNMENT((#1794));
#1794 = SURFACE_STYLE_USAGE(.BOTH.,#1795);
#1795 = SURFACE_SIDE_STYLE('',(#1796));
#1796 = SURFACE_STYLE_FILL_AREA(#1797);
#1797 = FILL_AREA_STYLE('',(#1798));
#1798 = FILL_AREA_STYLE_COLOUR('',#1518);
#1799 = OVER_RIDING_STYLED_ITEM('overriding color',(#1800),#1445,#1500);
#1800 = PRESENTATION_STYLE_ASSIGNMENT((#1801));
#1801 = SURFACE_STYLE_USAGE(.BOTH.,#1802);
#1802 = SURFACE_SIDE_STYLE('',(#1803));
#1803 = SURFACE_STYLE_FILL_AREA(#1804);
#1804 = FILL_AREA_STYLE('',(#1805));
#1805 = FILL_AREA_STYLE_COLOUR('',#1518);
#1806 = OVER_RIDING_STYLED_ITEM('overriding color',(#1807),#1469,#1500);
#1807 = PRESENTATION_STYLE_ASSIGNMENT((#1808));
#1808 = SURFACE_STYLE_USAGE(.BOTH.,#1809);
#1809 = SURFACE_SIDE_STYLE('',(#1810));
#1810 = SURFACE_STYLE_FILL_AREA(#1811);
#1811 = FILL_AREA_STYLE('',(#1812));
#1812 = FILL_AREA_STYLE_COLOUR('',#1518);
#1813 = OVER_RIDING_STYLED_ITEM('overriding color',(#1814),#1481,#1500);
#1814 = PRESENTATION_STYLE_ASSIGNMENT((#1815));
#1815 = SURFACE_STYLE_USAGE(.BOTH.,#1816);
#1816 = SURFACE_SIDE_STYLE('',(#1817));
#1817 = SURFACE_STYLE_FILL_AREA(#1818);
#1818 = FILL_AREA_STYLE('',(#1819));
#1819 = FILL_AREA_STYLE_COLOUR('',#1518);
ENDSEC;
END-ISO-10303-21;
