ISO-10303-21;
HEADER;
FILE_DESCRIPTION(('FreeCAD Model'),'2;1');
FILE_NAME('Open CASCADE Shape Model','2026-06-03T10:38:11',(''),(''),
  'Open CASCADE STEP processor 7.8','FreeCAD','Unknown');
FILE_SCHEMA(('AUTOMOTIVE_DESIGN { 1 0 10303 214 1 1 1 1 }'));
ENDSEC;
DATA;
#1 = APPLICATION_PROTOCOL_DEFINITION('international standard',
  'automotive_design',2000,#2);
#2 = APPLICATION_CONTEXT(
  'core data for automotive mechanical design processes');
#3 = SHAPE_DEFINITION_REPRESENTATION(#4,#10);
#4 = PRODUCT_DEFINITION_SHAPE('','',#5);
#5 = PRODUCT_DEFINITION('design','',#6,#9);
#6 = PRODUCT_DEFINITION_FORMATION('','',#7);
#7 = PRODUCT('5019','5019','',(#8));
#8 = PRODUCT_CONTEXT('',#2,'mechanical');
#9 = PRODUCT_DEFINITION_CONTEXT('part definition',#2,'design');
#10 = ADVANCED_BREP_SHAPE_REPRESENTATION('',(#11,#15),#1081);
#11 = AXIS2_PLACEMENT_3D('',#12,#13,#14);
#12 = CARTESIAN_POINT('',(0.,0.,0.));
#13 = DIRECTION('',(0.,0.,1.));
#14 = DIRECTION('',(1.,0.,-0.));
#15 = MANIFOLD_SOLID_BREP('',#16);
#16 = CLOSED_SHELL('',(#17,#57,#97,#119,#141,#181,#212,#243,#274,#300,
    #324,#343,#376,#401,#426,#443,#474,#498,#522,#539,#563,#587,#599,
    #611,#644,#677,#694,#711,#742,#766,#790,#807,#840,#873,#890,#907,
    #947,#978,#1009,#1033,#1050,#1069));
#17 = ADVANCED_FACE('',(#18),#52,.F.);
#18 = FACE_BOUND('',#19,.T.);
#19 = EDGE_LOOP('',(#20,#30,#38,#46));
#20 = ORIENTED_EDGE('',*,*,#21,.F.);
#21 = EDGE_CURVE('',#22,#24,#26,.T.);
#22 = VERTEX_POINT('',#23);
#23 = CARTESIAN_POINT('',(-1.2954,-0.508,1.9304));
#24 = VERTEX_POINT('',#25);
#25 = CARTESIAN_POINT('',(-1.2954,-0.508,2.286));
#26 = LINE('',#27,#28);
#27 = CARTESIAN_POINT('',(-1.2954,-0.508,1.9304));
#28 = VECTOR('',#29,1.);
#29 = DIRECTION('',(0.,2.22044604925E-16,1.));
#30 = ORIENTED_EDGE('',*,*,#31,.T.);
#31 = EDGE_CURVE('',#22,#32,#34,.T.);
#32 = VERTEX_POINT('',#33);
#33 = CARTESIAN_POINT('',(1.2954,-0.508,1.9304));
#34 = LINE('',#35,#36);
#35 = CARTESIAN_POINT('',(3.71873970782,-0.508,1.9304));
#36 = VECTOR('',#37,1.);
#37 = DIRECTION('',(1.,-1.166203883757E-16,-7.535065755329E-17));
#38 = ORIENTED_EDGE('',*,*,#39,.F.);
#39 = EDGE_CURVE('',#40,#32,#42,.T.);
#40 = VERTEX_POINT('',#41);
#41 = CARTESIAN_POINT('',(1.2954,-0.508,2.286));
#42 = LINE('',#43,#44);
#43 = CARTESIAN_POINT('',(1.2954,-0.508,2.286));
#44 = VECTOR('',#45,1.);
#45 = DIRECTION('',(-6.123233995737E-17,-2.22044604925E-16,-1.));
#46 = ORIENTED_EDGE('',*,*,#47,.F.);
#47 = EDGE_CURVE('',#24,#40,#48,.T.);
#48 = LINE('',#49,#50);
#49 = CARTESIAN_POINT('',(3.71873970782,-0.508,2.286));
#50 = VECTOR('',#51,1.);
#51 = DIRECTION('',(1.,-1.166203883757E-16,-7.535065755329E-17));
#52 = PLANE('',#53);
#53 = AXIS2_PLACEMENT_3D('',#54,#55,#56);
#54 = CARTESIAN_POINT('',(3.71873970782,-0.508,2.286));
#55 = DIRECTION('',(1.166203883757E-16,1.,-2.22044604925E-16));
#56 = DIRECTION('',(1.,-1.166203883757E-16,9.95799250103E-17));
#57 = ADVANCED_FACE('',(#58),#92,.F.);
#58 = FACE_BOUND('',#59,.T.);
#59 = EDGE_LOOP('',(#60,#70,#78,#86));
#60 = ORIENTED_EDGE('',*,*,#61,.F.);
#61 = EDGE_CURVE('',#62,#64,#66,.T.);
#62 = VERTEX_POINT('',#63);
#63 = CARTESIAN_POINT('',(-1.2954,0.508,2.286));
#64 = VERTEX_POINT('',#65);
#65 = CARTESIAN_POINT('',(-1.2954,0.508,1.9304));
#66 = LINE('',#67,#68);
#67 = CARTESIAN_POINT('',(-1.2954,0.508,2.286));
#68 = VECTOR('',#69,1.);
#69 = DIRECTION('',(0.,-2.22044604925E-16,-1.));
#70 = ORIENTED_EDGE('',*,*,#71,.F.);
#71 = EDGE_CURVE('',#72,#62,#74,.T.);
#72 = VERTEX_POINT('',#73);
#73 = CARTESIAN_POINT('',(1.2954,0.508,2.286));
#74 = LINE('',#75,#76);
#75 = CARTESIAN_POINT('',(3.71873970782,0.508,2.286));
#76 = VECTOR('',#77,1.);
#77 = DIRECTION('',(-1.,1.166203883757E-16,7.535065755329E-17));
#78 = ORIENTED_EDGE('',*,*,#79,.F.);
#79 = EDGE_CURVE('',#80,#72,#82,.T.);
#80 = VERTEX_POINT('',#81);
#81 = CARTESIAN_POINT('',(1.2954,0.508,1.9304));
#82 = LINE('',#83,#84);
#83 = CARTESIAN_POINT('',(1.2954,0.508,1.9304));
#84 = VECTOR('',#85,1.);
#85 = DIRECTION('',(6.123233995737E-17,2.22044604925E-16,1.));
#86 = ORIENTED_EDGE('',*,*,#87,.T.);
#87 = EDGE_CURVE('',#80,#64,#88,.T.);
#88 = LINE('',#89,#90);
#89 = CARTESIAN_POINT('',(3.71873970782,0.508,1.9304));
#90 = VECTOR('',#91,1.);
#91 = DIRECTION('',(-1.,1.166203883757E-16,7.535065755329E-17));
#92 = PLANE('',#93);
#93 = AXIS2_PLACEMENT_3D('',#94,#95,#96);
#94 = CARTESIAN_POINT('',(3.71873970782,0.508,2.286));
#95 = DIRECTION('',(-1.166203883757E-16,-1.,2.22044604925E-16));
#96 = DIRECTION('',(-1.,1.166203883757E-16,-9.95799250103E-17));
#97 = ADVANCED_FACE('',(#98),#114,.T.);
#98 = FACE_BOUND('',#99,.T.);
#99 = EDGE_LOOP('',(#100,#101,#107,#108));
#100 = ORIENTED_EDGE('',*,*,#71,.T.);
#101 = ORIENTED_EDGE('',*,*,#102,.F.);
#102 = EDGE_CURVE('',#24,#62,#103,.T.);
#103 = LINE('',#104,#105);
#104 = CARTESIAN_POINT('',(-1.2954,-1.016,2.286));
#105 = VECTOR('',#106,1.);
#106 = DIRECTION('',(0.,1.,-2.22044604925E-16));
#107 = ORIENTED_EDGE('',*,*,#47,.T.);
#108 = ORIENTED_EDGE('',*,*,#109,.T.);
#109 = EDGE_CURVE('',#40,#72,#110,.T.);
#110 = LINE('',#111,#112);
#111 = CARTESIAN_POINT('',(1.2954,-1.016,2.286));
#112 = VECTOR('',#113,1.);
#113 = DIRECTION('',(0.,1.,-2.22044604925E-16));
#114 = PLANE('',#115);
#115 = AXIS2_PLACEMENT_3D('',#116,#117,#118);
#116 = CARTESIAN_POINT('',(1.2954,-1.016,2.286));
#117 = DIRECTION('',(-1.673926466706E-16,2.22044604925E-16,1.));
#118 = DIRECTION('',(-1.,-3.716863409733E-32,-1.673926466706E-16));
#119 = ADVANCED_FACE('',(#120),#136,.F.);
#120 = FACE_BOUND('',#121,.T.);
#121 = EDGE_LOOP('',(#122,#128,#129,#135));
#122 = ORIENTED_EDGE('',*,*,#123,.T.);
#123 = EDGE_CURVE('',#22,#64,#124,.T.);
#124 = LINE('',#125,#126);
#125 = CARTESIAN_POINT('',(-1.2954,-1.016,1.9304));
#126 = VECTOR('',#127,1.);
#127 = DIRECTION('',(0.,1.,-2.22044604925E-16));
#128 = ORIENTED_EDGE('',*,*,#87,.F.);
#129 = ORIENTED_EDGE('',*,*,#130,.F.);
#130 = EDGE_CURVE('',#32,#80,#131,.T.);
#131 = LINE('',#132,#133);
#132 = CARTESIAN_POINT('',(1.2954,-1.016,1.9304));
#133 = VECTOR('',#134,1.);
#134 = DIRECTION('',(0.,1.,-2.22044604925E-16));
#135 = ORIENTED_EDGE('',*,*,#31,.F.);
#136 = PLANE('',#137);
#137 = AXIS2_PLACEMENT_3D('',#138,#139,#140);
#138 = CARTESIAN_POINT('',(1.2954,-1.016,1.9304));
#139 = DIRECTION('',(-1.673926466706E-16,2.22044604925E-16,1.));
#140 = DIRECTION('',(-1.,-3.716863409733E-32,-1.673926466706E-16));
#141 = ADVANCED_FACE('',(#142),#176,.T.);
#142 = FACE_BOUND('',#143,.T.);
#143 = EDGE_LOOP('',(#144,#154,#162,#170));
#144 = ORIENTED_EDGE('',*,*,#145,.F.);
#145 = EDGE_CURVE('',#146,#148,#150,.T.);
#146 = VERTEX_POINT('',#147);
#147 = CARTESIAN_POINT('',(2.54E-02,1.016,-2.255973186038E-16));
#148 = VERTEX_POINT('',#149);
#149 = CARTESIAN_POINT('',(2.54E-02,1.016,0.3556));
#150 = LINE('',#151,#152);
#151 = CARTESIAN_POINT('',(2.54E-02,1.016,-2.255973186038E-16));
#152 = VECTOR('',#153,1.);
#153 = DIRECTION('',(-8.575136698862E-17,2.22044604925E-16,1.));
#154 = ORIENTED_EDGE('',*,*,#155,.F.);
#155 = EDGE_CURVE('',#156,#146,#158,.T.);
#156 = VERTEX_POINT('',#157);
#157 = CARTESIAN_POINT('',(2.54E-02,-1.016,2.255973186038E-16));
#158 = LINE('',#159,#160);
#159 = CARTESIAN_POINT('',(2.54E-02,-1.016,2.255973186038E-16));
#160 = VECTOR('',#161,1.);
#161 = DIRECTION('',(-0.,1.,-2.22044604925E-16));
#162 = ORIENTED_EDGE('',*,*,#163,.T.);
#163 = EDGE_CURVE('',#156,#164,#166,.T.);
#164 = VERTEX_POINT('',#165);
#165 = CARTESIAN_POINT('',(2.54E-02,-1.016,0.3556));
#166 = LINE('',#167,#168);
#167 = CARTESIAN_POINT('',(2.54E-02,-1.016,2.255973186038E-16));
#168 = VECTOR('',#169,1.);
#169 = DIRECTION('',(-8.575136698862E-17,2.22044604925E-16,1.));
#170 = ORIENTED_EDGE('',*,*,#171,.T.);
#171 = EDGE_CURVE('',#164,#148,#172,.T.);
#172 = LINE('',#173,#174);
#173 = CARTESIAN_POINT('',(2.54E-02,-1.016,0.3556));
#174 = VECTOR('',#175,1.);
#175 = DIRECTION('',(-0.,1.,-2.22044604925E-16));
#176 = PLANE('',#177);
#177 = AXIS2_PLACEMENT_3D('',#178,#179,#180);
#178 = CARTESIAN_POINT('',(2.54E-02,-1.016,2.255973186038E-16));
#179 = DIRECTION('',(-1.,-1.904062840477E-32,-8.575136698862E-17));
#180 = DIRECTION('',(8.575136698862E-17,-2.22044604925E-16,-1.));
#181 = ADVANCED_FACE('',(#182),#207,.T.);
#182 = FACE_BOUND('',#183,.T.);
#183 = EDGE_LOOP('',(#184,#192,#200,#206));
#184 = ORIENTED_EDGE('',*,*,#185,.F.);
#185 = EDGE_CURVE('',#186,#156,#188,.T.);
#186 = VERTEX_POINT('',#187);
#187 = CARTESIAN_POINT('',(1.2954,-1.016,8.756884106731E-18));
#188 = LINE('',#189,#190);
#189 = CARTESIAN_POINT('',(2.54E-02,-1.016,2.255973186038E-16));
#190 = VECTOR('',#191,1.);
#191 = DIRECTION('',(-1.,-1.895600338964E-32,-8.537024980201E-17));
#192 = ORIENTED_EDGE('',*,*,#193,.T.);
#193 = EDGE_CURVE('',#186,#194,#196,.T.);
#194 = VERTEX_POINT('',#195);
#195 = CARTESIAN_POINT('',(1.2954,-1.016,0.3556));
#196 = LINE('',#197,#198);
#197 = CARTESIAN_POINT('',(1.2954,-1.016,3.340175358524E-16));
#198 = VECTOR('',#199,1.);
#199 = DIRECTION('',(0.,2.22044604925E-16,1.));
#200 = ORIENTED_EDGE('',*,*,#201,.T.);
#201 = EDGE_CURVE('',#194,#164,#202,.T.);
#202 = LINE('',#203,#204);
#203 = CARTESIAN_POINT('',(2.54E-02,-1.016,0.3556));
#204 = VECTOR('',#205,1.);
#205 = DIRECTION('',(-1.,-1.895600338964E-32,-8.537024980201E-17));
#206 = ORIENTED_EDGE('',*,*,#163,.F.);
#207 = PLANE('',#208);
#208 = AXIS2_PLACEMENT_3D('',#209,#210,#211);
#209 = CARTESIAN_POINT('',(1.5494,-1.016,0.6096));
#210 = DIRECTION('',(0.,-1.,2.22044604925E-16));
#211 = DIRECTION('',(1.,0.,0.));
#212 = ADVANCED_FACE('',(#213),#238,.T.);
#213 = FACE_BOUND('',#214,.T.);
#214 = EDGE_LOOP('',(#215,#223,#231,#237));
#215 = ORIENTED_EDGE('',*,*,#216,.F.);
#216 = EDGE_CURVE('',#217,#148,#219,.T.);
#217 = VERTEX_POINT('',#218);
#218 = CARTESIAN_POINT('',(1.2954,1.016,0.3556));
#219 = LINE('',#220,#221);
#220 = CARTESIAN_POINT('',(2.54E-02,1.016,0.3556));
#221 = VECTOR('',#222,1.);
#222 = DIRECTION('',(-1.,-1.895600338964E-32,-8.537024980201E-17));
#223 = ORIENTED_EDGE('',*,*,#224,.T.);
#224 = EDGE_CURVE('',#217,#225,#227,.T.);
#225 = VERTEX_POINT('',#226);
#226 = CARTESIAN_POINT('',(1.2954,1.016,-4.424377531009E-16));
#227 = LINE('',#228,#229);
#228 = CARTESIAN_POINT('',(1.2954,1.016,0.3556));
#229 = VECTOR('',#230,1.);
#230 = DIRECTION('',(0.,-2.22044604925E-16,-1.));
#231 = ORIENTED_EDGE('',*,*,#232,.T.);
#232 = EDGE_CURVE('',#225,#146,#233,.T.);
#233 = LINE('',#234,#235);
#234 = CARTESIAN_POINT('',(2.54E-02,1.016,-2.255973186038E-16));
#235 = VECTOR('',#236,1.);
#236 = DIRECTION('',(-1.,-1.895600338964E-32,-8.537024980201E-17));
#237 = ORIENTED_EDGE('',*,*,#145,.T.);
#238 = PLANE('',#239);
#239 = AXIS2_PLACEMENT_3D('',#240,#241,#242);
#240 = CARTESIAN_POINT('',(1.2954,1.016,0.6096));
#241 = DIRECTION('',(0.,1.,-2.22044604925E-16));
#242 = DIRECTION('',(-1.,0.,0.));
#243 = ADVANCED_FACE('',(#244),#269,.F.);
#244 = FACE_BOUND('',#245,.T.);
#245 = EDGE_LOOP('',(#246,#254,#262,#268));
#246 = ORIENTED_EDGE('',*,*,#247,.T.);
#247 = EDGE_CURVE('',#217,#248,#250,.T.);
#248 = VERTEX_POINT('',#249);
#249 = CARTESIAN_POINT('',(1.2954,0.508,0.3556));
#250 = LINE('',#251,#252);
#251 = CARTESIAN_POINT('',(1.2954,1.016,0.3556));
#252 = VECTOR('',#253,1.);
#253 = DIRECTION('',(1.28055374703E-15,-1.,2.22044604925E-16));
#254 = ORIENTED_EDGE('',*,*,#255,.F.);
#255 = EDGE_CURVE('',#256,#248,#258,.T.);
#256 = VERTEX_POINT('',#257);
#257 = CARTESIAN_POINT('',(1.2954,0.508,1.040417751952E-16));
#258 = LINE('',#259,#260);
#259 = CARTESIAN_POINT('',(1.2954,0.508,-3.29639093799E-16));
#260 = VECTOR('',#261,1.);
#261 = DIRECTION('',(1.742249995959E-16,2.22044604925E-16,1.));
#262 = ORIENTED_EDGE('',*,*,#263,.F.);
#263 = EDGE_CURVE('',#225,#256,#264,.T.);
#264 = LINE('',#265,#266);
#265 = CARTESIAN_POINT('',(1.2954,1.016,-4.424377531009E-16));
#266 = VECTOR('',#267,1.);
#267 = DIRECTION('',(1.28055374703E-15,-1.,2.22044604925E-16));
#268 = ORIENTED_EDGE('',*,*,#224,.F.);
#269 = PLANE('',#270);
#270 = AXIS2_PLACEMENT_3D('',#271,#272,#273);
#271 = CARTESIAN_POINT('',(1.2954,1.016,-4.424377531009E-16));
#272 = DIRECTION('',(-1.,-1.28055374703E-15,1.742249995959E-16));
#273 = DIRECTION('',(1.28055374703E-15,-1.,2.22044604925E-16));
#274 = ADVANCED_FACE('',(#275),#295,.F.);
#275 = FACE_BOUND('',#276,.T.);
#276 = EDGE_LOOP('',(#277,#278,#279,#280,#288,#294));
#277 = ORIENTED_EDGE('',*,*,#216,.T.);
#278 = ORIENTED_EDGE('',*,*,#171,.F.);
#279 = ORIENTED_EDGE('',*,*,#201,.F.);
#280 = ORIENTED_EDGE('',*,*,#281,.T.);
#281 = EDGE_CURVE('',#194,#282,#284,.T.);
#282 = VERTEX_POINT('',#283);
#283 = CARTESIAN_POINT('',(1.2954,-0.508,0.3556));
#284 = LINE('',#285,#286);
#285 = CARTESIAN_POINT('',(1.2954,-1.016,0.3556));
#286 = VECTOR('',#287,1.);
#287 = DIRECTION('',(-0.,1.,-2.22044604925E-16));
#288 = ORIENTED_EDGE('',*,*,#289,.T.);
#289 = EDGE_CURVE('',#282,#248,#290,.T.);
#290 = LINE('',#291,#292);
#291 = CARTESIAN_POINT('',(1.2954,-1.016,0.3556));
#292 = VECTOR('',#293,1.);
#293 = DIRECTION('',(-0.,1.,-2.22044604925E-16));
#294 = ORIENTED_EDGE('',*,*,#247,.F.);
#295 = PLANE('',#296);
#296 = AXIS2_PLACEMENT_3D('',#297,#298,#299);
#297 = CARTESIAN_POINT('',(2.54E-02,-1.016,0.3556));
#298 = DIRECTION('',(8.537024980201E-17,-2.22044604925E-16,-1.));
#299 = DIRECTION('',(1.,1.895600338964E-32,8.537024980201E-17));
#300 = ADVANCED_FACE('',(#301),#319,.F.);
#301 = FACE_BOUND('',#302,.T.);
#302 = EDGE_LOOP('',(#303,#304,#305,#313));
#303 = ORIENTED_EDGE('',*,*,#281,.F.);
#304 = ORIENTED_EDGE('',*,*,#193,.F.);
#305 = ORIENTED_EDGE('',*,*,#306,.T.);
#306 = EDGE_CURVE('',#186,#307,#309,.T.);
#307 = VERTEX_POINT('',#308);
#308 = CARTESIAN_POINT('',(1.2954,-0.508,4.380593110476E-16));
#309 = LINE('',#310,#311);
#310 = CARTESIAN_POINT('',(1.2954,-1.016,3.340175358524E-16));
#311 = VECTOR('',#312,1.);
#312 = DIRECTION('',(-0.,1.,-2.22044604925E-16));
#313 = ORIENTED_EDGE('',*,*,#314,.T.);
#314 = EDGE_CURVE('',#307,#282,#315,.T.);
#315 = LINE('',#316,#317);
#316 = CARTESIAN_POINT('',(1.2954,-0.508,-1.040417751952E-16));
#317 = VECTOR('',#318,1.);
#318 = DIRECTION('',(1.742249995959E-16,2.22044604925E-16,1.));
#319 = PLANE('',#320);
#320 = AXIS2_PLACEMENT_3D('',#321,#322,#323);
#321 = CARTESIAN_POINT('',(1.2954,-1.016,8.756884106731E-18));
#322 = DIRECTION('',(-1.,1.28055374703E-15,1.742249995959E-16));
#323 = DIRECTION('',(-1.28055374703E-15,-1.,2.22044604925E-16));
#324 = ADVANCED_FACE('',(#325),#338,.T.);
#325 = FACE_BOUND('',#326,.T.);
#326 = EDGE_LOOP('',(#327,#328,#329,#335,#336,#337));
#327 = ORIENTED_EDGE('',*,*,#232,.F.);
#328 = ORIENTED_EDGE('',*,*,#263,.T.);
#329 = ORIENTED_EDGE('',*,*,#330,.F.);
#330 = EDGE_CURVE('',#307,#256,#331,.T.);
#331 = LINE('',#332,#333);
#332 = CARTESIAN_POINT('',(1.2954,-1.016,3.340175358524E-16));
#333 = VECTOR('',#334,1.);
#334 = DIRECTION('',(-0.,1.,-2.22044604925E-16));
#335 = ORIENTED_EDGE('',*,*,#306,.F.);
#336 = ORIENTED_EDGE('',*,*,#185,.T.);
#337 = ORIENTED_EDGE('',*,*,#155,.T.);
#338 = PLANE('',#339);
#339 = AXIS2_PLACEMENT_3D('',#340,#341,#342);
#340 = CARTESIAN_POINT('',(2.54E-02,-1.016,2.255973186038E-16));
#341 = DIRECTION('',(8.537024980201E-17,-2.22044604925E-16,-1.));
#342 = DIRECTION('',(1.,1.895600338964E-32,8.537024980201E-17));
#343 = ADVANCED_FACE('',(#344),#371,.T.);
#344 = FACE_BOUND('',#345,.T.);
#345 = EDGE_LOOP('',(#346,#347,#356,#364));
#346 = ORIENTED_EDGE('',*,*,#255,.T.);
#347 = ORIENTED_EDGE('',*,*,#348,.T.);
#348 = EDGE_CURVE('',#248,#349,#351,.T.);
#349 = VERTEX_POINT('',#350);
#350 = CARTESIAN_POINT('',(1.5494,0.508,0.6096));
#351 = CIRCLE('',#352,0.254);
#352 = AXIS2_PLACEMENT_3D('',#353,#354,#355);
#353 = CARTESIAN_POINT('',(1.2954,0.508,0.6096));
#354 = DIRECTION('',(0.,-1.,2.22044604925E-16));
#355 = DIRECTION('',(1.,0.,0.));
#356 = ORIENTED_EDGE('',*,*,#357,.T.);
#357 = EDGE_CURVE('',#349,#358,#360,.T.);
#358 = VERTEX_POINT('',#359);
#359 = CARTESIAN_POINT('',(1.905,0.508,0.6096));
#360 = LINE('',#361,#362);
#361 = CARTESIAN_POINT('',(1.5494,0.508,0.6096));
#362 = VECTOR('',#363,1.);
#363 = DIRECTION('',(1.,3.065075442652E-31,1.380387262139E-15));
#364 = ORIENTED_EDGE('',*,*,#365,.F.);
#365 = EDGE_CURVE('',#256,#358,#366,.T.);
#366 = CIRCLE('',#367,0.6096);
#367 = AXIS2_PLACEMENT_3D('',#368,#369,#370);
#368 = CARTESIAN_POINT('',(1.2954,0.508,0.6096));
#369 = DIRECTION('',(0.,-1.,2.22044604925E-16));
#370 = DIRECTION('',(1.,0.,0.));
#371 = PLANE('',#372);
#372 = AXIS2_PLACEMENT_3D('',#373,#374,#375);
#373 = CARTESIAN_POINT('',(1.2954,0.508,0.6096));
#374 = DIRECTION('',(0.,1.,-2.22044604925E-16));
#375 = DIRECTION('',(-1.,0.,0.));
#376 = ADVANCED_FACE('',(#377),#396,.F.);
#377 = FACE_BOUND('',#378,.F.);
#378 = EDGE_LOOP('',(#379,#380,#381,#389));
#379 = ORIENTED_EDGE('',*,*,#289,.T.);
#380 = ORIENTED_EDGE('',*,*,#348,.T.);
#381 = ORIENTED_EDGE('',*,*,#382,.F.);
#382 = EDGE_CURVE('',#383,#349,#385,.T.);
#383 = VERTEX_POINT('',#384);
#384 = CARTESIAN_POINT('',(1.5494,-0.508,0.6096));
#385 = LINE('',#386,#387);
#386 = CARTESIAN_POINT('',(1.5494,-1.016,0.6096));
#387 = VECTOR('',#388,1.);
#388 = DIRECTION('',(0.,1.,-2.22044604925E-16));
#389 = ORIENTED_EDGE('',*,*,#390,.T.);
#390 = EDGE_CURVE('',#383,#282,#391,.T.);
#391 = CIRCLE('',#392,0.254);
#392 = AXIS2_PLACEMENT_3D('',#393,#394,#395);
#393 = CARTESIAN_POINT('',(1.2954,-0.508,0.6096));
#394 = DIRECTION('',(0.,1.,-2.22044604925E-16));
#395 = DIRECTION('',(1.,0.,0.));
#396 = CYLINDRICAL_SURFACE('',#397,0.254);
#397 = AXIS2_PLACEMENT_3D('',#398,#399,#400);
#398 = CARTESIAN_POINT('',(1.2954,1.27230395532,0.6096));
#399 = DIRECTION('',(0.,-1.,2.22044604925E-16));
#400 = DIRECTION('',(1.,0.,0.));
#401 = ADVANCED_FACE('',(#402),#421,.T.);
#402 = FACE_BOUND('',#403,.T.);
#403 = EDGE_LOOP('',(#404,#412,#413,#414));
#404 = ORIENTED_EDGE('',*,*,#405,.T.);
#405 = EDGE_CURVE('',#406,#383,#408,.T.);
#406 = VERTEX_POINT('',#407);
#407 = CARTESIAN_POINT('',(1.905,-0.508,0.6096));
#408 = LINE('',#409,#410);
#409 = CARTESIAN_POINT('',(1.905,-0.508,0.6096));
#410 = VECTOR('',#411,1.);
#411 = DIRECTION('',(-1.,-3.065075442652E-31,-1.380387262139E-15));
#412 = ORIENTED_EDGE('',*,*,#390,.T.);
#413 = ORIENTED_EDGE('',*,*,#314,.F.);
#414 = ORIENTED_EDGE('',*,*,#415,.F.);
#415 = EDGE_CURVE('',#406,#307,#416,.T.);
#416 = CIRCLE('',#417,0.6096);
#417 = AXIS2_PLACEMENT_3D('',#418,#419,#420);
#418 = CARTESIAN_POINT('',(1.2954,-0.508,0.6096));
#419 = DIRECTION('',(0.,1.,-2.22044604925E-16));
#420 = DIRECTION('',(-1.,0.,0.));
#421 = PLANE('',#422);
#422 = AXIS2_PLACEMENT_3D('',#423,#424,#425);
#423 = CARTESIAN_POINT('',(1.2954,-0.508,0.6096));
#424 = DIRECTION('',(0.,-1.,2.22044604925E-16));
#425 = DIRECTION('',(1.,0.,0.));
#426 = ADVANCED_FACE('',(#427),#438,.T.);
#427 = FACE_BOUND('',#428,.T.);
#428 = EDGE_LOOP('',(#429,#430,#431,#432));
#429 = ORIENTED_EDGE('',*,*,#415,.T.);
#430 = ORIENTED_EDGE('',*,*,#330,.T.);
#431 = ORIENTED_EDGE('',*,*,#365,.T.);
#432 = ORIENTED_EDGE('',*,*,#433,.F.);
#433 = EDGE_CURVE('',#406,#358,#434,.T.);
#434 = LINE('',#435,#436);
#435 = CARTESIAN_POINT('',(1.905,-1.016,0.6096));
#436 = VECTOR('',#437,1.);
#437 = DIRECTION('',(0.,1.,-2.22044604925E-16));
#438 = CYLINDRICAL_SURFACE('',#439,0.6096);
#439 = AXIS2_PLACEMENT_3D('',#440,#441,#442);
#440 = CARTESIAN_POINT('',(1.2954,1.27230395532,0.6096));
#441 = DIRECTION('',(0.,-1.,2.22044604925E-16));
#442 = DIRECTION('',(1.,0.,0.));
#443 = ADVANCED_FACE('',(#444),#469,.T.);
#444 = FACE_BOUND('',#445,.T.);
#445 = EDGE_LOOP('',(#446,#454,#462,#468));
#446 = ORIENTED_EDGE('',*,*,#447,.T.);
#447 = EDGE_CURVE('',#358,#448,#450,.T.);
#448 = VERTEX_POINT('',#449);
#449 = CARTESIAN_POINT('',(1.905,0.508,1.6764));
#450 = LINE('',#451,#452);
#451 = CARTESIAN_POINT('',(1.905,0.508,-6.866985391003E-02));
#452 = VECTOR('',#453,1.);
#453 = DIRECTION('',(1.411831759592E-17,3.386649933008E-16,1.));
#454 = ORIENTED_EDGE('',*,*,#455,.F.);
#455 = EDGE_CURVE('',#456,#448,#458,.T.);
#456 = VERTEX_POINT('',#457);
#457 = CARTESIAN_POINT('',(1.905,-0.508,1.6764));
#458 = LINE('',#459,#460);
#459 = CARTESIAN_POINT('',(1.905,-1.016,1.6764));
#460 = VECTOR('',#461,1.);
#461 = DIRECTION('',(0.,1.,-2.22044604925E-16));
#462 = ORIENTED_EDGE('',*,*,#463,.T.);
#463 = EDGE_CURVE('',#456,#406,#464,.T.);
#464 = LINE('',#465,#466);
#465 = CARTESIAN_POINT('',(1.905,-0.508,-6.866985391003E-02));
#466 = VECTOR('',#467,1.);
#467 = DIRECTION('',(-1.411831759592E-17,-3.386649933008E-16,-1.));
#468 = ORIENTED_EDGE('',*,*,#433,.T.);
#469 = PLANE('',#470);
#470 = AXIS2_PLACEMENT_3D('',#471,#472,#473);
#471 = CARTESIAN_POINT('',(1.905,-1.016,0.6096));
#472 = DIRECTION('',(1.,9.02666828078E-32,4.065249990572E-16));
#473 = DIRECTION('',(-4.065249990572E-16,2.22044604925E-16,1.));
#474 = ADVANCED_FACE('',(#475),#493,.F.);
#475 = FACE_BOUND('',#476,.T.);
#476 = EDGE_LOOP('',(#477,#485,#491,#492));
#477 = ORIENTED_EDGE('',*,*,#478,.F.);
#478 = EDGE_CURVE('',#479,#456,#481,.T.);
#479 = VERTEX_POINT('',#480);
#480 = CARTESIAN_POINT('',(1.5494,-0.508,1.6764));
#481 = LINE('',#482,#483);
#482 = CARTESIAN_POINT('',(1.5494,-0.508,1.6764));
#483 = VECTOR('',#484,1.);
#484 = DIRECTION('',(1.,0.,0.));
#485 = ORIENTED_EDGE('',*,*,#486,.T.);
#486 = EDGE_CURVE('',#479,#383,#487,.T.);
#487 = LINE('',#488,#489);
#488 = CARTESIAN_POINT('',(1.5494,-0.508,-6.866985391003E-02));
#489 = VECTOR('',#490,1.);
#490 = DIRECTION('',(-1.411831759592E-17,-3.386649933008E-16,-1.));
#491 = ORIENTED_EDGE('',*,*,#405,.F.);
#492 = ORIENTED_EDGE('',*,*,#463,.F.);
#493 = PLANE('',#494);
#494 = AXIS2_PLACEMENT_3D('',#495,#496,#497);
#495 = CARTESIAN_POINT('',(1.905,-0.508,-6.866985391003E-02));
#496 = DIRECTION('',(-1.56419832153E-33,1.,-3.386649933008E-16));
#497 = DIRECTION('',(1.608122649677E-16,-3.386649933008E-16,-1.));
#498 = ADVANCED_FACE('',(#499),#517,.F.);
#499 = FACE_BOUND('',#500,.T.);
#500 = EDGE_LOOP('',(#501,#509,#515,#516));
#501 = ORIENTED_EDGE('',*,*,#502,.T.);
#502 = EDGE_CURVE('',#479,#503,#505,.T.);
#503 = VERTEX_POINT('',#504);
#504 = CARTESIAN_POINT('',(1.5494,0.508,1.6764));
#505 = LINE('',#506,#507);
#506 = CARTESIAN_POINT('',(1.5494,-1.016,1.6764));
#507 = VECTOR('',#508,1.);
#508 = DIRECTION('',(0.,1.,-2.22044604925E-16));
#509 = ORIENTED_EDGE('',*,*,#510,.F.);
#510 = EDGE_CURVE('',#349,#503,#511,.T.);
#511 = LINE('',#512,#513);
#512 = CARTESIAN_POINT('',(1.5494,0.508,-6.866985391003E-02));
#513 = VECTOR('',#514,1.);
#514 = DIRECTION('',(1.411831759592E-17,3.386649933008E-16,1.));
#515 = ORIENTED_EDGE('',*,*,#382,.F.);
#516 = ORIENTED_EDGE('',*,*,#486,.F.);
#517 = PLANE('',#518);
#518 = AXIS2_PLACEMENT_3D('',#519,#520,#521);
#519 = CARTESIAN_POINT('',(1.5494,-1.016,0.6096));
#520 = DIRECTION('',(1.,9.02666828078E-32,4.065249990572E-16));
#521 = DIRECTION('',(-4.065249990572E-16,2.22044604925E-16,1.));
#522 = ADVANCED_FACE('',(#523),#534,.F.);
#523 = FACE_BOUND('',#524,.T.);
#524 = EDGE_LOOP('',(#525,#531,#532,#533));
#525 = ORIENTED_EDGE('',*,*,#526,.F.);
#526 = EDGE_CURVE('',#448,#503,#527,.T.);
#527 = LINE('',#528,#529);
#528 = CARTESIAN_POINT('',(1.905,0.508,1.6764));
#529 = VECTOR('',#530,1.);
#530 = DIRECTION('',(-1.,0.,0.));
#531 = ORIENTED_EDGE('',*,*,#447,.F.);
#532 = ORIENTED_EDGE('',*,*,#357,.F.);
#533 = ORIENTED_EDGE('',*,*,#510,.T.);
#534 = PLANE('',#535);
#535 = AXIS2_PLACEMENT_3D('',#536,#537,#538);
#536 = CARTESIAN_POINT('',(1.905,0.508,-6.866985391003E-02));
#537 = DIRECTION('',(1.56419832153E-33,-1.,3.386649933008E-16));
#538 = DIRECTION('',(-1.608122649677E-16,3.386649933008E-16,1.));
#539 = ADVANCED_FACE('',(#540),#558,.T.);
#540 = FACE_BOUND('',#541,.T.);
#541 = EDGE_LOOP('',(#542,#543,#550,#551));
#542 = ORIENTED_EDGE('',*,*,#526,.T.);
#543 = ORIENTED_EDGE('',*,*,#544,.T.);
#544 = EDGE_CURVE('',#503,#80,#545,.T.);
#545 = CIRCLE('',#546,0.254);
#546 = AXIS2_PLACEMENT_3D('',#547,#548,#549);
#547 = CARTESIAN_POINT('',(1.2954,0.508,1.6764));
#548 = DIRECTION('',(0.,-1.,2.22044604925E-16));
#549 = DIRECTION('',(1.,0.,0.));
#550 = ORIENTED_EDGE('',*,*,#79,.T.);
#551 = ORIENTED_EDGE('',*,*,#552,.F.);
#552 = EDGE_CURVE('',#448,#72,#553,.T.);
#553 = CIRCLE('',#554,0.6096);
#554 = AXIS2_PLACEMENT_3D('',#555,#556,#557);
#555 = CARTESIAN_POINT('',(1.2954,0.508,1.6764));
#556 = DIRECTION('',(0.,-1.,2.22044604925E-16));
#557 = DIRECTION('',(1.,0.,0.));
#558 = PLANE('',#559);
#559 = AXIS2_PLACEMENT_3D('',#560,#561,#562);
#560 = CARTESIAN_POINT('',(1.2954,0.508,1.6764));
#561 = DIRECTION('',(0.,1.,-2.22044604925E-16));
#562 = DIRECTION('',(-1.,0.,0.));
#563 = ADVANCED_FACE('',(#564),#582,.T.);
#564 = FACE_BOUND('',#565,.T.);
#565 = EDGE_LOOP('',(#566,#567,#574,#575));
#566 = ORIENTED_EDGE('',*,*,#39,.T.);
#567 = ORIENTED_EDGE('',*,*,#568,.T.);
#568 = EDGE_CURVE('',#32,#479,#569,.T.);
#569 = CIRCLE('',#570,0.254);
#570 = AXIS2_PLACEMENT_3D('',#571,#572,#573);
#571 = CARTESIAN_POINT('',(1.2954,-0.508,1.6764));
#572 = DIRECTION('',(0.,1.,-2.22044604925E-16));
#573 = DIRECTION('',(1.,0.,0.));
#574 = ORIENTED_EDGE('',*,*,#478,.T.);
#575 = ORIENTED_EDGE('',*,*,#576,.F.);
#576 = EDGE_CURVE('',#40,#456,#577,.T.);
#577 = CIRCLE('',#578,0.6096);
#578 = AXIS2_PLACEMENT_3D('',#579,#580,#581);
#579 = CARTESIAN_POINT('',(1.2954,-0.508,1.6764));
#580 = DIRECTION('',(0.,1.,-2.22044604925E-16));
#581 = DIRECTION('',(-1.,0.,0.));
#582 = PLANE('',#583);
#583 = AXIS2_PLACEMENT_3D('',#584,#585,#586);
#584 = CARTESIAN_POINT('',(1.2954,-0.508,1.6764));
#585 = DIRECTION('',(0.,-1.,2.22044604925E-16));
#586 = DIRECTION('',(1.,0.,0.));
#587 = ADVANCED_FACE('',(#588),#594,.T.);
#588 = FACE_BOUND('',#589,.T.);
#589 = EDGE_LOOP('',(#590,#591,#592,#593));
#590 = ORIENTED_EDGE('',*,*,#576,.T.);
#591 = ORIENTED_EDGE('',*,*,#455,.T.);
#592 = ORIENTED_EDGE('',*,*,#552,.T.);
#593 = ORIENTED_EDGE('',*,*,#109,.F.);
#594 = CYLINDRICAL_SURFACE('',#595,0.6096);
#595 = AXIS2_PLACEMENT_3D('',#596,#597,#598);
#596 = CARTESIAN_POINT('',(1.2954,1.27230395532,1.6764));
#597 = DIRECTION('',(0.,-1.,2.22044604925E-16));
#598 = DIRECTION('',(1.,0.,0.));
#599 = ADVANCED_FACE('',(#600),#606,.F.);
#600 = FACE_BOUND('',#601,.F.);
#601 = EDGE_LOOP('',(#602,#603,#604,#605));
#602 = ORIENTED_EDGE('',*,*,#502,.T.);
#603 = ORIENTED_EDGE('',*,*,#544,.T.);
#604 = ORIENTED_EDGE('',*,*,#130,.F.);
#605 = ORIENTED_EDGE('',*,*,#568,.T.);
#606 = CYLINDRICAL_SURFACE('',#607,0.254);
#607 = AXIS2_PLACEMENT_3D('',#608,#609,#610);
#608 = CARTESIAN_POINT('',(1.2954,1.27230395532,1.6764));
#609 = DIRECTION('',(0.,-1.,2.22044604925E-16));
#610 = DIRECTION('',(1.,0.,0.));
#611 = ADVANCED_FACE('',(#612),#639,.T.);
#612 = FACE_BOUND('',#613,.T.);
#613 = EDGE_LOOP('',(#614,#615,#624,#632));
#614 = ORIENTED_EDGE('',*,*,#61,.T.);
#615 = ORIENTED_EDGE('',*,*,#616,.T.);
#616 = EDGE_CURVE('',#64,#617,#619,.T.);
#617 = VERTEX_POINT('',#618);
#618 = CARTESIAN_POINT('',(-1.5494,0.508,1.6764));
#619 = CIRCLE('',#620,0.254);
#620 = AXIS2_PLACEMENT_3D('',#621,#622,#623);
#621 = CARTESIAN_POINT('',(-1.2954,0.508,1.6764));
#622 = DIRECTION('',(0.,-1.,2.22044604925E-16));
#623 = DIRECTION('',(1.,0.,0.));
#624 = ORIENTED_EDGE('',*,*,#625,.T.);
#625 = EDGE_CURVE('',#617,#626,#628,.T.);
#626 = VERTEX_POINT('',#627);
#627 = CARTESIAN_POINT('',(-1.905,0.508,1.6764));
#628 = LINE('',#629,#630);
#629 = CARTESIAN_POINT('',(-1.5494,0.508,1.6764));
#630 = VECTOR('',#631,1.);
#631 = DIRECTION('',(-1.,1.359631073447E-32,6.123233995737E-17));
#632 = ORIENTED_EDGE('',*,*,#633,.F.);
#633 = EDGE_CURVE('',#62,#626,#634,.T.);
#634 = CIRCLE('',#635,0.6096);
#635 = AXIS2_PLACEMENT_3D('',#636,#637,#638);
#636 = CARTESIAN_POINT('',(-1.2954,0.508,1.6764));
#637 = DIRECTION('',(0.,-1.,2.22044604925E-16));
#638 = DIRECTION('',(1.,0.,0.));
#639 = PLANE('',#640);
#640 = AXIS2_PLACEMENT_3D('',#641,#642,#643);
#641 = CARTESIAN_POINT('',(-1.2954,0.508,1.6764));
#642 = DIRECTION('',(0.,1.,-2.22044604925E-16));
#643 = DIRECTION('',(-1.,0.,0.));
#644 = ADVANCED_FACE('',(#645),#672,.T.);
#645 = FACE_BOUND('',#646,.T.);
#646 = EDGE_LOOP('',(#647,#657,#664,#665));
#647 = ORIENTED_EDGE('',*,*,#648,.T.);
#648 = EDGE_CURVE('',#649,#651,#653,.T.);
#649 = VERTEX_POINT('',#650);
#650 = CARTESIAN_POINT('',(-1.905,-0.508,1.6764));
#651 = VERTEX_POINT('',#652);
#652 = CARTESIAN_POINT('',(-1.5494,-0.508,1.6764));
#653 = LINE('',#654,#655);
#654 = CARTESIAN_POINT('',(-1.905,-0.508,1.6764));
#655 = VECTOR('',#656,1.);
#656 = DIRECTION('',(1.,-1.359631073447E-32,-6.123233995737E-17));
#657 = ORIENTED_EDGE('',*,*,#658,.T.);
#658 = EDGE_CURVE('',#651,#22,#659,.T.);
#659 = CIRCLE('',#660,0.254);
#660 = AXIS2_PLACEMENT_3D('',#661,#662,#663);
#661 = CARTESIAN_POINT('',(-1.2954,-0.508,1.6764));
#662 = DIRECTION('',(0.,1.,-2.22044604925E-16));
#663 = DIRECTION('',(1.,0.,0.));
#664 = ORIENTED_EDGE('',*,*,#21,.T.);
#665 = ORIENTED_EDGE('',*,*,#666,.F.);
#666 = EDGE_CURVE('',#649,#24,#667,.T.);
#667 = CIRCLE('',#668,0.6096);
#668 = AXIS2_PLACEMENT_3D('',#669,#670,#671);
#669 = CARTESIAN_POINT('',(-1.2954,-0.508,1.6764));
#670 = DIRECTION('',(0.,1.,-2.22044604925E-16));
#671 = DIRECTION('',(-1.,0.,0.));
#672 = PLANE('',#673);
#673 = AXIS2_PLACEMENT_3D('',#674,#675,#676);
#674 = CARTESIAN_POINT('',(-1.2954,-0.508,1.6764));
#675 = DIRECTION('',(0.,-1.,2.22044604925E-16));
#676 = DIRECTION('',(1.,0.,0.));
#677 = ADVANCED_FACE('',(#678),#689,.T.);
#678 = FACE_BOUND('',#679,.T.);
#679 = EDGE_LOOP('',(#680,#681,#682,#683));
#680 = ORIENTED_EDGE('',*,*,#666,.T.);
#681 = ORIENTED_EDGE('',*,*,#102,.T.);
#682 = ORIENTED_EDGE('',*,*,#633,.T.);
#683 = ORIENTED_EDGE('',*,*,#684,.F.);
#684 = EDGE_CURVE('',#649,#626,#685,.T.);
#685 = LINE('',#686,#687);
#686 = CARTESIAN_POINT('',(-1.905,-1.016,1.6764));
#687 = VECTOR('',#688,1.);
#688 = DIRECTION('',(0.,1.,-2.22044604925E-16));
#689 = CYLINDRICAL_SURFACE('',#690,0.6096);
#690 = AXIS2_PLACEMENT_3D('',#691,#692,#693);
#691 = CARTESIAN_POINT('',(-1.2954,1.27230395532,1.6764));
#692 = DIRECTION('',(0.,-1.,2.22044604925E-16));
#693 = DIRECTION('',(1.,0.,0.));
#694 = ADVANCED_FACE('',(#695),#706,.F.);
#695 = FACE_BOUND('',#696,.F.);
#696 = EDGE_LOOP('',(#697,#698,#699,#705));
#697 = ORIENTED_EDGE('',*,*,#123,.T.);
#698 = ORIENTED_EDGE('',*,*,#616,.T.);
#699 = ORIENTED_EDGE('',*,*,#700,.F.);
#700 = EDGE_CURVE('',#651,#617,#701,.T.);
#701 = LINE('',#702,#703);
#702 = CARTESIAN_POINT('',(-1.5494,-1.016,1.6764));
#703 = VECTOR('',#704,1.);
#704 = DIRECTION('',(0.,1.,-2.22044604925E-16));
#705 = ORIENTED_EDGE('',*,*,#658,.T.);
#706 = CYLINDRICAL_SURFACE('',#707,0.254);
#707 = AXIS2_PLACEMENT_3D('',#708,#709,#710);
#708 = CARTESIAN_POINT('',(-1.2954,1.27230395532,1.6764));
#709 = DIRECTION('',(0.,-1.,2.22044604925E-16));
#710 = DIRECTION('',(1.,0.,0.));
#711 = ADVANCED_FACE('',(#712),#737,.T.);
#712 = FACE_BOUND('',#713,.T.);
#713 = EDGE_LOOP('',(#714,#722,#730,#736));
#714 = ORIENTED_EDGE('',*,*,#715,.T.);
#715 = EDGE_CURVE('',#626,#716,#718,.T.);
#716 = VERTEX_POINT('',#717);
#717 = CARTESIAN_POINT('',(-1.905,0.508,0.6096));
#718 = LINE('',#719,#720);
#719 = CARTESIAN_POINT('',(-1.905,0.508,7.36880956173));
#720 = VECTOR('',#721,1.);
#721 = DIRECTION('',(-1.365829975107E-16,-1.054242165493E-16,-1.));
#722 = ORIENTED_EDGE('',*,*,#723,.F.);
#723 = EDGE_CURVE('',#724,#716,#726,.T.);
#724 = VERTEX_POINT('',#725);
#725 = CARTESIAN_POINT('',(-1.905,-0.508,0.6096));
#726 = LINE('',#727,#728);
#727 = CARTESIAN_POINT('',(-1.905,-1.016,0.6096));
#728 = VECTOR('',#729,1.);
#729 = DIRECTION('',(0.,1.,-2.22044604925E-16));
#730 = ORIENTED_EDGE('',*,*,#731,.T.);
#731 = EDGE_CURVE('',#724,#649,#732,.T.);
#732 = LINE('',#733,#734);
#733 = CARTESIAN_POINT('',(-1.905,-0.508,7.36880956173));
#734 = VECTOR('',#735,1.);
#735 = DIRECTION('',(1.365829975107E-16,1.054242165493E-16,1.));
#736 = ORIENTED_EDGE('',*,*,#684,.T.);
#737 = PLANE('',#738);
#738 = AXIS2_PLACEMENT_3D('',#739,#740,#741);
#739 = CARTESIAN_POINT('',(-1.905,-1.016,0.6096));
#740 = DIRECTION('',(-1.,0.,0.));
#741 = DIRECTION('',(0.,-1.,2.22044604925E-16));
#742 = ADVANCED_FACE('',(#743),#761,.F.);
#743 = FACE_BOUND('',#744,.T.);
#744 = EDGE_LOOP('',(#745,#753,#754,#755));
#745 = ORIENTED_EDGE('',*,*,#746,.F.);
#746 = EDGE_CURVE('',#716,#747,#749,.T.);
#747 = VERTEX_POINT('',#748);
#748 = CARTESIAN_POINT('',(-1.5494,0.508,0.6096));
#749 = LINE('',#750,#751);
#750 = CARTESIAN_POINT('',(-1.905,0.508,0.6096));
#751 = VECTOR('',#752,1.);
#752 = DIRECTION('',(1.,0.,0.));
#753 = ORIENTED_EDGE('',*,*,#715,.F.);
#754 = ORIENTED_EDGE('',*,*,#625,.F.);
#755 = ORIENTED_EDGE('',*,*,#756,.T.);
#756 = EDGE_CURVE('',#617,#747,#757,.T.);
#757 = LINE('',#758,#759);
#758 = CARTESIAN_POINT('',(-1.5494,0.508,7.36880956173));
#759 = VECTOR('',#760,1.);
#760 = DIRECTION('',(-1.365829975107E-16,-1.054242165493E-16,-1.));
#761 = PLANE('',#762);
#762 = AXIS2_PLACEMENT_3D('',#763,#764,#765);
#763 = CARTESIAN_POINT('',(-1.905,0.508,7.36880956173));
#764 = DIRECTION('',(-1.584607685549E-32,-1.,1.054242165493E-16));
#765 = DIRECTION('',(3.834758505293E-17,-1.054242165493E-16,-1.));
#766 = ADVANCED_FACE('',(#767),#785,.F.);
#767 = FACE_BOUND('',#768,.T.);
#768 = EDGE_LOOP('',(#769,#777,#778,#779));
#769 = ORIENTED_EDGE('',*,*,#770,.T.);
#770 = EDGE_CURVE('',#771,#747,#773,.T.);
#771 = VERTEX_POINT('',#772);
#772 = CARTESIAN_POINT('',(-1.5494,-0.508,0.6096));
#773 = LINE('',#774,#775);
#774 = CARTESIAN_POINT('',(-1.5494,-1.016,0.6096));
#775 = VECTOR('',#776,1.);
#776 = DIRECTION('',(0.,1.,-2.22044604925E-16));
#777 = ORIENTED_EDGE('',*,*,#756,.F.);
#778 = ORIENTED_EDGE('',*,*,#700,.F.);
#779 = ORIENTED_EDGE('',*,*,#780,.F.);
#780 = EDGE_CURVE('',#771,#651,#781,.T.);
#781 = LINE('',#782,#783);
#782 = CARTESIAN_POINT('',(-1.5494,-0.508,7.36880956173));
#783 = VECTOR('',#784,1.);
#784 = DIRECTION('',(1.365829975107E-16,1.054242165493E-16,1.));
#785 = PLANE('',#786);
#786 = AXIS2_PLACEMENT_3D('',#787,#788,#789);
#787 = CARTESIAN_POINT('',(-1.5494,-1.016,0.6096));
#788 = DIRECTION('',(-1.,0.,0.));
#789 = DIRECTION('',(0.,-1.,2.22044604925E-16));
#790 = ADVANCED_FACE('',(#791),#802,.F.);
#791 = FACE_BOUND('',#792,.T.);
#792 = EDGE_LOOP('',(#793,#799,#800,#801));
#793 = ORIENTED_EDGE('',*,*,#794,.F.);
#794 = EDGE_CURVE('',#771,#724,#795,.T.);
#795 = LINE('',#796,#797);
#796 = CARTESIAN_POINT('',(-1.5494,-0.508,0.6096));
#797 = VECTOR('',#798,1.);
#798 = DIRECTION('',(-1.,0.,0.));
#799 = ORIENTED_EDGE('',*,*,#780,.T.);
#800 = ORIENTED_EDGE('',*,*,#648,.F.);
#801 = ORIENTED_EDGE('',*,*,#731,.F.);
#802 = PLANE('',#803);
#803 = AXIS2_PLACEMENT_3D('',#804,#805,#806);
#804 = CARTESIAN_POINT('',(-1.905,-0.508,7.36880956173));
#805 = DIRECTION('',(1.584607685549E-32,1.,-1.054242165493E-16));
#806 = DIRECTION('',(-3.834758505293E-17,1.054242165493E-16,1.));
#807 = ADVANCED_FACE('',(#808),#835,.T.);
#808 = FACE_BOUND('',#809,.T.);
#809 = EDGE_LOOP('',(#810,#811,#820,#828));
#810 = ORIENTED_EDGE('',*,*,#746,.T.);
#811 = ORIENTED_EDGE('',*,*,#812,.T.);
#812 = EDGE_CURVE('',#747,#813,#815,.T.);
#813 = VERTEX_POINT('',#814);
#814 = CARTESIAN_POINT('',(-1.2954,0.508,0.3556));
#815 = CIRCLE('',#816,0.254);
#816 = AXIS2_PLACEMENT_3D('',#817,#818,#819);
#817 = CARTESIAN_POINT('',(-1.2954,0.508,0.6096));
#818 = DIRECTION('',(0.,-1.,2.22044604925E-16));
#819 = DIRECTION('',(1.,0.,0.));
#820 = ORIENTED_EDGE('',*,*,#821,.F.);
#821 = EDGE_CURVE('',#822,#813,#824,.T.);
#822 = VERTEX_POINT('',#823);
#823 = CARTESIAN_POINT('',(-1.2954,0.508,3.790329161646E-15));
#824 = LINE('',#825,#826);
#825 = CARTESIAN_POINT('',(-1.2954,0.508,3.790329161646E-15));
#826 = VECTOR('',#827,1.);
#827 = DIRECTION('',(6.411989643504E-16,2.22044604925E-16,1.));
#828 = ORIENTED_EDGE('',*,*,#829,.F.);
#829 = EDGE_CURVE('',#716,#822,#830,.T.);
#830 = CIRCLE('',#831,0.6096);
#831 = AXIS2_PLACEMENT_3D('',#832,#833,#834);
#832 = CARTESIAN_POINT('',(-1.2954,0.508,0.6096));
#833 = DIRECTION('',(0.,-1.,2.22044604925E-16));
#834 = DIRECTION('',(1.,0.,0.));
#835 = PLANE('',#836);
#836 = AXIS2_PLACEMENT_3D('',#837,#838,#839);
#837 = CARTESIAN_POINT('',(-1.2954,0.508,0.6096));
#838 = DIRECTION('',(0.,1.,-2.22044604925E-16));
#839 = DIRECTION('',(-1.,0.,0.));
#840 = ADVANCED_FACE('',(#841),#868,.T.);
#841 = FACE_BOUND('',#842,.T.);
#842 = EDGE_LOOP('',(#843,#853,#860,#861));
#843 = ORIENTED_EDGE('',*,*,#844,.T.);
#844 = EDGE_CURVE('',#845,#847,#849,.T.);
#845 = VERTEX_POINT('',#846);
#846 = CARTESIAN_POINT('',(-1.2954,-0.508,8.717401800418E-16));
#847 = VERTEX_POINT('',#848);
#848 = CARTESIAN_POINT('',(-1.2954,-0.508,0.3556));
#849 = LINE('',#850,#851);
#850 = CARTESIAN_POINT('',(-1.2954,-0.508,4.01592648025E-15));
#851 = VECTOR('',#852,1.);
#852 = DIRECTION('',(6.411989643504E-16,2.22044604925E-16,1.));
#853 = ORIENTED_EDGE('',*,*,#854,.T.);
#854 = EDGE_CURVE('',#847,#771,#855,.T.);
#855 = CIRCLE('',#856,0.254);
#856 = AXIS2_PLACEMENT_3D('',#857,#858,#859);
#857 = CARTESIAN_POINT('',(-1.2954,-0.508,0.6096));
#858 = DIRECTION('',(0.,1.,-2.22044604925E-16));
#859 = DIRECTION('',(1.,1.895600338964E-31,8.537024980201E-16));
#860 = ORIENTED_EDGE('',*,*,#794,.T.);
#861 = ORIENTED_EDGE('',*,*,#862,.F.);
#862 = EDGE_CURVE('',#845,#724,#863,.T.);
#863 = CIRCLE('',#864,0.6096);
#864 = AXIS2_PLACEMENT_3D('',#865,#866,#867);
#865 = CARTESIAN_POINT('',(-1.2954,-0.508,0.6096));
#866 = DIRECTION('',(0.,1.,-2.22044604925E-16));
#867 = DIRECTION('',(-1.,0.,0.));
#868 = PLANE('',#869);
#869 = AXIS2_PLACEMENT_3D('',#870,#871,#872);
#870 = CARTESIAN_POINT('',(-1.2954,-0.508,0.6096));
#871 = DIRECTION('',(0.,-1.,2.22044604925E-16));
#872 = DIRECTION('',(1.,0.,0.));
#873 = ADVANCED_FACE('',(#874),#885,.T.);
#874 = FACE_BOUND('',#875,.T.);
#875 = EDGE_LOOP('',(#876,#877,#878,#879));
#876 = ORIENTED_EDGE('',*,*,#862,.T.);
#877 = ORIENTED_EDGE('',*,*,#723,.T.);
#878 = ORIENTED_EDGE('',*,*,#829,.T.);
#879 = ORIENTED_EDGE('',*,*,#880,.F.);
#880 = EDGE_CURVE('',#845,#822,#881,.T.);
#881 = LINE('',#882,#883);
#882 = CARTESIAN_POINT('',(-1.2954,-1.016,5.863448615528E-15));
#883 = VECTOR('',#884,1.);
#884 = DIRECTION('',(0.,1.,-2.22044604925E-16));
#885 = CYLINDRICAL_SURFACE('',#886,0.6096);
#886 = AXIS2_PLACEMENT_3D('',#887,#888,#889);
#887 = CARTESIAN_POINT('',(-1.2954,1.27230395532,0.6096));
#888 = DIRECTION('',(0.,-1.,2.22044604925E-16));
#889 = DIRECTION('',(1.,0.,0.));
#890 = ADVANCED_FACE('',(#891),#902,.F.);
#891 = FACE_BOUND('',#892,.F.);
#892 = EDGE_LOOP('',(#893,#894,#895,#901));
#893 = ORIENTED_EDGE('',*,*,#770,.T.);
#894 = ORIENTED_EDGE('',*,*,#812,.T.);
#895 = ORIENTED_EDGE('',*,*,#896,.F.);
#896 = EDGE_CURVE('',#847,#813,#897,.T.);
#897 = LINE('',#898,#899);
#898 = CARTESIAN_POINT('',(-1.2954,-1.016,0.3556));
#899 = VECTOR('',#900,1.);
#900 = DIRECTION('',(0.,1.,-2.22044604925E-16));
#901 = ORIENTED_EDGE('',*,*,#854,.T.);
#902 = CYLINDRICAL_SURFACE('',#903,0.254);
#903 = AXIS2_PLACEMENT_3D('',#904,#905,#906);
#904 = CARTESIAN_POINT('',(-1.2954,1.27230395532,0.6096));
#905 = DIRECTION('',(0.,-1.,2.22044604925E-16));
#906 = DIRECTION('',(1.,0.,0.));
#907 = ADVANCED_FACE('',(#908),#942,.F.);
#908 = FACE_BOUND('',#909,.T.);
#909 = EDGE_LOOP('',(#910,#920,#928,#936));
#910 = ORIENTED_EDGE('',*,*,#911,.T.);
#911 = EDGE_CURVE('',#912,#914,#916,.T.);
#912 = VERTEX_POINT('',#913);
#913 = CARTESIAN_POINT('',(-2.54E-02,-1.016,0.3556));
#914 = VERTEX_POINT('',#915);
#915 = CARTESIAN_POINT('',(-1.2954,-1.016,0.3556));
#916 = LINE('',#917,#918);
#917 = CARTESIAN_POINT('',(-2.54E-02,-1.016,0.3556));
#918 = VECTOR('',#919,1.);
#919 = DIRECTION('',(-1.,-3.791200677928E-32,-1.70740499604E-16));
#920 = ORIENTED_EDGE('',*,*,#921,.T.);
#921 = EDGE_CURVE('',#914,#922,#924,.T.);
#922 = VERTEX_POINT('',#923);
#923 = CARTESIAN_POINT('',(-1.2954,-1.016,5.863448615528E-15));
#924 = LINE('',#925,#926);
#925 = CARTESIAN_POINT('',(-1.2954,-1.016,0.3556));
#926 = VECTOR('',#927,1.);
#927 = DIRECTION('',(-6.097874985858E-16,-2.22044604925E-16,-1.));
#928 = ORIENTED_EDGE('',*,*,#929,.F.);
#929 = EDGE_CURVE('',#930,#922,#932,.T.);
#930 = VERTEX_POINT('',#931);
#931 = CARTESIAN_POINT('',(-2.54E-02,-1.016,6.947650788014E-15));
#932 = LINE('',#933,#934);
#933 = CARTESIAN_POINT('',(-2.54E-02,-1.016,6.947650788014E-15));
#934 = VECTOR('',#935,1.);
#935 = DIRECTION('',(-1.,-3.791200677928E-32,-1.70740499604E-16));
#936 = ORIENTED_EDGE('',*,*,#937,.F.);
#937 = EDGE_CURVE('',#912,#930,#938,.T.);
#938 = LINE('',#939,#940);
#939 = CARTESIAN_POINT('',(-2.54E-02,-1.016,0.3556));
#940 = VECTOR('',#941,1.);
#941 = DIRECTION('',(1.715027339772E-16,-2.22044604925E-16,-1.));
#942 = PLANE('',#943);
#943 = AXIS2_PLACEMENT_3D('',#944,#945,#946);
#944 = CARTESIAN_POINT('',(1.2954,-1.016,0.6096));
#945 = DIRECTION('',(0.,1.,-2.22044604925E-16));
#946 = DIRECTION('',(-1.,0.,0.));
#947 = ADVANCED_FACE('',(#948),#973,.T.);
#948 = FACE_BOUND('',#949,.T.);
#949 = EDGE_LOOP('',(#950,#960,#966,#967));
#950 = ORIENTED_EDGE('',*,*,#951,.F.);
#951 = EDGE_CURVE('',#952,#954,#956,.T.);
#952 = VERTEX_POINT('',#953);
#953 = CARTESIAN_POINT('',(-2.54E-02,1.016,0.3556));
#954 = VERTEX_POINT('',#955);
#955 = CARTESIAN_POINT('',(-2.54E-02,1.016,6.496456150806E-15));
#956 = LINE('',#957,#958);
#957 = CARTESIAN_POINT('',(-2.54E-02,1.016,0.3556));
#958 = VECTOR('',#959,1.);
#959 = DIRECTION('',(1.715027339772E-16,-2.22044604925E-16,-1.));
#960 = ORIENTED_EDGE('',*,*,#961,.F.);
#961 = EDGE_CURVE('',#912,#952,#962,.T.);
#962 = LINE('',#963,#964);
#963 = CARTESIAN_POINT('',(-2.54E-02,-1.016,0.3556));
#964 = VECTOR('',#965,1.);
#965 = DIRECTION('',(0.,1.,-2.22044604925E-16));
#966 = ORIENTED_EDGE('',*,*,#937,.T.);
#967 = ORIENTED_EDGE('',*,*,#968,.T.);
#968 = EDGE_CURVE('',#930,#954,#969,.T.);
#969 = LINE('',#970,#971);
#970 = CARTESIAN_POINT('',(-2.54E-02,-1.016,6.947650788014E-15));
#971 = VECTOR('',#972,1.);
#972 = DIRECTION('',(0.,1.,-2.22044604925E-16));
#973 = PLANE('',#974);
#974 = AXIS2_PLACEMENT_3D('',#975,#976,#977);
#975 = CARTESIAN_POINT('',(-2.54E-02,-1.016,0.3556));
#976 = DIRECTION('',(1.,3.808125680954E-32,1.715027339772E-16));
#977 = DIRECTION('',(-1.715027339772E-16,2.22044604925E-16,1.));
#978 = ADVANCED_FACE('',(#979),#1004,.T.);
#979 = FACE_BOUND('',#980,.T.);
#980 = EDGE_LOOP('',(#981,#989,#997,#1003));
#981 = ORIENTED_EDGE('',*,*,#982,.T.);
#982 = EDGE_CURVE('',#954,#983,#985,.T.);
#983 = VERTEX_POINT('',#984);
#984 = CARTESIAN_POINT('',(-1.2954,1.016,3.677530502344E-15));
#985 = LINE('',#986,#987);
#986 = CARTESIAN_POINT('',(-2.54E-02,1.016,6.496456150806E-15));
#987 = VECTOR('',#988,1.);
#988 = DIRECTION('',(-1.,-3.791200677928E-32,-1.70740499604E-16));
#989 = ORIENTED_EDGE('',*,*,#990,.T.);
#990 = EDGE_CURVE('',#983,#991,#993,.T.);
#991 = VERTEX_POINT('',#992);
#992 = CARTESIAN_POINT('',(-1.2954,1.016,0.3556));
#993 = LINE('',#994,#995);
#994 = CARTESIAN_POINT('',(-1.2954,1.016,5.412253978321E-15));
#995 = VECTOR('',#996,1.);
#996 = DIRECTION('',(6.097874985858E-16,2.22044604925E-16,1.));
#997 = ORIENTED_EDGE('',*,*,#998,.F.);
#998 = EDGE_CURVE('',#952,#991,#999,.T.);
#999 = LINE('',#1000,#1001);
#1000 = CARTESIAN_POINT('',(-2.54E-02,1.016,0.3556));
#1001 = VECTOR('',#1002,1.);
#1002 = DIRECTION('',(-1.,-3.791200677928E-32,-1.70740499604E-16));
#1003 = ORIENTED_EDGE('',*,*,#951,.T.);
#1004 = PLANE('',#1005);
#1005 = AXIS2_PLACEMENT_3D('',#1006,#1007,#1008);
#1006 = CARTESIAN_POINT('',(-1.5494,1.016,0.6096));
#1007 = DIRECTION('',(0.,1.,-2.22044604925E-16));
#1008 = DIRECTION('',(-1.,0.,0.));
#1009 = ADVANCED_FACE('',(#1010),#1028,.T.);
#1010 = FACE_BOUND('',#1011,.T.);
#1011 = EDGE_LOOP('',(#1012,#1013,#1014,#1015,#1021,#1022));
#1012 = ORIENTED_EDGE('',*,*,#982,.F.);
#1013 = ORIENTED_EDGE('',*,*,#968,.F.);
#1014 = ORIENTED_EDGE('',*,*,#929,.T.);
#1015 = ORIENTED_EDGE('',*,*,#1016,.T.);
#1016 = EDGE_CURVE('',#922,#845,#1017,.T.);
#1017 = LINE('',#1018,#1019);
#1018 = CARTESIAN_POINT('',(-1.2954,-1.016,5.863448615528E-15));
#1019 = VECTOR('',#1020,1.);
#1020 = DIRECTION('',(0.,1.,-2.22044604925E-16));
#1021 = ORIENTED_EDGE('',*,*,#880,.T.);
#1022 = ORIENTED_EDGE('',*,*,#1023,.T.);
#1023 = EDGE_CURVE('',#822,#983,#1024,.T.);
#1024 = LINE('',#1025,#1026);
#1025 = CARTESIAN_POINT('',(-1.2954,1.016,3.677530502344E-15));
#1026 = VECTOR('',#1027,1.);
#1027 = DIRECTION('',(3.41480999208E-15,1.,-2.22044604925E-16));
#1028 = PLANE('',#1029);
#1029 = AXIS2_PLACEMENT_3D('',#1030,#1031,#1032);
#1030 = CARTESIAN_POINT('',(-2.54E-02,-1.016,6.947650788014E-15));
#1031 = DIRECTION('',(1.70740499604E-16,-2.22044604925E-16,-1.));
#1032 = DIRECTION('',(1.,3.791200677928E-32,1.70740499604E-16));
#1033 = ADVANCED_FACE('',(#1034),#1045,.F.);
#1034 = FACE_BOUND('',#1035,.T.);
#1035 = EDGE_LOOP('',(#1036,#1042,#1043,#1044));
#1036 = ORIENTED_EDGE('',*,*,#1037,.T.);
#1037 = EDGE_CURVE('',#813,#991,#1038,.T.);
#1038 = LINE('',#1039,#1040);
#1039 = CARTESIAN_POINT('',(-1.2954,1.016,0.3556));
#1040 = VECTOR('',#1041,1.);
#1041 = DIRECTION('',(3.41480999208E-15,1.,-2.22044604925E-16));
#1042 = ORIENTED_EDGE('',*,*,#990,.F.);
#1043 = ORIENTED_EDGE('',*,*,#1023,.F.);
#1044 = ORIENTED_EDGE('',*,*,#821,.T.);
#1045 = PLANE('',#1046);
#1046 = AXIS2_PLACEMENT_3D('',#1047,#1048,#1049);
#1047 = CARTESIAN_POINT('',(-1.2954,1.016,3.677530502344E-15));
#1048 = DIRECTION('',(1.,-3.41480999208E-15,-6.411989643504E-16));
#1049 = DIRECTION('',(3.41480999208E-15,1.,-2.22044604925E-16));
#1050 = ADVANCED_FACE('',(#1051),#1064,.F.);
#1051 = FACE_BOUND('',#1052,.T.);
#1052 = EDGE_LOOP('',(#1053,#1054,#1055,#1056,#1062,#1063));
#1053 = ORIENTED_EDGE('',*,*,#998,.T.);
#1054 = ORIENTED_EDGE('',*,*,#1037,.F.);
#1055 = ORIENTED_EDGE('',*,*,#896,.F.);
#1056 = ORIENTED_EDGE('',*,*,#1057,.F.);
#1057 = EDGE_CURVE('',#914,#847,#1058,.T.);
#1058 = LINE('',#1059,#1060);
#1059 = CARTESIAN_POINT('',(-1.2954,-1.016,0.3556));
#1060 = VECTOR('',#1061,1.);
#1061 = DIRECTION('',(0.,1.,-2.22044604925E-16));
#1062 = ORIENTED_EDGE('',*,*,#911,.F.);
#1063 = ORIENTED_EDGE('',*,*,#961,.T.);
#1064 = PLANE('',#1065);
#1065 = AXIS2_PLACEMENT_3D('',#1066,#1067,#1068);
#1066 = CARTESIAN_POINT('',(-2.54E-02,-1.016,0.3556));
#1067 = DIRECTION('',(1.70740499604E-16,-2.22044604925E-16,-1.));
#1068 = DIRECTION('',(1.,3.791200677928E-32,1.70740499604E-16));
#1069 = ADVANCED_FACE('',(#1070),#1076,.F.);
#1070 = FACE_BOUND('',#1071,.T.);
#1071 = EDGE_LOOP('',(#1072,#1073,#1074,#1075));
#1072 = ORIENTED_EDGE('',*,*,#1057,.T.);
#1073 = ORIENTED_EDGE('',*,*,#844,.F.);
#1074 = ORIENTED_EDGE('',*,*,#1016,.F.);
#1075 = ORIENTED_EDGE('',*,*,#921,.F.);
#1076 = PLANE('',#1077);
#1077 = AXIS2_PLACEMENT_3D('',#1078,#1079,#1080);
#1078 = CARTESIAN_POINT('',(-1.2954,-1.016,4.128725139552E-15));
#1079 = DIRECTION('',(1.,6.829619984161E-15,-6.411989643504E-16));
#1080 = DIRECTION('',(-6.829619984161E-15,1.,-2.22044604925E-16));
#1081 = ( GEOMETRIC_REPRESENTATION_CONTEXT(3) 
GLOBAL_UNCERTAINTY_ASSIGNED_CONTEXT((#1085)) 
GLOBAL_UNIT_ASSIGNED_CONTEXT((#1082,#1083,#1084)) REPRESENTATION_CONTEXT
('Context #1','3D Context with UNIT and UNCERTAINTY') );
#1082 = ( LENGTH_UNIT() NAMED_UNIT(*) SI_UNIT(.MILLI.,.METRE.) );
#1083 = ( NAMED_UNIT(*) PLANE_ANGLE_UNIT() SI_UNIT($,.RADIAN.) );
#1084 = ( NAMED_UNIT(*) SI_UNIT($,.STERADIAN.) SOLID_ANGLE_UNIT() );
#1085 = UNCERTAINTY_MEASURE_WITH_UNIT(LENGTH_MEASURE(1.E-07),#1082,
  'distance_accuracy_value','confusion accuracy');
#1086 = PRODUCT_RELATED_PRODUCT_CATEGORY('part',$,(#7));
#1087 = MECHANICAL_DESIGN_GEOMETRIC_PRESENTATION_REPRESENTATION('',(
    #1088),#1081);
#1088 = STYLED_ITEM('color',(#1089),#15);
#1089 = PRESENTATION_STYLE_ASSIGNMENT((#1090,#1096));
#1090 = SURFACE_STYLE_USAGE(.BOTH.,#1091);
#1091 = SURFACE_SIDE_STYLE('',(#1092));
#1092 = SURFACE_STYLE_FILL_AREA(#1093);
#1093 = FILL_AREA_STYLE('',(#1094));
#1094 = FILL_AREA_STYLE_COLOUR('',#1095);
#1095 = COLOUR_RGB('',0.988235296747,1.,0.988235296747);
#1096 = CURVE_STYLE('',#1097,POSITIVE_LENGTH_MEASURE(0.1),#1098);
#1097 = DRAUGHTING_PRE_DEFINED_CURVE_FONT('continuous');
#1098 = COLOUR_RGB('',9.803921802644E-02,9.803921802644E-02,
  9.803921802644E-02);
ENDSEC;
END-ISO-10303-21;
